<svg id="Layer_1" data-name="Layer 1" xmlns="http://www.w3.org/2000/svg" viewBox="0 0 206 206"><defs><style>.cls-1{fill:#46a540;}</style></defs><title>careericons</title><path class="cls-1" d="M103,206a55.06,55.06,0,0,1-55-55V113l3.23,1.2c21.84,8.16,40.72,11,56.33,11,23.25,0,39.23-6.2,47-10.09l3.46-1.74V151A55.06,55.06,0,0,1,103,206ZM52.78,119.88V151a50.22,50.22,0,0,0,100.44,0V121c-9,4-24.46,9-45.69,9C92.19,129.94,73.84,127.34,52.78,119.88Z"/><path class="cls-1" d="M106.26,123.42c-24.68,0-45.94-7.06-56.77-11.45l-1.49-.6V95.08a54.95,54.95,0,0,1,44.92-54,20.19,20.19,0,0,1,5.45-11.17c4.56-4.63,11.55-7,20.77-7l.29,0c.08,0,8.58.92,14.46-4.31,3.89-3.48,5.87-9,5.87-16.29V0h15.09l.31,2c.08.56,2,13.87-6.58,23.78-5.79,6.73-14.85,10.14-26.92,10.15-.7.05-7.58.58-9.18,5A55.06,55.06,0,0,1,158,95.08V111.2l-1.31.67A110.86,110.86,0,0,1,106.26,123.42ZM52.78,108.14c18,7.07,60.56,19.54,100.44.11V95.08a50.26,50.26,0,0,0-43.77-49.74l-2.07-.27V43c0-8.81,9.22-11.57,14.11-11.8h.12c10.64,0,18.5-2.85,23.36-8.49,5.32-6.18,5.75-14.21,5.62-17.92h-6.1c-.43,7.61-2.93,13.49-7.45,17.5-7.09,6.29-16.61,5.61-18,5.47-16.73,0-21,8.51-21.56,15.62l-.16,1.87-1.86.29A49.88,49.88,0,0,0,52.78,95.08ZM103,104.5A11.53,11.53,0,0,1,91.49,93V68.06a11.49,11.49,0,0,1,23,0V93A11.5,11.5,0,0,1,103,104.5Zm0-43.13a6.72,6.72,0,0,0-6.73,6.69V93a6.71,6.71,0,1,0,13.42,0V68.06A6.7,6.7,0,0,0,103,61.37Z"/></svg>