<svg id="Layer_1" data-name="Layer 1" xmlns="http://www.w3.org/2000/svg" viewBox="0 0 206 206"><defs><style>.cls-1{fill:#8362d1;}</style></defs><title>careericons</title><path class="cls-1" d="M181.75,122.85c-7-3.51-20.16-3.55-20.71-3.55a3,3,0,1,0,0,6c3.39,0,13.24.52,18,2.91a3,3,0,0,0,4-1.35,3,3,0,0,0-1.35-4.05Zm0,0"/><path class="cls-1" d="M196.79,165.81l-12.46-3.56a1.26,1.26,0,0,1-.92-1.21v-4.16a22.47,22.47,0,0,0,2.89-2.37,22.19,22.19,0,0,0,6.79-16.06v-5.74l1.21-2.41a19.27,19.27,0,0,0,2-8.56V106.19a3,3,0,0,0-3-3h-29a19.18,19.18,0,0,0-19.15,19.15v.18a16,16,0,0,0,1.69,7.12l1.54,3.09v4.93a23.56,23.56,0,0,0,9.68,19V161c0,.67,0,1-2.49,1.66l-6.08,1.74L131.86,158a3,3,0,0,0-.83-2.31l-5.62-5.9v-9.92c.6-.49,1.18-1,1.75-1.52a35.43,35.43,0,0,0,11.16-25.75v-7.92a34.9,34.9,0,0,0,3.23-14.66V57.79a3,3,0,0,0-3-3H93.36A28.87,28.87,0,0,0,64.53,83.6v6.46a34.74,34.74,0,0,0,3.23,14.66v6.82a36.86,36.86,0,0,0,12.9,28.14v10.15L75,155.73a3,3,0,0,0-.82,2.31l-18.57,6.75a15.8,15.8,0,0,0-3.73,2L49,165.29c8.68-3.78,11.42-9.09,11.56-9.35a3.05,3.05,0,0,0,0-2.7c-2.18-4.36-2.44-12.33-2.65-18.74-.08-2.13-.14-4.15-.27-5.94-1-14.47-12-25.39-25.59-25.39S7.49,114.09,6.46,128.56c-.13,1.79-.19,3.81-.26,5.94-.22,6.41-.48,14.38-2.66,18.74a3.05,3.05,0,0,0,0,2.7c.14.26,2.88,5.56,11.58,9.34L7,169.33a12.64,12.64,0,0,0-7,11.36V203a3,3,0,1,0,6,0V180.69a6.63,6.63,0,0,1,3.68-6l10.08-5L23.31,173a12.68,12.68,0,0,0,17.49,0l3.51-3.33,3.29,1.64a15.88,15.88,0,0,0-2.43,8.43V203a3,3,0,1,0,6,0V179.76a9.93,9.93,0,0,1,6.51-9.3l19.58-7.11,8.15,12.22A6.24,6.24,0,0,0,90,178.32c.21,0,.41,0,.62,0a6.22,6.22,0,0,0,4.41-1.83l5-5V203a3,3,0,1,0,6,0V171.55l5,5a6.22,6.22,0,0,0,4.41,1.83l.62,0a6.26,6.26,0,0,0,4.58-2.75l8.15-12.22,19.57,7.11a9.94,9.94,0,0,1,6.51,9.3V203a3,3,0,0,0,6,0V179.76a15.93,15.93,0,0,0-4.47-11l.75-.22a16,16,0,0,0,2.81-1l7.7,7.71V203a3,3,0,1,0,6,0V175.2l7.66-7.66a6.83,6.83,0,0,0,1.28.51l12.46,3.56A6.69,6.69,0,0,1,200,178v25a3,3,0,0,0,6,0V178a12.76,12.76,0,0,0-9.21-12.21ZM19.36,160.48c-5.65-2-8.48-4.74-9.69-6.22A32.77,32.77,0,0,0,11.39,147a22.56,22.56,0,0,0,8,9.82Zm17.28,8.17a6.66,6.66,0,0,1-9.17,0L24.66,166a6.29,6.29,0,0,0,.73-2.95v-3.21a22.3,22.3,0,0,0,6.67,1,22.61,22.61,0,0,0,6.66-1V163a6.29,6.29,0,0,0,.73,2.95Zm-4.58-13.86a16.36,16.36,0,0,1-16.34-16.34,3,3,0,0,0-3-3,2.73,2.73,0,0,0-.5,0l0-.78c.07-2.07.13-4,.25-5.71a22.4,22.4,0,0,1,6.1-14.07,18.75,18.75,0,0,1,27,0A22.35,22.35,0,0,1,51.63,129c.12,1.68.19,3.64.25,5.71,0,.18,0,.36,0,.54A27.06,27.06,0,0,0,37,124.35a38.28,38.28,0,0,0-11.48-1.82,3,3,0,0,0-2.09.92L18,129.1a3,3,0,1,0,4.34,4.19l4.53-4.7c3.9.19,16.45,1.65,21.34,12.4a16.3,16.3,0,0,1-16.14,13.8Zm12.69,5.7v-3.6a22.33,22.33,0,0,0,8-9.84,32.68,32.68,0,0,0,1.72,7.21c-1.2,1.47-4,4.2-9.69,6.23Zm29-48.95v-7.49a3,3,0,0,0-.3-1.31,29,29,0,0,1-2.92-12.68V83.6A22.81,22.81,0,0,1,93.36,60.81h42.15V90.06a28.84,28.84,0,0,1-2.93,12.68,3.09,3.09,0,0,0-.29,1.31v8.59A29,29,0,0,1,123,134a28.62,28.62,0,0,1-2.31,2l0,0a29,29,0,0,1-19.59,5.85c-15.3-1-27.29-14.3-27.29-30.29Zm17,60.71a.21.21,0,0,1-.32,0l-9.38-14.08,3-3.17,14.24,9.73ZM103,160.61,86.7,149.44v-5.63a34.12,34.12,0,0,0,14,4c.79.05,1.58.07,2.37.07a35.05,35.05,0,0,0,16.31-4v5.51Zm12.58,11.61a.2.2,0,0,1-.16.09.18.18,0,0,1-.17-.06l-7.55-7.55L122,155l3,3.17Zm55.1-2.54-6.85-6.85a8.26,8.26,0,0,0,.19-1.79v-1.28a21,21,0,0,0,6,1.06h.7a22.42,22.42,0,0,0,6.65-1V161a6.9,6.9,0,0,0,.22,1.76Zm11.38-19.5a16.29,16.29,0,0,1-11.89,4.61c-8.73-.27-15.83-8-15.83-17.15V132a3,3,0,0,0-.32-1.35l-1.87-3.73a9.94,9.94,0,0,1-1-4.42v-.18a13.12,13.12,0,0,1,13.11-13.11h26v12.53a13.12,13.12,0,0,1-1.39,5.86l-1.52,3.05a3,3,0,0,0-.32,1.35v6.45a16.22,16.22,0,0,1-5,11.73Zm0,0"/><path class="cls-1" d="M190.08,180.61a3,3,0,0,0-3,3V203a3,3,0,1,0,6,0V183.62a3,3,0,0,0-3-3Zm0,0"/><path class="cls-1" d="M15.92,184.59a3,3,0,0,0-3,3V203a3,3,0,1,0,6,0V187.61a3,3,0,0,0-3-3Zm0,0"/><path class="cls-1" d="M127.76,91.15c-11.42-11.41-35.29-9.23-45-7.76a6.18,6.18,0,0,0-5.29,6.17v7a3,3,0,1,0,6,0v-7a.21.21,0,0,1,.16-.21,95.38,95.38,0,0,1,19.6-.95c9.41.62,16.23,3,20.26,7a3,3,0,0,0,4.27-4.27Zm0,0"/><path class="cls-1" d="M67.55,187.06a3,3,0,0,0-3,3V203a3,3,0,1,0,6,0V190.07a3,3,0,0,0-3-3Zm0,0"/><path class="cls-1" d="M138.53,187.06a3,3,0,0,0-3,3V203a3,3,0,0,0,6,0V190.07a3,3,0,0,0-3-3Zm0,0"/></svg>