<svg xmlns="http://www.w3.org/2000/svg" viewBox="0 0 660.58 560.54"><defs><style>.cls-1{isolation:isolate;}.cls-2{fill:#d7e8f7;}.cls-3,.cls-4{fill:#00c0cd;}.cls-4{opacity:0.25;}.cls-5,.cls-6,.cls-9{fill:#f4c6a5;}.cls-6{opacity:0.23;}.cls-11,.cls-19,.cls-6,.cls-9{mix-blend-mode:multiply;}.cls-7,.cls-8{fill:#ffd474;}.cls-8{opacity:0.26;}.cls-9{opacity:0.27;}.cls-10,.cls-11{fill:#775137;}.cls-11{opacity:0.15;}.cls-12{fill:#896247;opacity:0.58;}.cls-13{fill:#4c557f;}.cls-14{fill:#aa8368;opacity:0.44;}.cls-15{fill:#f7c869;opacity:0.21;}.cls-16,.cls-19{fill:#ff697f;}.cls-17{fill:#ffdcc5;opacity:0.45;}.cls-18{fill:#03345f;}.cls-19{opacity:0.16;}</style></defs><title>careervector</title><g class="cls-1"><g id="Layer_1" data-name="Layer 1"><path class="cls-2" d="M1195.34,466.29c-39.77-115.79-323.1-96.55-418.35-3.48s125.11,248.94,269.11,235S1230.13,567.55,1195.34,466.29Z" transform="translate(-622.42 -260.46)"/><path class="cls-2" d="M865.48,682.83a182.48,182.48,0,0,0,73.43,26.85c6.12.84,8.77-8.54,2.59-9.38a175.79,175.79,0,0,1-71.11-25.87c-5.3-3.36-10.19,5.06-4.91,8.4Z" transform="translate(-622.42 -260.46)"/><path class="cls-2" d="M828.25,664.08a72.62,72.62,0,0,0,12.15,7.3,5,5,0,0,0,6.66-1.75c1.24-2.12.64-5.53-1.75-6.66a71.91,71.91,0,0,1-12.15-7.29c-2.11-1.57-5.44-.35-6.66,1.74-1.45,2.48-.37,5.09,1.75,6.66Z" transform="translate(-622.42 -260.46)"/><path class="cls-2" d="M941.31,731.07a260,260,0,0,0,26.42,2.66c6.27.3,6.25-9.43,0-9.73a232.55,232.55,0,0,1-23.84-2.32c-6.12-.92-8.76,8.45-2.58,9.39Z" transform="translate(-622.42 -260.46)"/><path class="cls-2" d="M1081.27,380.13a388,388,0,0,1,45,8.7c6.07,1.54,8.66-7.84,2.58-9.38a405.94,405.94,0,0,0-47.53-9.05c-6.19-.81-6.13,8.93,0,9.73Z" transform="translate(-622.42 -260.46)"/><path class="cls-2" d="M1123,370.22l31.63,8.92c6,1.7,8.62-7.69,2.59-9.39l-31.63-8.92c-6-1.7-8.62,7.68-2.59,9.39Z" transform="translate(-622.42 -260.46)"/><path class="cls-2" d="M1156.86,397.68l22.55,10.09c5.67,2.53,10.63-5.85,4.91-8.4l-22.54-10.09c-5.67-2.54-10.63,5.84-4.92,8.4Z" transform="translate(-622.42 -260.46)"/><path class="cls-3" d="M847.82,397.4c15.6-9.75,72.25-18.77,154.22,44.54s250.65,168.74,273.36,176-7,48.66-68,29.2-14.72,21.08-22,36.49-60.83-19.46-84.35,8.11-12.16,66.5-20.27,84.34-146-129-220.09-234.37S823.37,412.68,847.82,397.4Z" transform="translate(-622.42 -260.46)"/><path class="cls-4" d="M936.63,454.57c-16.67-9.55-33.4-19.31-50.39-28.29-12-6.33-25.79-13.46-39.74-11.86-5.18.6-9.23,6.62-4.78,11,58.94,58.08,132.73,101.06,199.85,148.89,48.36,34.47,96.87,68.77,144.55,104.18a10.1,10.1,0,0,1-.74,5.18c-6,12.71-43.49-8.77-69.63-1.2C1020,600.6,927,514.79,817.38,451.76c-4.06-32.47,15.47-45,30.44-54.36,15.6-9.75,72.25-18.77,154.22,44.54s250.65,168.74,273.36,176c19.52,6.28.24,37.7-44.3,34q-83.58-61.44-169.72-119.32C1020.69,505.4,979.15,478.92,936.63,454.57Z" transform="translate(-622.42 -260.46)"/><path class="cls-4" d="M1086.59,724.94c-3.37,20-.68,39.85-5.83,51.18-8.11,17.84-146-129-220.09-234.37-18.52-26.36-30.1-47.61-36.69-64.89C915.68,555.05,1002.34,638.8,1086.59,724.94Z" transform="translate(-622.42 -260.46)"/><path class="cls-5" d="M671.69,332.25s-12-17.08-16.06-25.3-7.58-11.37-19.87-8.23-13.26,5.19-13.33,10.46.92,13.16,6.86,15.25,9.76,1.18,9.76,1.18-1.68,5.92,1.43,8.89S659.85,347,659.85,347,671.31,340.5,671.69,332.25Z" transform="translate(-622.42 -260.46)"/><path class="cls-6" d="M625.54,302.39c9.7,16.15,24.37,29.21,41.48,39a35.66,35.66,0,0,1-7.17,5.66s-16.25-9.55-19.37-12.51-1.43-8.89-1.43-8.89-3.83.9-9.76-1.18-6.94-10-6.86-15.25C622.47,306.11,622.83,304.13,625.54,302.39Z" transform="translate(-622.42 -260.46)"/><path class="cls-7" d="M812.7,412.15s-9.44-12.9-33-17.15c0,0-22-9.95-38.66-15.07,0,0-7.92-25.08-39.24-36.15s-32.16-14.73-32.16-14.73A50.37,50.37,0,0,1,655.16,343s27.1,38.69,57.23,52.21c0,0,42.19,48.7,69.92,66.3S840.09,438.26,812.7,412.15Z" transform="translate(-622.42 -260.46)"/><path class="cls-8" d="M686.38,363.8c33.42,22.17,70.81,38.54,111.33,37,10.5,5.2,15,11.33,15,11.33,27.39,26.11-2.66,66.93-30.39,49.33s-69.92-66.3-69.92-66.3C682.26,381.66,655.16,343,655.16,343l1-.63C666,349.77,676.06,357,686.38,363.8Z" transform="translate(-622.42 -260.46)"/><path class="cls-5" d="M874.61,384.43S858,369.29,853,351.17L814.06,373s15.41,23.31,13.79,44.13C827.85,417.14,868.13,444.17,874.61,384.43Z" transform="translate(-622.42 -260.46)"/><path class="cls-9" d="M826.71,398.57c-.34.11-.69.17-1,.27A103.15,103.15,0,0,0,814.06,373L853,351.17c2.8,10.14,9.23,19.34,14.36,25.48C854.61,385.3,841.51,394,826.71,398.57Z" transform="translate(-622.42 -260.46)"/><path class="cls-5" d="M847.77,349.35s3.81-12.77,11.59-6.83-9.24,19.12-9.24,19.12-1.07,10.71-6.5,16.79-40.45,10.74-47,4.37c-7.16-7,3.11-28.8,3.09-29.65s-7.73-1.72-8.18-3.95,8.08-11.55,10.41-18.09,8.88-21.36,8.88-21.36S831,298.43,845.2,312.6C856.34,323.7,847.77,349.35,847.77,349.35Z" transform="translate(-622.42 -260.46)"/><path class="cls-10" d="M847.82,360S856,370.17,875,374.35c0,0-2.7-5.54,3.31-20.06s14.52-37.7-7.45-50.56c-19.06-11.15-35-19.78-30.86-32.28,0,0-7.73,4.18-7,10.62,0,0-8.48-10.42-6.74-17.78,0,0-8.42,9.54-5.9,18.18,0,0-7.14-3.71-9.23-7.58,0,0-8.06,29.76,1.2,38.19s24-6.66,31.81,1.53-6.4,28.87,3.63,34.74c0,0,5-12.25,11.59-6.83S853.74,360.68,847.82,360Z" transform="translate(-622.42 -260.46)"/><path class="cls-11" d="M870.86,373.29c-2.39-11.48,4.69-24.61,3.38-36.55a37,37,0,0,0-11-23.2c-10.31-9.87-22.74-14.6-30.51-27.47a46.25,46.25,0,0,1-6.26-16.5c1.48,6.24,6.56,12.5,6.56,12.5-.76-6.44,7-10.62,7-10.62-4.1,12.5,11.8,21.13,30.86,32.28,22,12.86,13.46,36,7.45,50.56S875,374.35,875,374.35C873.53,374,872.18,373.67,870.86,373.29Z" transform="translate(-622.42 -260.46)"/><path class="cls-11" d="M811.13,274.89a14.86,14.86,0,0,0,4,4.19,73.88,73.88,0,0,0,7.46,15.32,72.31,72.31,0,0,0,16.36,17.74c-8.1-.76-19.12,7.73-26.59.94C803.07,304.65,811.13,274.89,811.13,274.89Z" transform="translate(-622.42 -260.46)"/><path class="cls-11" d="M860.67,349.45c-1,6.06-2.75,12.16-3.11,18.24a38,38,0,0,1-9.74-7.66C851.81,360.47,858.64,354.83,860.67,349.45Z" transform="translate(-622.42 -260.46)"/><path class="cls-11" d="M845.57,316.79c5.32,3.48,10.57,6.95,13.46,12.93,2.57,5.33,2.8,10.72,2.17,16.13a5,5,0,0,0-1.84-3.33c-6.64-5.42-11.59,6.83-11.59,6.83C838.54,343.94,849.85,326,845.57,316.79Z" transform="translate(-622.42 -260.46)"/><path class="cls-12" d="M849.37,305a91.39,91.39,0,0,1-16.49-13.16c-1.1-1.12-2.82.6-1.72,1.72a93.87,93.87,0,0,0,17,13.54c1.33.84,2.56-1.27,1.23-2.1Z" transform="translate(-622.42 -260.46)"/><path class="cls-12" d="M830.33,287.58a19,19,0,0,1-3.06-4.11c-.76-1.37-2.86-.15-2.1,1.23a21.49,21.49,0,0,0,3.44,4.6c1.1,1.12,2.82-.6,1.72-1.72Z" transform="translate(-622.42 -260.46)"/><path class="cls-10" d="M810.62,285.17c-.89,6.05-1.62,12-.57,18.08.27,1.54,2.61.89,2.35-.65-1-5.62-.25-11.19.57-16.78.23-1.53-2.12-2.2-2.35-.65Z" transform="translate(-622.42 -260.46)"/><path class="cls-10" d="M811.11,308.13a6.4,6.4,0,0,0,3,2.86c1.41.65,2.65-1.45,1.22-2.1a4.3,4.3,0,0,1-2.14-2c-.74-1.38-2.84-.16-2.1,1.22Z" transform="translate(-622.42 -260.46)"/><path class="cls-10" d="M809.89,330.2c.8.09,13.9.67,19.05,5.09.74.63-.43-4.41-4.33-6s-15.47-3.14-15.82-2.5S809.89,330.2,809.89,330.2Z" transform="translate(-622.42 -260.46)"/><path class="cls-13" d="M809.44,338.26c0,1.23.62,2.22,1.38,2.22s1.37-1,1.37-2.22-.62-2.22-1.37-2.22S809.44,337,809.44,338.26Z" transform="translate(-622.42 -260.46)"/><path class="cls-14" d="M813.56,367.42a55.12,55.12,0,0,1-14.5-1.07c-.92-.2-1.31,1.21-.39,1.4a56,56,0,0,0,14.89,1.13c.93-.06.94-1.52,0-1.46Z" transform="translate(-622.42 -260.46)"/><path class="cls-14" d="M810.72,369.82a19.64,19.64,0,0,1-9,.16c-.92-.19-1.31,1.21-.39,1.41a21.49,21.49,0,0,0,9.8-.16c.91-.23.52-1.63-.39-1.41Z" transform="translate(-622.42 -260.46)"/><path class="cls-7" d="M872.27,382.12s21.8-10.93,42.64,16.72c24.06,31.92,20.68,95.6,35.28,110.74l-82.08,56.23s-18.24-25.42-38.64-41.63-48-37.31-48-69.75S827.28,406,827.28,406s11.77,14.42,17.06,15S859.91,414.22,872.27,382.12Z" transform="translate(-622.42 -260.46)"/><path class="cls-15" d="M886.17,474.51c-2.65-26.65-8.4-54.17-19.66-78.89,1.87-3.93,3.78-8.36,5.76-13.5,0,0,21.8-10.93,42.64,16.72,24.06,31.92,20.68,95.6,35.28,110.74L883,555.63C888.45,529,888.81,501.06,886.17,474.51Z" transform="translate(-622.42 -260.46)"/><path class="cls-7" d="M935.07,448.67c4.15-7.34,20.93,1.31,38.78-31.35S1001.15,361.51,985,340s-47.68-44.32-61.65-55.5c0,0-8.15,15.74-13.42,18.69,0,0,23,9.71,24.7,30.46s-2.71,36.67,6.25,43.52c0,0-48.62-11-52.1,20.25C885,431.46,930.92,456,935.07,448.67Z" transform="translate(-622.42 -260.46)"/><path class="cls-5" d="M912.37,303.58S904,297,897.62,299.31a27.7,27.7,0,0,1-26.33-4.83c-9.08-7.43-4.06-19.52,3.24-27.8s16.47-7.91,23.9-1.22S919.6,283,921.64,283.05C921.64,283.05,923.29,297.62,912.37,303.58Z" transform="translate(-622.42 -260.46)"/><path class="cls-6" d="M910.44,275.47c5.29,4.15,10.06,7.54,11.2,7.58,0,0,1.65,14.57-9.27,20.53,0,0-8.39-6.55-14.75-4.27a27.7,27.7,0,0,1-26.33-4.83,12.57,12.57,0,0,1-4.88-9.72C880.89,287.19,895.83,284.46,910.44,275.47Z" transform="translate(-622.42 -260.46)"/><path class="cls-16" d="M976.11,325.87s-10.54,27.28-42.77,17.18c0,0,.4-27-24.24-38.56,0,0,9.38-10.85,10.66-23.62C919.76,280.87,956,300.79,976.11,325.87Z" transform="translate(-622.42 -260.46)"/><path class="cls-16" d="M961,342.06c-6.57,3.31-15.61,4.78-27.69,1,0,0,.4-27-24.24-38.56a53.85,53.85,0,0,0,6.59-10.27C934.05,307.05,950.13,322.56,961,342.06Z" transform="translate(-622.42 -260.46)"/><path class="cls-14" d="M868.8,282.56c2.76.36,15,3.88,15.8,2.41.29-1.27,1.17-5,1.2-5-1.56-.39-10-2.81-12.71-3.52a.73.73,0,0,1,.39-1.41c2.54.66,16.7,7,15.32.09,0,0,0-.06,0-.1a50.65,50.65,0,0,0-11.64-4.68c-.91-.21-.53-1.62.39-1.4a42,42,0,0,1,10.28,3.83c1.58.85,5.91,2,4.84-2.23l-.58-1c-1.51-1.79-5.08-3.13-7.14-4-.85-.35-.48-1.76.39-1.4,3.62,1.5,12.07,5,8.4,10.59a2.58,2.58,0,0,1-3.42,1c.19,2-.1,4.38-2.44,4.54a6.75,6.75,0,0,1-.75-.07,22.15,22.15,0,0,1-.68,4.61,33.28,33.28,0,0,1,12,1.91c.88.31.51,1.71-.38,1.41a41.24,41.24,0,0,0-12.36-1.87,3.4,3.4,0,0,1-.34.4,4.68,4.68,0,0,1,2.09,5.66,7.53,7.53,0,0,1-7.08,5.09c-.94,0-.94-1.43,0-1.46a6.17,6.17,0,0,0,4.93-2.55c1.34-1.9,1.28-4.89-1.71-5.7-3.94-1.07-11.83-3.23-14.84-3.62C867.89,283.9,867.87,282.44,868.8,282.56Z" transform="translate(-622.42 -260.46)"/><path class="cls-17" d="M903.36,272.31a19.1,19.1,0,0,0-5.87-6.1c-1.83-1.22-3.54,1.73-1.72,2.94a15.27,15.27,0,0,1,4.65,4.88c1.13,1.88,4.08.17,2.94-1.72Z" transform="translate(-622.42 -260.46)"/><path class="cls-17" d="M881.82,280.44q-3.48-.6-6.91-1.45c-2.13-.54-3,2.75-.9,3.28s4.58,1.06,6.9,1.45c2.15.37,3.07-2.91.91-3.28Z" transform="translate(-622.42 -260.46)"/><path class="cls-16" d="M722.54,354,698.6,389.12S660.16,366.35,655.16,343c0,0,10.94-7.37,14.48-13.92C669.64,329.05,713.07,345.89,722.54,354Z" transform="translate(-622.42 -260.46)"/><path class="cls-16" d="M707.94,375.4l-9.34,13.72S660.16,366.35,655.16,343c0,0,2-1.32,4.47-3.33A444.62,444.62,0,0,0,707.94,375.4Z" transform="translate(-622.42 -260.46)"/><path class="cls-14" d="M640,318.55a19,19,0,0,0-.72,5.8.73.73,0,0,0,1.46,0,18.29,18.29,0,0,1,.66-5.41.73.73,0,0,0-1.4-.39Z" transform="translate(-622.42 -260.46)"/><path class="cls-14" d="M645.1,306.69c-4.2-.26-9-.59-12.84,1.44-3,1.56-3.29,4.8-2.81,7.88.37,2.39,1.79,6.84,4.47,7.62,2.3.66,3.71-1.44,3.16-3.48a.73.73,0,0,0-1.41.39q-2.29,1.4-3.07-.21a5.5,5.5,0,0,1-.47-.81,11.92,11.92,0,0,1-1.08-2.88c-.61-2.59-.62-5.64,2-7.25,3.33-2.08,8.38-1.47,12.1-1.24.94.06.94-1.4,0-1.46Z" transform="translate(-622.42 -260.46)"/><path class="cls-14" d="M636.07,301.79c-3.1.26-6.83,1.12-9,3.57-2.39,2.71-2,6.53-1.5,9.82.13.93,1.53.53,1.41-.39-.42-3-.87-6.63,1.63-8.91,1.94-1.77,4.91-2.42,7.45-2.63.93-.08.94-1.54,0-1.46Z" transform="translate(-622.42 -260.46)"/><path class="cls-17" d="M663.08,324.49q-2.36-3.58-4.73-7.16c-1.2-1.83-4.15-.12-2.94,1.71q2.37,3.58,4.73,7.17c1.21,1.82,4.16.11,2.94-1.72Z" transform="translate(-622.42 -260.46)"/><path class="cls-17" d="M655.93,312.86a22.1,22.1,0,0,1-2.7-4.72c-.81-2-4.11-1.12-3.28.91a25,25,0,0,0,3,5.53c1.28,1.75,4.24.05,2.94-1.72Z" transform="translate(-622.42 -260.46)"/><path class="cls-10" d="M882.07,322.5a27.48,27.48,0,0,0-10.21-15.38c-1.24-.95-2.46,1.16-1.23,2.1a24.85,24.85,0,0,1,9.09,13.93,1.22,1.22,0,0,0,2.35-.65Z" transform="translate(-622.42 -260.46)"/><path class="cls-10" d="M868.42,304.36a38,38,0,0,0-5-3.05c-1.4-.7-2.63,1.4-1.23,2.1a39.85,39.85,0,0,1,5.05,3c1.27.91,2.49-1.2,1.22-2.1Z" transform="translate(-622.42 -260.46)"/><path class="cls-12" d="M865,341.24q-1.55,8-3.08,16c-.29,1.53,2,2.18,2.35.65q1.54-8,3.07-16c.3-1.53-2-2.19-2.34-.65Z" transform="translate(-622.42 -260.46)"/><path class="cls-12" d="M861.85,361.52l-.57,4.25c-.21,1.53,2.14,2.19,2.34.64s.39-2.83.58-4.25-2.14-2.19-2.35-.64Z" transform="translate(-622.42 -260.46)"/><path class="cls-8" d="M830.38,503c-10-9.48-20.14-19.32-24.43-32.77-1.43-4.45-8.48-2.55-7,1.94,4.71,14.73,15.36,25.57,26.31,36,3.4,3.23,8.57-1.92,5.16-5.17Z" transform="translate(-622.42 -260.46)"/><path class="cls-15" d="M803,458a17,17,0,0,1,3.29-13.5c2.87-3.65-2.26-8.85-5.16-5.16A25.09,25.09,0,0,0,796,460c.85,4.61,7.88,2.66,7-1.94Z" transform="translate(-622.42 -260.46)"/><path class="cls-7" d="M975.42,348.75c1.31,10.73,2.45,21.38-.64,31.92-1.32,4.51,5.72,6.44,7,1.94,3.28-11.19,2.29-22.44.9-33.86-.56-4.6-7.87-4.66-7.3,0Z" transform="translate(-622.42 -260.46)"/><path class="cls-8" d="M969,394.41a16.1,16.1,0,0,1-6,8.92c-1.56,1.21-1.27,3.89,0,5.16,1.54,1.54,3.6,1.21,5.16,0a22.43,22.43,0,0,0,7.89-12.14c1.18-4.55-5.86-6.49-7-1.94Z" transform="translate(-622.42 -260.46)"/><path class="cls-18" d="M910.33,536.43s188,133.18,212.33,164.54c0,0-14.54,14-39.17,20.8,0,0-21.38-16.47-31.12-21.88S923.7,664.61,865.85,562.77Z" transform="translate(-622.42 -260.46)"/><path class="cls-18" d="M914,593.73A452,452,0,0,1,882.27,553l28.06-16.61s188,133.18,212.33,164.54c0,0-14.54,14-39.17,20.8,0,0-21.38-16.47-31.12-21.88-3.67-2-23-7.59-48.64-19.19C970.31,655.88,941.49,625.36,914,593.73Z" transform="translate(-622.42 -260.46)"/><path class="cls-16" d="M1076.5,722.25s83.34,42.42,92.25,47.38,46.92,51.8,55.56,51.37,11.08-22.48-4.39-39.57-10.93-34.64-37.55-36.56-36.26-48.43-83.2-67.3C1099.17,677.57,1101.05,715.07,1076.5,722.25Z" transform="translate(-622.42 -260.46)"/><path class="cls-19" d="M1203.56,797c-33.74-33.26-72-61.42-110.83-88.51,7.32-13.39,6.44-30.95,6.44-30.95,46.94,18.87,56.58,65.38,83.2,67.3s22.08,19.47,37.55,36.56c13.43,14.84,13.36,33.38,7.46,38.31C1219.28,812,1211.15,804.51,1203.56,797Z" transform="translate(-622.42 -260.46)"/><path class="cls-7" d="M1108.85,682.12c-4.12,17.91-10.81,33-22.66,45.06l-9.69-4.93c24.55-7.18,22.67-44.68,22.67-44.68A94,94,0,0,1,1108.85,682.12Z" transform="translate(-622.42 -260.46)"/><path class="cls-7" d="M1096.51,699.17a74,74,0,0,0,2.66-21.6,94,94,0,0,1,9.68,4.55,109.68,109.68,0,0,1-10.15,27.93Q1097.44,704.64,1096.51,699.17Z" transform="translate(-622.42 -260.46)"/><path class="cls-18" d="M947,508.5s29.19,11,63.79,47.13,71.91,84.25,78.4,89.11,39.47,11.9,59.47,31.9-27.57,35.68-30.28,32.44S1078.87,675,1074,671.78,987,641.92,950.19,609s-51.61-63-49.74-64.82S947,508.5,947,508.5Z" transform="translate(-622.42 -260.46)"/><path class="cls-18" d="M1147.64,697.37c-27-12.93-52.6-33.11-75.08-49.51a1025.82,1025.82,0,0,1-86.22-70.41,793.88,793.88,0,0,1-56.13-56.22C939.3,514.3,947,508.5,947,508.5s29.19,11,63.79,47.13,71.91,84.25,78.4,89.11,39.47,11.9,59.47,31.9C1156.49,684.52,1153.87,691.73,1147.64,697.37Z" transform="translate(-622.42 -260.46)"/><path class="cls-16" d="M947.19,504.19c.58-.53,6.76,5.8,6.64,7.48s-49.41,52.73-85.25,55.78c-1.84.16-5.43-5.82-5.05-7.69S914.73,534.28,947.19,504.19Z" transform="translate(-622.42 -260.46)"/><path class="cls-16" d="M1111,706.08s75.42,51.67,84.07,57.07S1236.2,821,1244.85,821s14.6-20,0-37.85-9.19-35.14-35.68-38.39-27.33-61-73.26-82.18C1135.91,662.58,1135.91,700.13,1111,706.08Z" transform="translate(-622.42 -260.46)"/><path class="cls-16" d="M1195.29,751.09c-21.83-20.72-42-43.07-65-62.43,5.58-12.21,5.59-26.08,5.59-26.08,45.93,21.19,46.76,78.94,73.26,82.18s21.08,20.55,35.68,38.39c6.25,7.65,8.72,15.68,8.83,22.37C1236.93,785.11,1214.38,769.21,1195.29,751.09Z" transform="translate(-622.42 -260.46)"/><path class="cls-7" d="M1124.32,715.17,1111,706.08c24.87-6,24.87-43.5,24.87-43.5a72.49,72.49,0,0,1,12.93,7.72C1142.47,686.39,1135.05,702,1124.32,715.17Z" transform="translate(-622.42 -260.46)"/><path class="cls-7" d="M1134.73,674a73,73,0,0,0,1.18-11.46,72.49,72.49,0,0,1,12.93,7.72c-3,7.54-6.22,15-9.89,22.07C1137.46,686.28,1136,680.18,1134.73,674Z" transform="translate(-622.42 -260.46)"/><path class="cls-7" d="M1126.36,695.53c1,4.22,2.08,8.44,3.14,12.67-1.65,2.38-3.35,4.72-5.18,7L1111,706.08A26.2,26.2,0,0,0,1126.36,695.53Z" transform="translate(-622.42 -260.46)"/></g></g></svg>