<svg id="Layer_1" data-name="Layer 1" xmlns="http://www.w3.org/2000/svg" viewBox="0 0 206 206"><defs><style>.cls-1{fill:#8394a1;}</style></defs><title>careericons</title><path class="cls-1" d="M190.67,122.27V27.1A10.12,10.12,0,0,0,180.55,17h-27V10.24a6.74,6.74,0,0,0-6.74-6.74h-6.74a6.75,6.75,0,0,0-6.75,6.74V17h-27V10.24A6.75,6.75,0,0,0,99.62,3.5H92.88a6.75,6.75,0,0,0-6.75,6.74V17h-27V10.24A6.75,6.75,0,0,0,52.41,3.5H45.67a6.74,6.74,0,0,0-6.74,6.74V17H12A10.12,10.12,0,0,0,1.83,27.1V155.24A10.12,10.12,0,0,0,12,165.36h98.91a47.19,47.19,0,1,0,79.81-43.09Zm-50.58-112h6.74V30.48h-6.74Zm-47.21,0h6.74V30.48H92.88Zm-47.21,0h6.74V30.48H45.67ZM8.58,27.1A3.37,3.37,0,0,1,12,23.73h27v6.75a6.74,6.74,0,0,0,6.74,6.74h6.74a6.75,6.75,0,0,0,6.75-6.74V23.73h27v6.75a6.75,6.75,0,0,0,6.75,6.74h6.74a6.75,6.75,0,0,0,6.75-6.74V23.73h27v6.75a6.75,6.75,0,0,0,6.75,6.74h6.74a6.74,6.74,0,0,0,6.74-6.74V23.73h27a3.37,3.37,0,0,1,3.37,3.37V44H8.58ZM12,158.61a3.37,3.37,0,0,1-3.37-3.37V50.71H183.92v65.84a47.14,47.14,0,0,0-74.18,38.69c0,1.14.09,2.25.17,3.37ZM157,195.7a40.46,40.46,0,1,1,40.46-40.46A40.46,40.46,0,0,1,157,195.7Zm0,0"/><path class="cls-1" d="M157,118.15A37.09,37.09,0,1,0,194,155.24,37.1,37.1,0,0,0,157,118.15Zm3.37,67.24v-6.55h-6.75v6.55a30.38,30.38,0,0,1-26.77-26.78h6.54v-6.74H126.8a30.38,30.38,0,0,1,26.77-26.78v6.55h6.75v-6.55a30.4,30.4,0,0,1,26.78,26.78h-6.55v6.74h6.55a30.4,30.4,0,0,1-26.78,26.78Zm0,0"/><path class="cls-1" d="M160.32,138.38h-6.75v16.86a3.42,3.42,0,0,0,1,2.38l10.12,10.12,4.77-4.77-9.13-9.13Zm0,0"/><path class="cls-1" d="M38.93,104.66H18.69A3.37,3.37,0,0,0,15.32,108v20.23a3.37,3.37,0,0,0,3.37,3.38H38.93a3.37,3.37,0,0,0,3.37-3.38V108a3.37,3.37,0,0,0-3.37-3.37Zm-3.38,20.23H22.07V111.4H35.55Zm0,0"/><path class="cls-1" d="M72.65,104.66H52.41A3.37,3.37,0,0,0,49,108v20.23a3.37,3.37,0,0,0,3.37,3.38H72.65A3.37,3.37,0,0,0,76,128.26V108a3.37,3.37,0,0,0-3.37-3.37Zm-3.38,20.23H55.79V111.4H69.27Zm0,0"/><path class="cls-1" d="M72.65,64.2H52.41A3.37,3.37,0,0,0,49,67.57V87.8a3.37,3.37,0,0,0,3.37,3.37H72.65A3.37,3.37,0,0,0,76,87.8V67.57a3.37,3.37,0,0,0-3.37-3.37ZM69.27,84.43H55.79V70.94H69.27Zm0,0"/><path class="cls-1" d="M109.74,108a3.37,3.37,0,0,0-3.37-3.37H86.13A3.37,3.37,0,0,0,82.76,108v20.23a3.37,3.37,0,0,0,3.37,3.38h20.24a3.37,3.37,0,0,0,3.37-3.38ZM103,124.89H89.51V111.4H103Zm0,0"/><path class="cls-1" d="M86.13,91.17h20.24a3.37,3.37,0,0,0,3.37-3.37V67.57a3.37,3.37,0,0,0-3.37-3.37H86.13a3.37,3.37,0,0,0-3.37,3.37V87.8a3.37,3.37,0,0,0,3.37,3.37Zm3.38-20.23H103V84.43H89.51Zm0,0"/><path class="cls-1" d="M119.85,91.17h20.24a3.37,3.37,0,0,0,3.37-3.37V67.57a3.37,3.37,0,0,0-3.37-3.37H119.85a3.37,3.37,0,0,0-3.37,3.37V87.8a3.37,3.37,0,0,0,3.37,3.37Zm3.38-20.23h13.48V84.43H123.23Zm0,0"/><path class="cls-1" d="M153.57,91.17h20.24a3.37,3.37,0,0,0,3.37-3.37V67.57a3.37,3.37,0,0,0-3.37-3.37H153.57a3.37,3.37,0,0,0-3.37,3.37V87.8a3.37,3.37,0,0,0,3.37,3.37ZM157,70.94h13.48V84.43H157Zm0,0"/></svg>