<svg id="Layer_1" data-name="Layer 1" xmlns="http://www.w3.org/2000/svg" viewBox="0 0 206 206"><defs><style>.cls-1{fill:#feba78;}</style></defs><title>careericons</title><path class="cls-1" d="M103,89.27a24,24,0,1,0-24-24,24.06,24.06,0,0,0,24,24Zm0-41.21A17.17,17.17,0,1,1,85.83,65.23,17.19,17.19,0,0,1,103,48.06Zm0,0"/><path class="cls-1" d="M102.39,188l52.68-76.08C174.82,85.58,172,42.29,149,19.3a65.82,65.82,0,0,0-93.11,0c-23,23-25.88,66.3-6.2,92.54ZM60.69,24.14a59,59,0,0,1,83.4,0c20.77,20.77,23.34,59.87,5.4,83.77l-47.1,68L55.22,107.81C37.37,84,39.92,44.91,60.69,24.14Zm0,0"/><path class="cls-1" d="M144.61,147.66a3.43,3.43,0,1,0-.8,6.82c36.09,4.24,55.31,15.69,55.31,22.33,0,9.32-36.56,22.31-96.12,22.31s-96.12-13-96.12-22.31c0-6.64,19.22-18.09,55.31-22.33a3.43,3.43,0,1,0-.8-6.82C25.25,151.92,0,163.9,0,176.81,0,191.31,35.37,206,103,206s103-14.69,103-29.19c0-12.91-25.25-24.89-61.39-29.15Zm0,0"/></svg>