<svg id="Layer_1" data-name="Layer 1" xmlns="http://www.w3.org/2000/svg" viewBox="0 0 206 206"><defs><style>.cls-1{fill:#81a6f7;}</style></defs><title>careericons</title><path class="cls-1" d="M34.45,39.18A19.53,19.53,0,1,0,54,58.7,19.55,19.55,0,0,0,34.45,39.18Zm0,33A13.47,13.47,0,1,1,47.92,58.7,13.48,13.48,0,0,1,34.45,72.17Zm0,0"/><path class="cls-1" d="M34.45,24.25a3,3,0,0,0-3,3v6.09a3,3,0,0,0,6,0V27.28a3,3,0,0,0-3-3Zm0,0"/><path class="cls-1" d="M58.82,34.34a3,3,0,0,0-4.28,0l-4.31,4.31a3,3,0,0,0,4.28,4.28l4.31-4.31a3,3,0,0,0,0-4.28Zm0,0"/><path class="cls-1" d="M65.88,55.68H59.79a3,3,0,0,0,0,6h6.09a3,3,0,1,0,0-6Zm0,0"/><path class="cls-1" d="M58.82,78.79l-4.31-4.31a3,3,0,0,0-4.28,4.28l4.31,4.31a3,3,0,1,0,4.28-4.28Zm0,0"/><path class="cls-1" d="M34.45,81a3,3,0,0,0-3,3v6.09a3,3,0,1,0,6,0V84a3,3,0,0,0-3-3Zm0,0"/><path class="cls-1" d="M18.68,74.48a3,3,0,0,0-4.28,0l-4.31,4.31a3,3,0,0,0,4.28,4.28l4.31-4.31a3,3,0,0,0,0-4.28Zm0,0"/><path class="cls-1" d="M9.12,55.68H3a3,3,0,1,0,0,6H9.12a3,3,0,0,0,0-6Zm0,0"/><path class="cls-1" d="M18.68,38.65l-4.31-4.31a3,3,0,0,0-4.28,4.28l4.31,4.31a3,3,0,0,0,4.28-4.28Zm0,0"/><path class="cls-1" d="M204.53,196.07a28.29,28.29,0,0,0-17.43-4.88c-5.58-7.68-16.1-14.26-30.59-19.12a152.26,152.26,0,0,0-29.72-6.48l21.69-54.42a37.93,37.93,0,0,1,8.47,8.35,3.1,3.1,0,0,0,3.28,1.32,41.43,41.43,0,0,1,39.68,15.91,3,3,0,0,0,5.45-1.35,104.4,104.4,0,0,0-3.51-40.62,3,3,0,0,0-5.8,1.74,99.46,99.46,0,0,1,3.82,31,47.31,47.31,0,0,0-15.42-9.88A46.66,46.66,0,0,0,164,114.29l.15-.47a113.06,113.06,0,0,0,5-22.24,87.35,87.35,0,0,0,0-20.82A65.16,65.16,0,0,0,166.54,59l0-.09A58.64,58.64,0,0,1,191.4,84.73,3,3,0,1,0,196.81,82a65,65,0,0,0-35.05-32c-21.66-8.63-44.2-5.79-65.18,8.21A104.4,104.4,0,0,0,71.36,82a3,3,0,0,0,3,4.73A41.45,41.45,0,0,1,114,102.34a3.14,3.14,0,0,0,3.49,1.4,38.4,38.4,0,0,1,11.78-.22l-24.19,60.7-1.83,0a183.5,183.5,0,0,0-39.64,4.13A3,3,0,0,0,65,174.25a179.79,179.79,0,0,1,38.33-4c6.31,0,12.63.3,18.92.92h.07a148.59,148.59,0,0,1,32.3,6.62c11.54,3.87,20.45,9,25.68,14.61a28.54,28.54,0,0,0-7.57,3.65,22.19,22.19,0,0,1-25,0,28.22,28.22,0,0,0-31.84,0,22.19,22.19,0,0,1-25,0,28.22,28.22,0,0,0-31.84,0,22.2,22.2,0,0,1-25,0,28.4,28.4,0,0,0-7.57-3.65c5.22-5.64,14.12-10.73,25.64-14.59A3,3,0,0,0,50,172.09c-14.47,4.85-25,11.43-30.54,19.1A28.34,28.34,0,0,0,2,196.07a3,3,0,0,0,3.4,5,22.25,22.25,0,0,1,14.9-3.74,3.31,3.31,0,0,0,.55.07,22.34,22.34,0,0,1,9.59,3.67,28.22,28.22,0,0,0,31.84,0,22.2,22.2,0,0,1,25.05,0,28.22,28.22,0,0,0,31.84,0,22.19,22.19,0,0,1,25,0,28.22,28.22,0,0,0,31.84,0,22.31,22.31,0,0,1,9.57-3.67,3.07,3.07,0,0,0,.6-.07,22.21,22.21,0,0,1,14.88,3.74,3,3,0,0,0,3.39-5ZM121.64,97.18c0-.07.07-.14.1-.2a108.75,108.75,0,0,1,10-16.92,3,3,0,1,0-4.91-3.55,114,114,0,0,0-8.28,13.41c-.88,1.68-1.79,3.38-2.55,5.12a.36.36,0,0,1,0,.09A46.77,46.77,0,0,0,98.76,83.48a47.35,47.35,0,0,0-18-3.44,102.14,102.14,0,0,1,19.32-16.92,70.86,70.86,0,0,1,26.3-11,58.15,58.15,0,0,1,25.85,1.1l-.11.06a66.47,66.47,0,0,0-12.88,9.28c-1.53,1.39-3,2.83-4.44,4.32A3,3,0,0,0,139.19,71a68.74,68.74,0,0,1,13.05-10.8,47.38,47.38,0,0,1,6.9-3.65,45.38,45.38,0,0,1,2.23,6.32C165,76,164,90.23,160.83,103.36q-1,4.24-2.38,8.39l0,.09a46.6,46.6,0,0,0-14.91-10.48l-.24-.11a47.32,47.32,0,0,0-21.63-4.07Zm-1.11,67.76c-1.4-.12-2.81-.22-4.23-.31-1.58-.11-3.15-.19-4.72-.26l23.74-59.58c1.44.42,2.85.91,4.24,1.47.22.09,3.69,1.68,3.69,1.69Zm0,0"/></svg>