<svg id="Layer_1" data-name="Layer 1" xmlns="http://www.w3.org/2000/svg" viewBox="0 0 206 206"><defs><style>.cls-1{fill:#23c8d4;}</style></defs><title>careericons</title><path class="cls-1" d="M115.1,99.89a19.67,19.67,0,1,1,19.66-19.67A19.69,19.69,0,0,1,115.1,99.89Zm0-34.47a14.81,14.81,0,1,0,14.8,14.8A14.82,14.82,0,0,0,115.1,65.42Z"/><path class="cls-1" d="M191.2,206a6.74,6.74,0,0,1-6.73-6.74V136.13h-64.1v63.13a6.74,6.74,0,1,1-13.47,0V136a8.91,8.91,0,0,1-7.33-8.75,9.26,9.26,0,0,1,.07-1l-3.12.08h-.25a10.21,10.21,0,0,1-8.38-4.37l-6.78-9.68,4.78,13.22-5.67,5.06L93,133.58a11.8,11.8,0,0,1,8.63,14.6l-13.5,49.14a11.79,11.79,0,0,1-19.93,5A6.75,6.75,0,0,1,58,204.48L52.49,200a6.74,6.74,0,0,1-13.39,0l-5.47,4.46A6.62,6.62,0,0,1,28.7,206,6.74,6.74,0,0,1,25.11,194l14-11.38v-22H18.93a8.7,8.7,0,0,1-8.61-7.59L1.23,81.31a8.68,8.68,0,0,1,17.22-2.18l8.12,64.18H34.9a12.85,12.85,0,0,1-5.83-6.43A18,18,0,0,1,32,119.81l30.44-39a15.64,15.64,0,0,1,11.53-6l-1-1.46,1.73,1.44h.17A15.62,15.62,0,0,1,87,80.51h0c.16.17.32.36.48.56l1.26,1.54,3.87,4.73c5.76,7.05,6,7.48,6.19,7.69l7.08,10.53,21.34-.51a10.25,10.25,0,0,1,10,13.29h58.7a8.89,8.89,0,0,1,2,17.55v63.36A6.74,6.74,0,0,1,191.2,206Zm-75.68-74.73h73.8v68a1.88,1.88,0,1,0,3.76,0v-68h2.86a4,4,0,1,0,0-8.07H127.22l4.07-4.13a5.37,5.37,0,0,0-.12-7.69,5.32,5.32,0,0,0-3.83-1.47L99,110.59,77.59,79.94a11,11,0,0,0-2.88-.35,10.77,10.77,0,0,0-8,3.62l25.13,35.91a5.37,5.37,0,0,0,4.4,2.3h.12l11.26-.27L105.09,125a4,4,0,0,0,3.38,6.25h3.28v68a1.89,1.89,0,1,0,3.77,0ZM43.91,189.82v9.44a1.89,1.89,0,1,0,3.77,0v-9.44L61,200.72a1.87,1.87,0,0,0,1.38.42,1.92,1.92,0,0,0,1.27-.69,1.89,1.89,0,0,0-.27-2.65L47.68,185V155.8h23a3.86,3.86,0,0,0,2.81-1.23,3.8,3.8,0,0,0,1-2.9l-.27-3.34,7.47,1.8L70.09,192.36A6.94,6.94,0,1,0,83.48,196L97,146.89a6.95,6.95,0,0,0-5.08-8.59l-21.83-5.24L80.21,124,65.86,84.29l-30,38.5a13.07,13.07,0,0,0-2.21,12.41c.77,2.08,3.1,4,5.8,4.78l.21.06.19.09a14.79,14.79,0,0,0,4.65,1.31c1.84.35,4.61.87,9.06,1.93l19.94,4.79H22.3L13.63,79.74a3.82,3.82,0,0,0-7.58,1l9.09,71.76a3.82,3.82,0,0,0,3.79,3.34h25V185L28.18,197.8a1.87,1.87,0,0,0-.68,1.27,1.89,1.89,0,0,0,1.68,2.07,1.87,1.87,0,0,0,1.38-.42Zm8.62-7.16,12.53,10.22a11.44,11.44,0,0,1,.35-1.8L73.94,160a8.85,8.85,0,0,1-3.26.64H52.53Zm45.35-82.18,3.64,5.19,2.5-.06Z"/><path class="cls-1" d="M180.86,118.07H154.94a6.74,6.74,0,0,1,0-13.47h21.93l12.31-22.46a6.75,6.75,0,0,1,9.14-2.67h0A6.75,6.75,0,0,1,201,88.62l-14.22,25.95A6.73,6.73,0,0,1,180.86,118.07Zm-25.92-8.62a1.89,1.89,0,0,0,0,3.77h25.92a1.89,1.89,0,0,0,1.65-1l14.22-26a1.88,1.88,0,0,0-.74-2.55,1.9,1.9,0,0,0-2.56.74l-13.68,25Z"/><path class="cls-1" d="M157,73.18H144.6a3.53,3.53,0,0,1-3.74-3.63,5.73,5.73,0,0,1,.82-2.81l6.16-10.9h-2.6c-2.17,0-3.8-1.9-3.8-4.41S143,47,145.24,47h11.25a3.56,3.56,0,0,1,3.74,3.62,5.76,5.76,0,0,1-.8,2.77l-6.19,11H157c2.13,0,3.8,1.93,3.8,4.41S159.14,73.18,157,73.18Z"/><path class="cls-1" d="M173.92,56.94h-8.55A3.18,3.18,0,0,1,162,53.69a4.78,4.78,0,0,1,.67-2.33l3.6-6.37h-.5a3.52,3.52,0,0,1-3.37-3.79,3.52,3.52,0,0,1,3.37-3.79h7.75a3.22,3.22,0,0,1,3.33,3.25,4.72,4.72,0,0,1-.65,2.28l-3.62,6.41h1.3a3.82,3.82,0,0,1,0,7.59Z"/><path class="cls-1" d="M185.06,43.87h-4.67A2.83,2.83,0,0,1,177.47,41a3.72,3.72,0,0,1,.51-1.83l1.24-2.2a3.18,3.18,0,0,1-1.53-2.8A3,3,0,0,1,180.63,31h4.23a2.86,2.86,0,0,1,2.92,2.88,3.68,3.68,0,0,1-.48,1.76l-1.18,2.09a3.13,3.13,0,0,1,1.88,3A3,3,0,0,1,185.06,43.87Z"/></svg>