<svg id="Layer_1" data-name="Layer 1" xmlns="http://www.w3.org/2000/svg" viewBox="0 0 206 206"><defs><style>.cls-1{fill:#00c0cd;}</style></defs><title>abouticons</title><path class="cls-1" d="M5.13,114.7a4.53,4.53,0,0,0,4.05-5A58,58,0,0,1,9,103.46a4.5,4.5,0,0,0-9,0c0,2.24,0,4.72.23,7.19a4.6,4.6,0,0,0,4.49,4Zm0,0"/><path class="cls-1" d="M103.42,0A103.55,103.55,0,0,0,27,34V4.5a4.5,4.5,0,1,0-9,0v45A4.51,4.51,0,0,0,22.45,54h45a4.5,4.5,0,0,0,0-9h-38a94.4,94.4,0,1,1,74,152.94c-41.83,0-79.17-28.11-90.86-68.6a4.51,4.51,0,0,0-5.63-3.15,4.5,4.5,0,0,0-3.14,5.63c12.81,44.3,53.75,75.11,99.63,75.11A103.46,103.46,0,0,0,103.42,0Zm0,0"/><path class="cls-1" d="M103.42,51.73a4.51,4.51,0,0,0-4.5,4.5V99a4.45,4.45,0,0,0,1.35,3.15l49.25,49.25a4.35,4.35,0,0,0,6.3,0,4.35,4.35,0,0,0,0-6.3l-47.9-47.9V56.23a4.51,4.51,0,0,0-4.5-4.5Zm0,0"/></svg>