<svg id="Layer_1" data-name="Layer 1" xmlns="http://www.w3.org/2000/svg" viewBox="0 0 206 206"><defs><style>.cls-1{fill:#64798a;}</style></defs><title>abouticons</title><path class="cls-1" d="M206.2,121.44V85H169.75V98.17H121V85H84.56V95.53A62.77,62.77,0,0,1,40.64,40.2H53.82V3.75H17.37V40.2H31A73,73,0,0,0,67.43,98.61H35.81V85.43H-.2v36.45H36.25V108.71H85v13.17h36.45V111.34a62.91,62.91,0,0,1,43.92,54.46H152.18v36.45h36.45V165.8H175a72.84,72.84,0,0,0-36.45-57.09h31.62v13.17h36ZM179.85,94.66H197v17.12H179.85ZM27,30.54V13.41H44.15V30.54Zm-.88,81.24H9V94.66H26.15Zm85.19,0H94.22V94.66h17.12ZM179,175v17.13H161.85V175Z"/></svg>