<svg id="Layer_1" data-name="Layer 1" xmlns="http://www.w3.org/2000/svg" viewBox="0 0 206 206"><defs><style>.cls-1{fill:#43a43d;}</style></defs><title>abouticons</title><path class="cls-1" d="M184.28,36.36c-13.35,0-23.49-7.81-34.21-16.08C137.74,10.77,123.77,0,103,0S68.26,10.77,55.93,20.28C45.21,28.55,35.07,36.36,21.72,36.36a4.28,4.28,0,0,0-4.28,4.28c0,50,6.23,83.21,20.17,107.84,13.86,24.46,34.47,39.67,63.25,56.28a4.24,4.24,0,0,0,4.28,0c28.78-16.61,49.4-31.82,63.25-56.28,14-24.63,20.17-57.89,20.17-107.84a4.28,4.28,0,0,0-4.28-4.28ZM103,196.11C51.4,166,26.69,140.1,26,44.7,40.11,43.28,50.79,35,61.16,27.05,73,18,85.15,8.56,103,8.56s30.05,9.4,41.84,18.49c10.37,8,21,16.23,35.15,17.65-.68,95.4-25.39,121.32-77,151.41Zm0,0"/><path class="cls-1" d="M52.46,48.86a4.29,4.29,0,0,0-5.78-1.8l-1.61.83a4.28,4.28,0,0,0,3.78,7.67c.61-.3,1.21-.61,1.81-.93a4.27,4.27,0,0,0,1.8-5.77Zm0,0"/><path class="cls-1" d="M165.4,82.4l.39,0A4.28,4.28,0,0,0,170,78.53l.15-1.64a4.28,4.28,0,1,0-8.53-.72c0,.52-.09,1-.14,1.58a4.28,4.28,0,0,0,3.88,4.65Zm0,0"/><path class="cls-1" d="M60.91,47.38a4.22,4.22,0,0,0,2.5-.82c2.48-1.79,4.9-3.62,7.23-5.4C81.56,32.85,91,25.67,103,25.67a4.28,4.28,0,0,0,0-8.56c-14.9,0-25.9,8.37-37.55,17.24-2.29,1.75-4.66,3.55-7.05,5.28a4.28,4.28,0,0,0,2.51,7.75Zm0,0"/><path class="cls-1" d="M103,176.17c-11-6.75-24.17-15.81-34.08-27.5a4.28,4.28,0,0,0-6.53,5.54c11.39,13.43,26.5,23.43,38.39,30.64l.07,0,.31.16.21.1.29.1.25.09.27,0,.27.05c.13,0,.26,0,.4,0h.31l.39,0,.27-.05.27,0,.25-.09.29-.1.21-.1.31-.16.07,0c11.89-7.21,27-17.21,38.39-30.65,13-15.31,21.18-36,25-63.38a4.28,4.28,0,0,0-8.47-1.19c-3.62,25.68-11.17,45-23.08,59-9.92,11.69-23.14,20.75-34.09,27.5Zm0,0"/><path class="cls-1" d="M130.61,53.52,86,98.14,75.39,87.55a13.91,13.91,0,1,0-19.66,19.67l20.45,20.45.18.17a.6.6,0,0,0,.08.08l.18.17.09.08.19.16.08.08.19.15.06.05.19.16.11.08.19.14.09.06.19.14.09.06.2.14.09.06.21.13.08,0,.2.12.08.05.21.12.12.07.21.11.06,0,.21.11.12.06.21.1.09,0,.11.05.23.1.22.09.06,0,.22.09.1,0,.22.08.1,0,.11,0,.22.07.22.07.1,0,.23.06.09,0,.23.06.09,0,.22.05.1,0,.23.05.13,0,.11,0,.2,0,.23,0,.1,0,.23,0h.21l.22,0,.23,0H87l.22,0,.22,0h.2l.23,0,.11,0,.23,0,.21,0,.11,0,.12,0,.23-.05.09,0,.23-.05.1,0,.23,0,.09,0,.22-.06.09,0,.23-.07.21-.06.11,0,.11,0,.23-.08.09,0,.22-.09.08,0,.21-.08.21-.1.11,0,.1,0,.22-.11.08,0,.21-.1.2-.11.11-.06.09,0,.21-.12.1-.06.2-.12.1-.06.2-.13.07,0,.2-.14.1-.07.19-.14.1-.07.2-.15.07-.05.19-.15.14-.12.11-.09.11-.1.19-.16.07-.06.18-.17.08-.08.17-.17.12-.11,54.39-54.39a13.91,13.91,0,0,0-19.67-19.66Zm13.62,13.61L89.76,121.59l0,0-.4.35h0l-.5.36-.73.38h0l-.48.18h0l-.73.17h0l-.37,0h-.95l-.37,0h0l-.74-.17h0l-.42-.15-.81-.41-.74-.56L61.78,101.17a5.35,5.35,0,0,1,0-7.57,5.38,5.38,0,0,1,7.56,0L83,107.22a4.29,4.29,0,0,0,6.05,0l47.65-47.65a5.36,5.36,0,0,1,7.56,0,5.35,5.35,0,0,1,0,7.56Zm0,0"/></svg>