<svg id="Layer_1" data-name="Layer 1" xmlns="http://www.w3.org/2000/svg" viewBox="0 0 206 206"><defs><style>.cls-1{fill:#8160d1;}</style></defs><title>abouticons</title><path class="cls-1" d="M12.69,136.92a3.44,3.44,0,0,1-3.2-4.69L30.31,79a3.37,3.37,0,0,1,3.43-2.17l28.88,1.92A3.44,3.44,0,0,1,65.3,84,223.33,223.33,0,0,0,46,123.14a3.43,3.43,0,0,1-3.88,2.14l-10.06-2-17.28,13A3.43,3.43,0,0,1,12.69,136.92Zm23.1-53L20.28,123.5l8.86-6.64a3.41,3.41,0,0,1,2.73-.62L40.61,118A232,232,0,0,1,56.52,85.25Z"/><path class="cls-1" d="M72.84,197.07a3.44,3.44,0,0,1-2.74-5.5l13-17.27-2-10.07a3.43,3.43,0,0,1,2.15-3.88A223.55,223.55,0,0,0,122.3,141a3.43,3.43,0,0,1,5.26,2.68l1.92,28.88a3.44,3.44,0,0,1-2.17,3.43L74.1,196.84A3.73,3.73,0,0,1,72.84,197.07Zm15.5-31.35,1.75,8.73a3.48,3.48,0,0,1-.62,2.74L82.83,186l39.63-15.51-1.38-20.72A232.11,232.11,0,0,1,88.34,165.72Z"/><path class="cls-1" d="M47.39,162.37a3.45,3.45,0,0,1-3-5.11l29-52.16a3.42,3.42,0,0,1,3-1.77H99.56a3.44,3.44,0,0,1,3.43,3.43v20.6a3.45,3.45,0,0,1-1.65,2.94L49.17,161.87A3.47,3.47,0,0,1,47.39,162.37ZM78.44,110.2,56.68,149.3l39.45-23.87V110.2Z"/><path class="cls-1" d="M84.41,167A3.45,3.45,0,0,1,82,166L65.66,149.66a3.43,3.43,0,0,1-1-2.8,3.47,3.47,0,0,1,1.58-2.53l29.88-18.86V110.2H78.45L62.1,139.89a3.44,3.44,0,0,1-5.44.78L40.34,124.34a3.43,3.43,0,0,1-.78-3.65C88.49-7.48,201.55.41,202.69.5a3.44,3.44,0,0,1,3.14,3.14c.09,1.13,8,114.19-120.2,163.13A3.42,3.42,0,0,1,84.41,167ZM73.55,147.85l11.71,11.7c62.94-24.68,90.51-65.2,102.56-95A152.37,152.37,0,0,0,199.1,7.25C181.3,7,89.73,11.48,46.77,121.07l11.51,11.51,15.13-27.47a3.46,3.46,0,0,1,3-1.78H99.56a3.44,3.44,0,0,1,3.43,3.44v20.6a3.43,3.43,0,0,1-1.6,2.9Z"/><path class="cls-1" d="M3.43,206.33a3.44,3.44,0,0,1-3.12-4.86l20.3-44.65A23.07,23.07,0,0,1,36,143.94a21.47,21.47,0,0,1,18.34,3.58,3.43,3.43,0,0,1,1.34,3.09,3.44,3.44,0,0,1,3.1,1.35,21.5,21.5,0,0,1,3.57,18.34,23.11,23.11,0,0,1-12.87,15.42L4.85,206A3.53,3.53,0,0,1,3.43,206.33Zm38.11-56.21a15.15,15.15,0,0,0-3.82.48,16.23,16.23,0,0,0-10.86,9.05L10.35,196l36.32-16.51a16.29,16.29,0,0,0,9.06-10.86,15,15,0,0,0-.86-10l-5.79,3.28a3.44,3.44,0,0,1-4.68-4.68l3.27-5.79A14.43,14.43,0,0,0,41.54,150.12Z"/><path class="cls-1" d="M188,76.23a3.45,3.45,0,0,1-2.43-1L131.11,20.77a3.42,3.42,0,0,1,1-5.54C169.52-2,201.35.4,202.69.5a3.44,3.44,0,0,1,3.14,3.14c.11,1.34,2.52,33.16-14.73,70.59a3.41,3.41,0,0,1-2.51,1.94A3.15,3.15,0,0,1,188,76.23ZM139.51,19.46l47.36,47.36c11.6-27.46,12.37-51.38,12.23-59.59C190.9,7.09,166.91,7.89,139.51,19.46Z"/><path class="cls-1" d="M130.68,105.24a29.6,29.6,0,1,1,20.94-8.66A29.51,29.51,0,0,1,130.68,105.24Zm0-52.33a22.74,22.74,0,1,0,16.08,6.65A22.68,22.68,0,0,0,130.68,52.91Z"/><path class="cls-1" d="M130.68,92.16A16.52,16.52,0,1,1,142.36,64a3.44,3.44,0,1,1-4.86,4.86,9.65,9.65,0,1,0,0,13.65,3.44,3.44,0,0,1,4.86,4.86A16.47,16.47,0,0,1,130.68,92.16Z"/></svg>