<svg id="Layer_1" data-name="Layer 1" xmlns="http://www.w3.org/2000/svg" viewBox="0 0 206 206"><defs><style>.cls-1{fill:#fe7d00;}</style></defs><title>abouticons</title><path class="cls-1" d="M197.11,140.05c4.23-5.39,6.25-11.16,6-17.1a26.21,26.21,0,0,0-5.6-14.82c2.8-7,3.88-18-5.47-26.5-6.85-6.24-18.48-9-34.59-8.27a134.38,134.38,0,0,0-21.19,2.72h-.05c-2.15.38-4.44.86-6.76,1.37-.17-2.75.3-9.6,5.38-25,6-18.35,5.69-32.4-1.12-41.79C126.55.78,115.14,0,111.78,0a10.85,10.85,0,0,0-8.32,3.79c-4.78,5.56-4.22,15.81-3.61,20.55C94.16,39.59,78.22,77,64.73,87.36a4.36,4.36,0,0,0-.68.61,46.22,46.22,0,0,0-8.45,12.66,17.76,17.76,0,0,0-8.53-2.15H20.8A17.93,17.93,0,0,0,2.88,116.4v70A17.93,17.93,0,0,0,20.8,204.32H47.07a17.93,17.93,0,0,0,10.34-3.27l10.13,1.2A432.33,432.33,0,0,0,125,205.4c5.12.39,10,.6,14.43.6a96.38,96.38,0,0,0,20-1.81c13.18-2.8,22.19-8.4,26.75-16.63a26.36,26.36,0,0,0,2.93-16.5c8.58-7.75,10.08-16.32,9.78-22.35a28.93,28.93,0,0,0-1.77-8.66ZM20.8,192.69a6.29,6.29,0,0,1-6.29-6.29V116.35a6.3,6.3,0,0,1,6.29-6.29H47.07a6.3,6.3,0,0,1,6.29,6.29v70a6.29,6.29,0,0,1-6.29,6.29H20.8ZM186.09,135a5.78,5.78,0,0,0-.78,7,17.82,17.82,0,0,1,2,7.19c.3,5.65-2.41,10.64-8.09,14.91a5.86,5.86,0,0,0-2,6.63,15.25,15.25,0,0,1-1.16,11.12c-2.89,5.17-9.31,8.87-19,10.94-7.8,1.68-18.39,2-31.4,1H125a426.23,426.23,0,0,1-56-3.06h0l-4.35-.52A18.11,18.11,0,0,0,65,186.4V116.35a18.45,18.45,0,0,0-.81-5.34,36,36,0,0,1,8-14.77c19.34-15.34,38.25-67.08,39.07-69.32a5.4,5.4,0,0,0,.26-2.88c-.73-4.83-.48-10.73.56-12.49,2.28,0,8.44.68,12.15,5.81,4.39,6.07,4.22,16.93-.52,31.32-7.24,21.93-7.84,33.47-2.11,38.55A9.39,9.39,0,0,0,131,88.91c2.63-.6,5.13-1.12,7.5-1.5.17,0,.38-.09.56-.13,13.22-2.89,36.91-4.66,45.14,2.84,7,6.37,2,14.82,1.47,15.72a5.76,5.76,0,0,0,1,7.5s4.57,4.31,4.78,10c.17,3.83-1.64,7.75-5.38,11.63Zm0,0"/></svg>