<svg id="Layer_1" data-name="Layer 1" xmlns="http://www.w3.org/2000/svg" viewBox="0 0 660.07 560.14"><defs><style>.cls-1{fill:#eefbff;}.cls-2{fill:#e8f3f9;}.cls-3{fill:#cbecf7;}.cls-19,.cls-25,.cls-28,.cls-4{fill:#fff;}.cls-5{fill:#b9ddfc;}.cls-6{fill:#ffe1ab;}.cls-7{fill:#97b8d3;}.cls-8{fill:#e3fff0;}.cls-9{fill:#bbe8f2;}.cls-10{fill:#f0fdff;opacity:0.4;}.cls-11{opacity:0.8;}.cls-12{fill:#ebfff8;}.cls-13{fill:#b2c5db;}.cls-14{fill:#94cfea;}.cls-15{fill:#e2e2e2;}.cls-16{fill:#d38e20;}.cls-17{fill:#ffc83e;}.cls-18{fill:#fcce65;}.cls-19{font-size:23.96px;}.cls-19,.cls-25,.cls-28{font-family:MavenPro-Black, MavenPro Black;}.cls-20{letter-spacing:-0.01em;}.cls-21{letter-spacing:0em;}.cls-22{fill:#398ac6;}.cls-23{fill:#509de2;}.cls-24{fill:#68b2ea;}.cls-25{font-size:25.22px;}.cls-26{fill:#9ac5e5;}.cls-27{fill:#c4e1f7;}.cls-28{font-size:13.62px;}.cls-29{fill:#293549;}.cls-30{fill:#40464f;}.cls-31{fill:#ffaf84;}.cls-32{fill:#202a38;}.cls-33{fill:#ed8c62;}.cls-34{fill:#a8d8ef;}.cls-35{fill:#fafeff;}.cls-36{fill:#ffe8bb;}.cls-37{fill:#394e6b;}.cls-38{fill:#d6ddea;}.cls-39{fill:#457bf4;}.cls-40{fill:#6d9ff7;}</style></defs><title>vectorabout</title><path class="cls-1" d="M648.5,672c6.43,13.45,31.2,65.29,89.8,91.94,12.46,5.66,71.05,32.31,120.39,8C924,739.67,903.29,652.6,964.05,609.06c52.24-37.43,109,31.72,171.82-2.49,32.77-17.85,58.92-56.47,59.76-91,2.59-107.84-238.69-289-416.23-201.31C650.17,378.07,596.71,563.61,648.5,672Z" transform="translate(-628.93 -291)"/><path class="cls-2" d="M1021.67,839.26c-61.28,0-127.45-19.44-190.67-57.55-81.84-49.34-136.88-118-137-170.77C694,575,720.19,532.77,755,512.65c32.95-19.06,64.61-10.7,95.23-2.61,29.92,7.9,58.2,15.36,84.45-4.48,29.52-22.31,39.55-54.76,49.25-86.13,10.9-35.24,21.2-68.53,56.92-87.31,33.32-17.52,78.65-15.72,127.63,5.07,28.56,12.11,68.61,38.36,97.27,94.59,56.58,111,8.56,308.27-128.16,380.21C1102.85,830.25,1063.39,839.26,1021.67,839.26Zm-222.95-335a82,82,0,0,0-42.16,11.14c-33.88,19.6-59.4,60.67-59.35,95.54.08,51.74,54.5,119.28,135.43,168.07,105.29,63.47,218.73,74.76,303.44,30.18C1271.31,738,1318.84,543,1262.9,433.22c-28.22-55.38-67.61-81.21-95.68-93.12-48.1-20.4-92.46-22.24-124.92-5.18-34.57,18.17-44.67,50.85-55.37,85.44-9.85,31.86-20,64.8-50.37,87.73-27.48,20.77-56.48,13.12-87.17,5C832.8,508.72,815.89,504.25,798.72,504.25Z" transform="translate(-628.93 -291)"/><path class="cls-3" d="M930.22,752.77l33.68-33.69-12.54-14.54a105.74,105.74,0,0,0,12.44-30l19.14-1.42V625.5l-19.14-1.42a105.74,105.74,0,0,0-12.44-30l12.54-14.55-33.68-33.68L915.67,558.4a105.65,105.65,0,0,0-30-12.43l-1.42-19.14H836.63L835.21,546a105.65,105.65,0,0,0-30,12.43l-14.55-12.54L757,579.54l12.54,14.55a105.74,105.74,0,0,0-12.44,30L738,625.5v47.63l19.14,1.42a105.74,105.74,0,0,0,12.44,30L757,719.08l33.68,33.69,14.55-12.54a105.94,105.94,0,0,0,30,12.43l1.42,19.14h47.64l1.42-19.14a105.94,105.94,0,0,0,30-12.43Zm-98.93-53.13a58.15,58.15,0,0,1-21.17-79.49,58.17,58.17,0,1,1,91.5,70.33,58.48,58.48,0,0,1-70.33,9.16Z" transform="translate(-628.93 -291)"/><path class="cls-3" d="M753.84,575.21V555.12l-8.08-.59a44.64,44.64,0,0,0-5.23-12.65l5.28-6.13-14.2-14.2-6.12,5.28a44.76,44.76,0,0,0-12.65-5.23l-.6-8.07H692.16l-.6,8.07a44.76,44.76,0,0,0-12.65,5.23l-6.12-5.28-14.2,14.2,5.28,6.13a44.35,44.35,0,0,0-5.23,12.65l-8.08.59v20.09l8.08.59a44.35,44.35,0,0,0,5.23,12.65l-5.28,6.13,14.2,14.2,6.12-5.29a44.5,44.5,0,0,0,12.65,5.24l.6,8.07h20.08l.6-8.07a44.5,44.5,0,0,0,12.65-5.24l6.12,5.29,14.2-14.2-5.28-6.13a44.64,44.64,0,0,0,5.23-12.65Zm-45.33,13.65a24.52,24.52,0,1,1-12.62-47.39,23.85,23.85,0,0,1,12.62,0,24.52,24.52,0,0,1,0,47.39Z" transform="translate(-628.93 -291)"/><path class="cls-4" d="M1104.64,538.28a17.24,17.24,0,0,1,17-14.62,17.49,17.49,0,0,1,2.52.25,17.17,17.17,0,0,1,31.17-3.85,17.24,17.24,0,0,1,26.74,11.1,17.24,17.24,0,0,1-1.29,34.43h-75.19a13.67,13.67,0,0,1-1-27.31Z" transform="translate(-628.93 -291)"/><rect class="cls-5" x="267.02" y="50.23" width="54.3" height="13.2"/><rect class="cls-6" x="258.04" y="41.57" width="4.6" height="115.1"/><rect class="cls-5" x="267.02" y="69.24" width="15.93" height="13.2"/><rect class="cls-5" x="289.11" y="69.24" width="10.82" height="13.2"/><rect class="cls-5" x="267.02" y="88.25" width="41.1" height="13.2"/><rect class="cls-5" x="267.02" y="126.26" width="38.19" height="13.2"/><rect class="cls-6" x="1074.46" y="360.11" width="46.8" height="7.88" transform="translate(1566.79 437.09) rotate(180)"/><rect class="cls-5" x="1123.87" y="360.11" width="2.75" height="68.72" transform="translate(1621.57 497.93) rotate(180)"/><rect class="cls-6" x="1096.35" y="371.45" width="24.91" height="7.88" transform="translate(1588.68 459.79) rotate(180)"/><rect class="cls-6" x="1085.97" y="382.8" width="35.29" height="7.88" transform="translate(1578.3 482.49) rotate(180)"/><rect class="cls-6" x="1114.54" y="405.5" width="6.72" height="7.88" transform="translate(1606.87 527.88) rotate(180)"/><rect class="cls-6" x="1094.23" y="405.5" width="16.11" height="7.88" transform="translate(1575.65 527.88) rotate(180)"/><path class="cls-4" d="M977.46,591.05a12.13,12.13,0,0,0-14.2-10.43,12.47,12.47,0,0,0-22.65-2.8,12.52,12.52,0,0,0-19.42,8.06,12.53,12.53,0,0,0,.93,25h54.63a9.94,9.94,0,0,0,.71-19.85Z" transform="translate(-628.93 -291)"/><circle class="cls-5" cx="40.8" cy="421.64" r="6.57"/><path class="cls-5" d="M701.79,666.83a16.63,16.63,0,1,1-23.51,0A16.64,16.64,0,0,1,701.79,666.83Zm-17.38,17.38a8,8,0,1,0,0-11.24A8,8,0,0,0,684.41,684.21Z" transform="translate(-628.93 -291)"/><rect class="cls-7" x="324.12" y="228.44" width="177.65" height="321.76" rx="9.25" ry="9.25"/><path class="cls-7" d="M1130.7,528.72v22.6H953.05v-22.6a9.27,9.27,0,0,1,9.25-9.28h159.15A9.27,9.27,0,0,1,1130.7,528.72Z" transform="translate(-628.93 -291)"/><path class="cls-8" d="M1041.87,833.24h0a8.69,8.69,0,0,1-8.7-8.7h0a8.7,8.7,0,0,1,8.7-8.71h0a8.71,8.71,0,0,1,8.71,8.71h0A8.7,8.7,0,0,1,1041.87,833.24Z" transform="translate(-628.93 -291)"/><path class="cls-8" d="M1009.71,538.65h0a3.54,3.54,0,0,1-3.53-3.54h0a3.54,3.54,0,0,1,3.53-3.54h0a3.54,3.54,0,0,1,3.54,3.54h0A3.54,3.54,0,0,1,1009.71,538.65Z" transform="translate(-628.93 -291)"/><path class="cls-8" d="M1059.73,536.41h-35.19a1.3,1.3,0,1,1,0-2.6h35.19a1.3,1.3,0,0,1,0,2.6Z" transform="translate(-628.93 -291)"/><rect class="cls-9" x="327.41" y="260.33" width="171.06" height="255.24"/><polygon class="cls-10" points="446.79 260.33 327.41 379.7 327.41 315.53 382.62 260.33 446.79 260.33"/><polygon class="cls-10" points="491.47 260.33 327.41 424.37 327.41 392.29 459.39 260.33 491.47 260.33"/><g class="cls-11"><rect class="cls-12" x="390.22" y="396.8" width="157.43" height="83.73"/><rect class="cls-6" x="413.37" y="409.39" width="91.05" height="9.19"/><rect class="cls-6" x="413.37" y="425.73" width="69.44" height="9.19"/><rect class="cls-6" x="413.37" y="442.07" width="46.83" height="9.19"/><rect class="cls-13" x="465.99" y="442.07" width="27.91" height="9.19"/><rect class="cls-6" x="413.37" y="458.41" width="63.31" height="9.19"/></g><path class="cls-14" d="M975.77,655.86v-5.57l25.74-11.43v8.31l-15,5.87,15,5.93v8.32Z" transform="translate(-628.93 -291)"/><path class="cls-14" d="M1030.85,623.21h7.65L1016,675.42h-7.58Z" transform="translate(-628.93 -291)"/><path class="cls-14" d="M1044.67,659l15-5.93-15-5.87v-8.31l25.74,11.43v5.57l-25.74,11.43Z" transform="translate(-628.93 -291)"/><path class="cls-15" d="M947.06,851.14h190.48a5,5,0,0,0,5-5h0a5,5,0,0,0-5-5H947.06a5,5,0,0,0-5,5h0A5,5,0,0,0,947.06,851.14Z" transform="translate(-628.93 -291)"/><path class="cls-16" d="M772.5,411.51l-11,54.59a6.1,6.1,0,0,1-7.19,4.78l-54.58-11a5.89,5.89,0,0,1-1.72-.62h0a6.11,6.11,0,0,1-3-6.56l11-54.59a6.09,6.09,0,0,1,7.19-4.77l54.58,11A6.09,6.09,0,0,1,772.5,411.51Z" transform="translate(-628.93 -291)"/><path class="cls-17" d="M777,412.42l-11,54.59a6.12,6.12,0,0,1-7.2,4.79l-54.57-11a6.09,6.09,0,0,1-1.72-.63h0a6.12,6.12,0,0,1-3.06-6.57l11-54.59a6.09,6.09,0,0,1,7.19-4.77l54.58,11A6.09,6.09,0,0,1,777,412.42Z" transform="translate(-628.93 -291)"/><path class="cls-18" d="M753.88,401.54,730.26,466l-17.82-3.59a5.63,5.63,0,0,1-1.72-.63l23.53-64.23Z" transform="translate(-628.93 -291)"/><polygon class="cls-18" points="138.45 113.26 114.82 177.76 105.3 175.84 128.92 111.34 138.45 113.26"/><text class="cls-19" transform="translate(87.06 144.33) rotate(11.38)">J<tspan class="cls-20" x="8.86" y="0">a</tspan><tspan class="cls-21" x="20.22" y="0">v</tspan><tspan x="31.65" y="0">a</tspan></text><path class="cls-22" d="M800.21,349.82l3.34,46.61a5.12,5.12,0,0,1-4.74,5.48l-46.59,3.34a4.86,4.86,0,0,1-1.53-.12h0a5.13,5.13,0,0,1-3.94-4.63l-3.35-46.6a5.12,5.12,0,0,1,4.75-5.47l46.59-3.34A5.11,5.11,0,0,1,800.21,349.82Z" transform="translate(-628.93 -291)"/><path class="cls-23" d="M804.09,349.54l3.34,46.61a5.13,5.13,0,0,1-4.75,5.48L756.09,405a4.86,4.86,0,0,1-1.53-.12h0a5.13,5.13,0,0,1-3.94-4.63l-3.35-46.6a5.13,5.13,0,0,1,4.75-5.47l46.6-3.34A5.13,5.13,0,0,1,804.09,349.54Z" transform="translate(-628.93 -291)"/><path class="cls-24" d="M782.92,345.93l-4.65,57.45-15.21,1.09a4.86,4.86,0,0,1-1.53-.12l4.63-57.21Z" transform="translate(-628.93 -291)"/><polygon class="cls-24" points="165.51 54.11 160.86 111.55 152.73 112.14 157.38 54.69 165.51 54.11"/><text class="cls-25" transform="translate(126.86 92.77) rotate(-4.1)">C++</text><path class="cls-26" d="M735.14,337.22l-4.46,30.39a3.38,3.38,0,0,1-3.83,2.84L696.47,366a3.14,3.14,0,0,1-1-.29h0a3.38,3.38,0,0,1-1.87-3.53l4.46-30.39a3.36,3.36,0,0,1,3.82-2.83l30.38,4.45A3.36,3.36,0,0,1,735.14,337.22Z" transform="translate(-628.93 -291)"/><path class="cls-5" d="M737.66,337.59,733.2,368a3.37,3.37,0,0,1-3.82,2.84L699,366.37a3.46,3.46,0,0,1-1-.3h0a3.37,3.37,0,0,1-1.87-3.53l4.45-30.39a3.37,3.37,0,0,1,3.83-2.83l30.38,4.45A3.38,3.38,0,0,1,737.66,337.59Z" transform="translate(-628.93 -291)"/><path class="cls-27" d="M724.59,332.27l-11.13,36.22L703.54,367a3.45,3.45,0,0,1-1-.29l11.08-36.07Z" transform="translate(-628.93 -291)"/><polygon class="cls-27" points="103.17 42.38 92.05 78.59 86.74 77.81 97.87 41.6 103.17 42.38"/><text class="cls-28" transform="matrix(0.99, 0.15, -0.15, 0.99, 75.96, 62.14)">PHP</text><polygon class="cls-17" points="460.01 344.67 454.7 323.22 463.75 318.05 467.43 341.23 460.01 344.67"/><path class="cls-29" d="M1096.72,629a3.6,3.6,0,0,1,1.69,1c3.13,3.35,13.12,9.91,18.48,11.39,5.75,1.6,5.67,4.53-2.56,3.48s-14.19-2.56-17.88-2.93-2.8.3-11.83-.86c-6.93-.88-3.63-9.45-.63-13.24a3.12,3.12,0,0,1,3.5-1.33Z" transform="translate(-628.93 -291)"/><polygon class="cls-17" points="429.07 301.81 446.13 287.76 454.7 293.7 435.37 307.02 429.07 301.81"/><path class="cls-29" d="M1067.42,596.94a3.65,3.65,0,0,1-.16,1.94c-1.67,4.28-3.28,16.11-2.3,21.59,1,5.87-1.64,7.07-4.25-.82s-3.81-13.89-5.06-17.38-1.48-2.4-4.34-11c-2.19-6.64,7-7.36,11.68-6.29a3.14,3.14,0,0,1,2.71,2.59Z" transform="translate(-628.93 -291)"/><path class="cls-30" d="M1045.72,337.39c-12.67-4.52-13.42,17.4-6.43,27.42,4.22,6.05,9.79,1.47,14-6.6C1057.66,349.89,1060.58,342.7,1045.72,337.39Z" transform="translate(-628.93 -291)"/><path class="cls-31" d="M1026.64,403.27a8.32,8.32,0,0,1-7.15-4.06c-.07-.11-.9-1.48-5.22-8.33-6.59-10.46-.66-26.43.59-29.53a8.34,8.34,0,0,1,15.46,6.25c-2.16,5.4-3.12,12.52-2,14.39,4.74,7.52,5.42,8.66,5.42,8.66a8.34,8.34,0,0,1-7.15,12.62Z" transform="translate(-628.93 -291)"/><path class="cls-29" d="M990.85,519.44s-7.23-7.4-2.58-32.78h59.35a273.83,273.83,0,0,1-.52,32.78Z" transform="translate(-628.93 -291)"/><path class="cls-32" d="M1135.37,508.86c-5.45-7.42-17.64-12.8-59.43-14.89-22.52-1.13-43.53-.71-44.42-.69A11.86,11.86,0,1,0,1032,517c30.36-.64,66.3,1.22,80.3,5-9.68,18.49-35.85,49.71-46.28,61.45l6.49,12.06c4.65-5.23,56.91-48.1,65.08-72.26A15.58,15.58,0,0,0,1135.37,508.86Z" transform="translate(-628.93 -291)"/><path class="cls-29" d="M1090.65,519.94a13.31,13.31,0,0,0-3.08-10.62c-3.15-3.75-9.71-11.55-87-13.66a11.86,11.86,0,0,0-.65,23.72c25,.68,54.52,2.92,66.75,5.5-.21,29.89,15.68,92.53,17.22,100.34l13.62-2.73C1091.32,591.34,1088.43,535,1090.65,519.94Z" transform="translate(-628.93 -291)"/><path class="cls-31" d="M1098.83,482.87c-2.43,0-6.92.1-10-.19a55.48,55.48,0,0,1-8.38-5.66c-7.48-6.51-19.68-18-21.72-27.37-1.31-6.06-4.42-40.42-6.19-62a7.05,7.05,0,0,0-14.06,1.15c.46,5.6,4.53,55,6.47,63.87,3.25,15,23.68,29.54,32.1,35a13.6,13.6,0,0,0,9.06,5.78,74.07,74.07,0,0,0,12.08.84c3.9,0,9.71-1.4,8.25-5C1104.8,485.24,1102.72,482.87,1098.83,482.87Z" transform="translate(-628.93 -291)"/><path class="cls-33" d="M1054.36,409.21l-14.09,1.05c-.92-10.47-1.68-19.31-1.84-21.49a7.05,7.05,0,1,1,14.06-1.14C1053,394.05,1053.66,401.6,1054.36,409.21Z" transform="translate(-628.93 -291)"/><path class="cls-34" d="M1047.6,486.66H988.27c1.74-23.89,5.55-76.12,1.43-99.79a5.85,5.85,0,0,1,5.76-6.87h49.13a5.84,5.84,0,0,1,5.68,4.34C1055.9,405.82,1047.6,486.66,1047.6,486.66Z" transform="translate(-628.93 -291)"/><path class="cls-31" d="M1033.63,482.55c5.2,1,11.47,5.26,10.45,9-.86,3.14-5.28,2.62-8.38,2.62-2.5,0-5-.13-8.51-.13-4,0-8.27-1-13.69-4.5h0c-46.3-29.66-46.51-37.33-46.6-40.6-.25-9.41,15.12-47.52,21.75-63.47a7.05,7.05,0,0,1,13,5.41c-9.36,22.52-19.47,49.61-20.57,56.74,6.15,4.44,19.92,24.23,37.39,33.89C1026.65,486,1028.43,481.6,1033.63,482.55Z" transform="translate(-628.93 -291)"/><path class="cls-33" d="M1001.65,390.89c-2.76,6.69-5.62,13.78-8.26,20.63l-13.29-4.88c3.23-8.26,6.36-15.91,8.54-21.16a7,7,0,1,1,13,5.41Z" transform="translate(-628.93 -291)"/><path class="cls-31" d="M1033.5,380c1.44,7.19-3.32,11.43-11.65,9.76-5.82-1.18-12.07-4.95-16.84-9.76Z" transform="translate(-628.93 -291)"/><path class="cls-34" d="M1002.31,391.18c-2.54,6.08-5.11,12.51-7.54,18.79l-14.61-5.39c3-7.57,5.8-14.48,7.83-19.35a7.75,7.75,0,1,1,14.32,5.95Z" transform="translate(-628.93 -291)"/><path class="cls-33" d="M1030.33,367.62c-1.84,4.54-2.8,10.31-2.34,13.14-.83-.1-1.65-.22-2.48-.4a26.19,26.19,0,0,1-13.79-7.71,54.21,54.21,0,0,1,3.13-11.3,8.35,8.35,0,0,1,15.48,6.27Z" transform="translate(-628.93 -291)"/><path class="cls-34" d="M1038.17,388.86c.94,6.52,1.83,13.39,2.63,20.07l15.49-1.58c-1-8.08-2-15.47-2.77-20.7a7.75,7.75,0,1,0-15.35,2.21Z" transform="translate(-628.93 -291)"/><path class="cls-31" d="M1052.23,357.39c-5.3,13.16-15.8,25-29.78,20.62S999,360.93,1002,346.61a26.5,26.5,0,0,1,31.41-20.46C1047.72,329.17,1057.7,343.81,1052.23,357.39Z" transform="translate(-628.93 -291)"/><path class="cls-30" d="M1016.57,335.09c-5.27-2.53-5.07-6.85.12-9.52.19-.09,3-1.16,3.21-1.26,5.23-2.46,19.45-5,34.1,5.61a9.78,9.78,0,0,0,1,.67c5.54,3.12,5.2,11.35-.9,13.15a21.53,21.53,0,0,1-9.53.29A105,105,0,0,1,1016.57,335.09Z" transform="translate(-628.93 -291)"/><path class="cls-30" d="M1016.92,337.58a6.68,6.68,0,0,1-3.82-11.3l.44-.42c4-3.69,19.26-8.86,35.37-3.55.38.12,1.75.68,3.88,1.49,5.58,2.11,5.13,7.48.19,10.82a20.19,20.19,0,0,1-8.44,3A98.27,98.27,0,0,1,1016.92,337.58Z" transform="translate(-628.93 -291)"/><path class="cls-30" d="M1014.55,333a4.14,4.14,0,0,1-4.71-5.72c0-.11.11-.22.16-.34,1.5-3,9.24-9.39,19.76-9.86.25,0,1.17,0,2.59,0,3.7,0,4.63,3.21,2.49,6.24a12.61,12.61,0,0,1-4.24,3.59A61,61,0,0,1,1014.55,333Z" transform="translate(-628.93 -291)"/><path class="cls-30" d="M1011.81,333.46a2.49,2.49,0,0,0-1.62-4.14l-.22,0c-2-.1-7.61,2.09-10.94,7.46-.08.12-.33.61-.75,1.35-1.08,1.94.33,3.36,2.54,3.13a7.59,7.59,0,0,0,3.12-1.17A36.7,36.7,0,0,0,1011.81,333.46Z" transform="translate(-628.93 -291)"/><path class="cls-30" d="M1012.44,335.09a3,3,0,0,0-3.33-4.1l-.26.06c-2.32.62-7.87,5.12-9.69,12.4,0,.18-.16.82-.36,1.81-.53,2.59,1.59,3.69,4,2.63a8.82,8.82,0,0,0,3.1-2.46A43.5,43.5,0,0,0,1012.44,335.09Z" transform="translate(-628.93 -291)"/><path class="cls-30" d="M1020.55,331.05c12.68,4.49-.58,22-12.33,25.33-7.1,2-8.51-5.05-6.7-14C1003.39,333.21,1005.67,325.79,1020.55,331.05Z" transform="translate(-628.93 -291)"/><path class="cls-17" d="M1148.55,438.8a3.15,3.15,0,0,0-2.59-1.35h-71a3.15,3.15,0,0,0-1.07,6.12l-17.61,48.65h-1.15a3.17,3.17,0,1,0,0,6.34h71a3.17,3.17,0,0,0,3-2.09l19.83-54.78A3.17,3.17,0,0,0,1148.55,438.8Z" transform="translate(-628.93 -291)"/><path class="cls-4" d="M1055.12,498.56H1008.8a3.17,3.17,0,1,1,0-6.34h44.1L1072,439.54a3.17,3.17,0,0,1,6,2.15l-19.83,54.78A3.17,3.17,0,0,1,1055.12,498.56Z" transform="translate(-628.93 -291)"/><path class="cls-31" d="M999.84,354a10.75,10.75,0,0,0,2.79,8.65,4.29,4.29,0,0,0,7.33-2.49l1.19-9.69a4.29,4.29,0,0,0-6.51-4.19A10.78,10.78,0,0,0,999.84,354Z" transform="translate(-628.93 -291)"/><path class="cls-35" d="M1015.08,412.36a5.5,5.5,0,0,1,5.41-4.66,5.23,5.23,0,0,0,6-3.8,5.47,5.47,0,0,0,7.8,1.69,5.5,5.5,0,0,1,5.4,4.5,5.49,5.49,0,0,1-.41,11h-23.93a4.35,4.35,0,0,1-.31-8.69Z" transform="translate(-628.93 -291)"/><path class="cls-36" d="M1104.52,459.85l2.86,3.94,5-4c2.28-1.79,5.17-1.79,6.47,0s.5,4.68-1.78,6.47l-5,4,2.86,4c1.3,1.78.51,4.68-1.77,6.47s-5.17,1.79-6.47,0l-2.87-4-5,3.95c-2.28,1.79-5.18,1.79-6.47,0s-.51-4.68,1.77-6.47l5-3.94-2.86-3.95c-1.3-1.79-.51-4.69,1.78-6.47S1103.22,458.06,1104.52,459.85Z" transform="translate(-628.93 -291)"/><path class="cls-37" d="M1087.13,625.36c-13.26-74-12.46-102.75-12.23-107.13-22.62-7.73-63.8-8.58-76-8.65a5.27,5.27,0,0,1-5.25-4.91l-1.47-19.37,1.53-.12,1.47,19.37a3.76,3.76,0,0,0,3.73,3.5c12.33.07,54.3.93,77,8.92l.57.2-.06.6c0,.26-2.21,27.11,12.17,107.32Z" transform="translate(-628.93 -291)"/><polygon class="cls-38" points="237.24 542.16 234.99 524.6 226.73 523.37 230.7 541.75 237.24 542.16"/><path class="cls-29" d="M858.05,830.39a3,3,0,0,0-1.44.61c-2.83,2.35-6.07,5.4-11.15,6.76-4.62,1.23-2.79,3.44,1.74,3.44,6.66,0,9.32-.25,12.28-.18s1,.18,8.34.18c3.35,0,2.24-6.53.47-10.46a2.36,2.36,0,0,0-2.65-1.41Z" transform="translate(-628.93 -291)"/><polygon class="cls-38" points="201.93 542.16 199.68 524.6 191.42 523.37 195.4 541.75 201.93 542.16"/><path class="cls-29" d="M822.75,830.39a3,3,0,0,0-1.45.61c-2.83,2.35-11.43,6.55-15.84,7.18-4.73.68-5,3,1.69,3s11.53-.59,14.5-.51,2.19.51,9.49.51c5.6,0,3.84-7.14,1.84-10.46a2.51,2.51,0,0,0-2.65-1.41Z" transform="translate(-628.93 -291)"/><path class="cls-29" d="M814.58,465.81c-9.17-4.93-10.59,13-7.64,18.9,3.18,6.31,12.56,11.81,15.14,6.69C825.44,484.74,826.93,472.44,814.58,465.81Z" transform="translate(-628.93 -291)"/><path class="cls-31" d="M843.61,509c0,6-.74,13.48-4.08,18.79-4.18,6.66-5,8-5.07,8.1a8.07,8.07,0,0,1-7,3.93,8.36,8.36,0,0,1-4.17-1.13,8.14,8.14,0,0,1-2.8-11.12s.68-1.13,5.28-8.44c.83-1.35,1.32-4,1.48-7a52.4,52.4,0,0,0-.46-10.28,8.11,8.11,0,0,1,16-2.4A66,66,0,0,1,843.61,509Z" transform="translate(-628.93 -291)"/><path class="cls-29" d="M863.46,521.48c-4,23-11.87,80.88-10.16,104.16H795.5s3.49-85.73,9-106.61a5.69,5.69,0,0,1,5.52-4.24h47.83A5.72,5.72,0,0,1,863.46,521.48Z" transform="translate(-628.93 -291)"/><path class="cls-39" d="M850.78,663.25s7-12.9,2.52-37.61H795.5s-.81,18.81.51,37.61Z" transform="translate(-628.93 -291)"/><path class="cls-39" d="M858.07,743.81c-3.19-21.18-4.91-90.12-4.94-90.74-.25-6.37-7.86-5.08-14-3.76-7.35,1.58-12.41,5.06-12.15,11.43.1,2.56,4.9,64.09,8.29,86.52,2.44,16.16,11.82,56.91,20.84,80.7l11.1-1.31C864.24,807.69,860.51,760,858.07,743.81Z" transform="translate(-628.93 -291)"/><path class="cls-39" d="M823.1,659.59c-.26-6.38-9.73-9.93-16.08-9.68a11.56,11.56,0,0,0-11.08,12c.11,2.56,2.58,62.91,6,85.34,2.44,16.16,13.91,62.37,19.28,82l10.56-1.32c-2.48-27.49-6.94-67.22-8.83-84.66C820.6,722,823.13,660.2,823.1,659.59Z" transform="translate(-628.93 -291)"/><path class="cls-33" d="M843.61,509a25.56,25.56,0,0,1-12.74,3.38,28,28,0,0,1-3.59-.25,52.4,52.4,0,0,0-.46-10.28,8.11,8.11,0,0,1,16-2.4A66,66,0,0,1,843.61,509Z" transform="translate(-628.93 -291)"/><path class="cls-31" d="M807.66,483c0,14.25,8.63,25.81,21.1,25.81,15.54,0,28.53-11.56,28.53-25.81a25.82,25.82,0,0,0-25.81-25.81C817.23,457.2,807.66,468.76,807.66,483Z" transform="translate(-628.93 -291)"/><path class="cls-31" d="M891,575.55c.15-5.71-4-20.27-11.78-32.33C874,535,868.17,526.8,863.6,520.53a6.91,6.91,0,0,0-9.62-1.47,6.84,6.84,0,0,0-1.5,9.58c5.16,7.06,10.56,14.89,15.17,22,6.38,9.88,9.66,18,10.42,21.16-4.89,5.72-11.48,16.78-29.42,32.78a3.08,3.08,0,0,0-.3.33,6.36,6.36,0,0,0-.61.66c-.08.12-.14.24-.23.36s-.33.51-.47.79l-.17.45a7.25,7.25,0,0,0-.28.78,5.86,5.86,0,0,0-.1.58c0,.23-.09.47-.11.71s0,.44,0,.67,0,.42,0,.63a5.44,5.44,0,0,0,.15.7,5.63,5.63,0,0,0,.14.59c.07.22.18.43.27.64s.17.41.28.61a5.88,5.88,0,0,0,.36.51,4.91,4.91,0,0,0,.38.55,14,14,0,0,0,8.23,6.23,13.81,13.81,0,0,0,6.61,0c4.58-1.17,3.6-1.87,4.59-4.7,1.24-3.58-.35-3.13-3.89-4.51-1.38-.54-2.12-2.53-4.61-3.5C888.51,580.3,891,577.89,891,575.55Z" transform="translate(-628.93 -291)"/><path class="cls-31" d="M813.31,519.21a6.89,6.89,0,0,0-9.67,1.14c-5.59,7.06-11.61,13.94-16.92,19.43-5.83,6.08-9.78,7.07-12.35,8.26-5.07-4-8.8-30.06-6.62-58.67,0-.15,0-.3,0-.45s0-.32,0-.48a8.08,8.08,0,0,0-.11-.86c0-.16-.07-.32-.11-.48a6.48,6.48,0,0,0-.26-.78,4,4,0,0,0-.21-.47c-.12-.24-.24-.46-.38-.69l-.32-.45c-.15-.19-.31-.38-.48-.56a5.51,5.51,0,0,0-.43-.41c-.18-.16-.36-.31-.55-.45a5.69,5.69,0,0,0-.52-.33,5,5,0,0,0-.65-.34l-.55-.22a6.61,6.61,0,0,0-.76-.22l-.29-.08a41.21,41.21,0,0,0-12.82-.06c-4,.53-12-3.58-10.9.06,1.53,5.28,4.87,8.33,8.54,9.31,2.44.65,8.82-1.15,12,1.09-1.64,27.75-6,70.06,12.76,72.79a6.37,6.37,0,0,0,1.17.1c5.58,0,13.57-5.38,23.88-16q7.92-8.19,17.68-20.54A6.83,6.83,0,0,0,813.31,519.21Z" transform="translate(-628.93 -291)"/><path class="cls-29" d="M854.22,462.39c-7.66-7.05-13.5,10-12.09,16.4,1.51,6.91,9.22,14.57,13,10.25C860,483.43,864.53,471.89,854.22,462.39Z" transform="translate(-628.93 -291)"/><path class="cls-29" d="M849.07,466.61c-6.27,4.48-38.68,5.17-44.13-2.81a14.37,14.37,0,0,0,6.44-.3s-6.24-2.57-8.42-5.54a37.86,37.86,0,0,0,14.95-2.54c7.22-3,21.82-7.13,31.24,1S849.07,466.61,849.07,466.61Z" transform="translate(-628.93 -291)"/><path class="cls-31" d="M859,490.54a9.12,9.12,0,0,1-4.54,6.25,3.64,3.64,0,0,1-5.26-3.93l1.59-8.14a3.63,3.63,0,0,1,6.35-1.68A9.15,9.15,0,0,1,859,490.54Z" transform="translate(-628.93 -291)"/><path class="cls-35" d="M834.94,547.37l.38-5.13-2.05-.15a10.73,10.73,0,0,0-1.1-3.23l1.47-1.56-3.36-3.63L828.62,535a10.63,10.63,0,0,0-3.13-1.33v-2.06h-5.13l-.3,2.06a12.21,12.21,0,0,0-3.33,1.33l-1.46-1.35-3.9,3.63,1.24,1.56a12.42,12.42,0,0,0-1.58,3.23l-2.07.15-.37,5.13,2,.15a10.71,10.71,0,0,0,1.09,3.23l-1.46,1.56,3.36,3.63,1.66-1.35a10.52,10.52,0,0,0,3.13,1.33V558h5.13l.3-2.06a12.34,12.34,0,0,0,3.33-1.33l1.46,1.35,3.89-3.63-1.23-1.56a12.39,12.39,0,0,0,1.57-3.23Zm-11.82,3.48a6.34,6.34,0,0,1-1.63.22,5.87,5.87,0,0,1-1.59-.22,5.65,5.65,0,0,1-4.11-4.43,6.15,6.15,0,0,1-.1-1.61,6.58,6.58,0,0,1,.33-1.61,6.92,6.92,0,0,1,4.77-4.44,6.27,6.27,0,0,1,1.62-.22,6,6,0,0,1,1.6.22,5.66,5.66,0,0,1,4.11,4.44,6.1,6.1,0,0,1,.1,1.61,6.79,6.79,0,0,1-.34,1.61A6.91,6.91,0,0,1,823.12,550.85Z" transform="translate(-628.93 -291)"/><path class="cls-31" d="M820.07,514.79c-1.44,5,3.31,8,11.65,6.83a40.45,40.45,0,0,0,16.83-6.83Z" transform="translate(-628.93 -291)"/><path class="cls-33" d="M879.25,543.22l-11.6,7.43c-4.61-7.12-10-14.95-15.17-22a6.84,6.84,0,0,1,1.5-9.58,6.91,6.91,0,0,1,9.62,1.47C868.17,526.8,874,535,879.25,543.22Z" transform="translate(-628.93 -291)"/><path class="cls-29" d="M850.16,529.84c4.66,6.62,9.44,13.66,14,20.54l16.09-10.33c-5.58-8.3-10.79-15.84-14.51-21.15a9.53,9.53,0,1,0-15.61,10.94Z" transform="translate(-628.93 -291)"/><path class="cls-33" d="M814.41,528.85q-9.76,12.35-17.68,20.54l-10-9.61c5.31-5.49,11.33-12.37,16.92-19.43a6.86,6.86,0,1,1,10.77,8.5Z" transform="translate(-628.93 -291)"/><path class="cls-29" d="M816.77,531.25c-5.85,5.59-11.91,11.57-17.75,17.43l-13.78-13.26c7.08-7.06,13.66-13.44,18.35-17.94a9.53,9.53,0,0,1,13.18,13.77Z" transform="translate(-628.93 -291)"/><path class="cls-15" d="M796.19,851.14H889a5,5,0,0,0,5-5h0a5,5,0,0,0-5-5H796.19a5,5,0,0,0-5,5h0A5,5,0,0,0,796.19,851.14Z" transform="translate(-628.93 -291)"/><path class="cls-40" d="M863.76,828.09c-.09-.53-9.3-53.36-14.11-94.35s-4.36-108.4-4.35-109.08h1.53c0,.68-.45,68,4.34,108.89s14,93.74,14.11,94.27Z" transform="translate(-628.93 -291)"/></svg>