<svg id="Layer_1" data-name="Layer 1" xmlns="http://www.w3.org/2000/svg" xmlns:xlink="http://www.w3.org/1999/xlink" viewBox="0 0 861.57 432.08"><defs><style>.cls-1,.cls-10,.cls-11,.cls-17,.cls-2,.cls-7,.cls-8,.cls-9{opacity:0.5;}.cls-1{fill:url(#Degradado_sin_nombre_42);}.cls-2{fill:url(#Degradado_sin_nombre_42-2);}.cls-3{fill:#fff;}.cls-4{fill:#00b59a;}.cls-5{fill:#524e64;}.cls-6{fill:#28a68f;}.cls-7{fill:url(#Degradado_sin_nombre_42-3);}.cls-8{fill:url(#Degradado_sin_nombre_42-4);}.cls-9{fill:url(#Degradado_sin_nombre_42-5);}.cls-10{fill:url(#Degradado_sin_nombre_42-6);}.cls-11{fill:url(#Degradado_sin_nombre_42-7);}.cls-12{fill:#dee4ed;}.cls-13{fill:#413e51;}.cls-14{fill:#ffbcc6;}.cls-15{fill:#84b4fe;}.cls-16{fill:#f2d188;}.cls-17{fill:url(#Degradado_sin_nombre_15);}.cls-18{fill:#a0616b;}.cls-19{fill:#5861d6;}.cls-20{fill:url(#Degradado_sin_nombre_26);}.cls-21{fill:url(#Degradado_sin_nombre_15-2);}.cls-22,.cls-27{fill:#4b4348;}.cls-23{fill:#edf1f6;}.cls-24{fill:url(#Degradado_sin_nombre_26-2);}.cls-25{fill:#ef8e9e;}.cls-26{fill:url(#Nueva_muestra_de_degradado_5);}.cls-27{opacity:0.7;}.cls-28{fill:#83434e;}.cls-29{fill:#8184e8;}.cls-30{fill:#35324c;}.cls-31{fill:url(#Degradado_sin_nombre_26-3);}.cls-32{fill:none;stroke:#524e64;stroke-miterlimit:10;}.cls-33{fill:#bdbacf;}.cls-34{fill:url(#Degradado_sin_nombre_11);}</style><linearGradient id="Degradado_sin_nombre_42" x1="77.85" y1="446.24" x2="-56.71" y2="535.95" gradientUnits="userSpaceOnUse"><stop offset="0" stop-color="#464fc6" stop-opacity="0.02"/><stop offset="1" stop-color="#3f4ad0" stop-opacity="0.64"/></linearGradient><linearGradient id="Degradado_sin_nombre_42-2" x1="834.86" y1="448.08" x2="700.3" y2="537.78" xlink:href="#Degradado_sin_nombre_42"/><linearGradient id="Degradado_sin_nombre_42-3" x1="231.59" y1="341.84" x2="-71.57" y2="543.94" xlink:href="#Degradado_sin_nombre_42"/><linearGradient id="Degradado_sin_nombre_42-4" x1="817.36" y1="434.82" x2="514.2" y2="636.93" xlink:href="#Degradado_sin_nombre_42"/><linearGradient id="Degradado_sin_nombre_42-5" x1="444.72" y1="339.08" x2="141.56" y2="541.19" xlink:href="#Degradado_sin_nombre_42"/><linearGradient id="Degradado_sin_nombre_42-6" x1="657.52" y1="419.2" x2="354.36" y2="621.31" xlink:href="#Degradado_sin_nombre_42"/><linearGradient id="Degradado_sin_nombre_42-7" x1="501.57" y1="342.98" x2="319.27" y2="464.5" xlink:href="#Degradado_sin_nombre_42"/><linearGradient id="Degradado_sin_nombre_15" x1="244.85" y1="288.21" x2="271.86" y2="288.21" gradientUnits="userSpaceOnUse"><stop offset="0" stop-color="#f2d188" stop-opacity="0"/><stop offset="1" stop-color="#524e64" stop-opacity="0.7"/></linearGradient><linearGradient id="Degradado_sin_nombre_26" x1="172.3" y1="292.94" x2="234.76" y2="292.94" gradientUnits="userSpaceOnUse"><stop offset="0" stop-color="#444dc6" stop-opacity="0"/><stop offset="1" stop-color="#3f4ad0" stop-opacity="0.5"/></linearGradient><linearGradient id="Degradado_sin_nombre_15-2" x1="290.87" y1="238.87" x2="424.01" y2="186.21" xlink:href="#Degradado_sin_nombre_15"/><linearGradient id="Degradado_sin_nombre_26-2" x1="391.33" y1="238.36" x2="416.28" y2="172.37" xlink:href="#Degradado_sin_nombre_26"/><linearGradient id="Nueva_muestra_de_degradado_5" x1="528.84" y1="291.45" x2="588.03" y2="291.45" gradientUnits="userSpaceOnUse"><stop offset="0" stop-color="#cf557c" stop-opacity="0"/><stop offset="1" stop-color="#df5673"/></linearGradient><linearGradient id="Degradado_sin_nombre_26-3" x1="666.59" y1="288.16" x2="674.97" y2="236.59" xlink:href="#Degradado_sin_nombre_26"/><linearGradient id="Degradado_sin_nombre_11" x1="422.88" y1="282" x2="454.73" y2="135.02" gradientUnits="userSpaceOnUse"><stop offset="0" stop-color="#686476" stop-opacity="0"/><stop offset="1" stop-color="#524e64" stop-opacity="0.7"/></linearGradient></defs><title>vector</title><path class="cls-1" d="M73,476.91c0,3.18-18.43,5.75-41.16,5.75s-41.15-2.57-41.15-5.75,18.42-5.74,41.15-5.74S73,473.74,73,476.91Z" transform="translate(31.57 -83.8)"/><path class="cls-2" d="M830,478.75c0,3.18-18.43,5.75-41.16,5.75s-41.15-2.57-41.15-5.75S766.11,473,788.84,473,830,475.58,830,478.75Z" transform="translate(31.57 -83.8)"/><polygon class="cls-3" points="782.93 22.61 746.56 22.61 746.56 92.31 701.73 92.31 701.73 112 665.16 112 665.16 5.97 621.2 5.97 621.2 137.79 579.04 137.79 579.04 22.85 546.01 22.85 546.01 117.63 537.75 117.63 537.75 97.94 494.86 97.94 494.86 137.33 478.76 137.33 478.76 0 442.19 0 442.19 112 442.13 112 442.13 203.64 782.93 203.64 782.93 22.61"/><polygon class="cls-3" points="413.63 22.61 384.6 22.61 384.6 92.31 339.77 92.31 339.77 112 303.2 112 303.2 5.97 259.25 5.97 259.25 137.79 217.08 137.79 217.08 22.85 184.05 22.85 184.05 117.63 175.79 117.63 175.79 97.94 132.91 97.94 132.91 137.33 116.81 137.33 116.81 0 72.82 0 72.82 166.4 72.82 203.64 413.63 203.64 413.63 22.61"/><path class="cls-4" d="M-.09,298.82s-12.78,56.41,7.45,94.73l20.22,38.32S32.9,336.07-.09,298.82Z" transform="translate(31.57 -83.8)"/><path class="cls-3" d="M.77,446.09C2,453,3.57,460,7,466.13s9,11.4,15.78,13.05a36,36,0,0,0,9.5.65c3.5-.09,7.15-.31,10.16-2.08,3.92-2.32,6-6.78,7.58-11.05a128.13,128.13,0,0,0,6.11-22.27c.79-4.38,1.3-9.13-.75-13.08-2.77-5.35-9.26-7.51-15.21-8.48-9.88-1.61-23.5-2.43-33,1.59C-1.07,428-.57,438.54.77,446.09Z" transform="translate(31.57 -83.8)"/><path class="cls-5" d="M23.19,432.05c7.85.46,16.35-.74,21.29-3.4,1-.53,1.86-1.22,1.4-1.87s-2.64-1.09-4.46-1.27c-9.44-1-19.88-1.42-29.11.15C-1.22,428,16,431.63,23.19,432.05Z" transform="translate(31.57 -83.8)"/><path class="cls-6" d="M19.06,285s-6.38,107.51,8.52,146.89C27.58,431.87,37.16,336.07,19.06,285Z" transform="translate(31.57 -83.8)"/><path class="cls-4" d="M25.7,431.08h3.45c5.09-21.28,20.31-90.22,12.27-122.39,0,0-25.55,90.47-19.16,110.7Z" transform="translate(31.57 -83.8)"/><path class="cls-4" d="M758.72,302.49s-12.77,56.42,7.45,94.73l20.23,38.32S791.72,339.75,758.72,302.49Z" transform="translate(31.57 -83.8)"/><path class="cls-3" d="M759.59,449.77c1.23,6.92,2.8,13.9,6.22,20s9,11.4,15.79,13.06a36.39,36.39,0,0,0,9.5.65c3.5-.09,7.15-.32,10.16-2.09,3.92-2.31,6-6.77,7.58-11A129.27,129.27,0,0,0,815,448.11c.79-4.38,1.29-9.13-.75-13.08-2.77-5.36-9.26-7.51-15.21-8.48-9.89-1.62-23.5-2.44-33,1.59C757.75,431.65,758.25,442.22,759.59,449.77Z" transform="translate(31.57 -83.8)"/><path class="cls-5" d="M782,435.73c7.85.46,16.35-.75,21.29-3.41,1-.53,1.86-1.21,1.4-1.86s-2.64-1.09-4.47-1.28c-9.43-1-19.87-1.41-29.1.15C757.6,431.63,774.83,435.31,782,435.73Z" transform="translate(31.57 -83.8)"/><path class="cls-6" d="M777.88,288.66s-6.38,107.5,8.52,146.88C786.4,435.54,796,339.75,777.88,288.66Z" transform="translate(31.57 -83.8)"/><path class="cls-4" d="M784.52,434.76H788c5.09-21.29,20.31-90.22,12.26-122.39,0,0-25.54,90.47-19.15,110.69Z" transform="translate(31.57 -83.8)"/><ellipse class="cls-7" cx="127.92" cy="410.95" rx="92.79" ry="11.94"/><path class="cls-8" d="M806.48,503.93c0,6.6-41.54,11.95-92.78,11.95s-92.79-5.35-92.79-11.95S662.45,492,713.7,492,806.48,497.34,806.48,503.93Z" transform="translate(31.57 -83.8)"/><ellipse class="cls-9" cx="341.05" cy="408.19" rx="92.79" ry="11.94"/><path class="cls-10" d="M646.63,488.31c0,6.6-41.54,11.95-92.78,11.95s-92.79-5.35-92.79-11.95,41.54-11.94,92.79-11.94S646.63,481.72,646.63,488.31Z" transform="translate(31.57 -83.8)"/><ellipse class="cls-11" cx="439.23" cy="384.53" rx="55.42" ry="11.94"/><path class="cls-12" d="M112.91,174.78l35,5.68-16.66-15.21,8-8.88,30.28,27.08a7,7,0,0,1-4.85,11.83l-42.42,1.32Z" transform="translate(31.57 -83.8)"/><polygon class="cls-5" points="159.1 180.71 158.4 409.24 146.38 410.09 138.03 216.21 126.87 217.07 115.46 408.38 103.44 407.52 104.95 176.57 159.1 180.71"/><path class="cls-12" d="M112.91,174.78l-40.43-1.7a13.54,13.54,0,0,0-10.91,4.78l11.81,92.58,55.26,1.11-5-84.86S114.38,174.84,112.91,174.78Z" transform="translate(31.57 -83.8)"/><path class="cls-3" d="M131.13,157.05c-2.22,1.76-5,3.39-5.5,6.19a5.57,5.57,0,0,0,3.69,5.71,9.48,9.48,0,0,0,7.15-.54,12.34,12.34,0,0,0,7.25-8.78c.48-2.86-.79-8.35-4.11-9.35C135.85,149.15,133.85,154.89,131.13,157.05Z" transform="translate(31.57 -83.8)"/><polygon class="cls-13" points="103.44 407.52 80.04 414.5 80.9 416.51 114.94 412.79 115.46 408.38 103.44 407.52"/><path class="cls-14" d="M-3.76,175.5l-3.7-6.31,4.08-8.53s2.22-5.93,2.22-7.79-1.85-4.45-3.71-1.11a68.09,68.09,0,0,1-3.71,5.94l-11-16.32a1.68,1.68,0,0,0-1.4-.74h0a1.68,1.68,0,0,0-1.48,2.47l2.52,4.69A1.68,1.68,0,0,1-22.37,150l-.5-.35a6.17,6.17,0,0,0-8.51,1.5l-.19.26.18,5.55a12.35,12.35,0,0,0,4.52,9.15c6.49,5.33,18,14.66,18.29,13.86C-8.21,178.83-3.76,175.5-3.76,175.5Z" transform="translate(31.57 -83.8)"/><path class="cls-14" d="M121.7,139.08a3.67,3.67,0,0,0-4.45,1.37,5.51,5.51,0,0,0-.42,4.88,7.09,7.09,0,0,0,7.42,4.63,6.28,6.28,0,0,0,5.2-6.78,6.57,6.57,0,0,0-4.17-5,8.88,8.88,0,0,0-6.62.26" transform="translate(31.57 -83.8)"/><path class="cls-14" d="M120.9,142.59l18.19,14.29s.43,7.8-3.9,8.67c-1.3.86-18.19-16.9-18.19-16.9Z" transform="translate(31.57 -83.8)"/><path class="cls-13" d="M114.81,493.89l.59,3.84,29.46,4.86s1.43-2.29.57-2.57-18.6-7-18.6-7Z" transform="translate(31.57 -83.8)"/><path class="cls-14" d="M86.06,155.23,87,180.42a5.93,5.93,0,0,0,5,5.86h0a5.93,5.93,0,0,0,6.82-5.08l1.28-21.78Z" transform="translate(31.57 -83.8)"/><rect class="cls-5" x="108.01" y="132.87" width="12.99" height="27.39" transform="translate(60.3 -102.27) rotate(10.54)"/><rect class="cls-5" x="108.02" y="132.74" width="11.55" height="27.39" transform="translate(60.27 -102.14) rotate(10.54)"/><path class="cls-3" d="M84.6,176.72s-1.84,1.58-2,2.11,7.11,11.85,7.11,11.85l4.87-7.77,6,7.77,2.5-14.09-4.08-.92-4.6,5.26-8.17-6.58Z" transform="translate(31.57 -83.8)"/><polygon class="cls-15" points="126.18 99.11 123.15 104.11 125.25 107.93 124.07 110.83 125.25 147.96 129.47 152.7 133.29 148.22 129.34 110.7 127.1 107.67 129.86 103.85 126.18 99.11"/><path class="cls-14" d="M75.56,128.28c-2.56,5.91-2.27,12.67-.93,19,1.46,6.83,4.33,13.69,9.74,18.11s13.82,5.68,19.4,1.47c3.32-2.51,5.2-6.49,6.46-10.45,2.51-7.9,3-16.71-.25-24.32C104,118.11,82.73,111.71,75.56,128.28Z" transform="translate(31.57 -83.8)"/><polygon class="cls-12" points="98.09 120.67 54.69 134.68 23.14 100.31 31 93.82 60.08 117.66 93.14 94.06 98.78 103.92 98.09 120.67"/><polygon class="cls-3" points="18.17 98 21.51 103.2 36.34 94.67 30.41 88.73 18.17 98"/><path class="cls-14" d="M68.13,139.47a5,5,0,0,0-2.59,5.12,11.08,11.08,0,0,0,2.58,5.48,9.36,9.36,0,0,0,2.42,2.36,7.81,7.81,0,0,0,3.12,1c1.34.18,2.92,0,3.7-1.06a4.46,4.46,0,0,0,.61-2c.4-3.36-.46-4.69-2.4-7.12C73.79,141,71.45,138,68.13,139.47Z" transform="translate(31.57 -83.8)"/><path class="cls-5" d="M80.54,139.69c-.28,3.51-1.94,7.09-5,8.8a20.4,20.4,0,0,1-3.91-10.33c-.51-4.58.24-9.45,2.92-13.2,3-4.28,8.32-6.62,13.57-7s10.48,1,15.34,3c2.11.87,4.82,1.75,6.42.13a11.18,11.18,0,0,1,1.3,5.16,7,7,0,0,1-1,3.93c-1.29,1.93-3.38,4.09-5.64,4.59-17.12,3.83-25.08-5.46-25.16-5.21-.28.92.27,2.06.49,3A23.56,23.56,0,0,1,80.54,139.69Z" transform="translate(31.57 -83.8)"/><path class="cls-16" d="M332.41,331.76,327.54,237s-24.36-1.46-31.61-1.46c-3.95,0-10.69,1.88-16,3.58-5,1.61-9.16,1.47-11.59,6.12l-39.95,76.58,24.55,2.34,8.18-9.35-4.16-6.31,14.92-35.2-.24,59.62Z" transform="translate(31.57 -83.8)"/><path class="cls-17" d="M271.33,259.35l-26.48,47.84,8.24,9.66a14.5,14.5,0,0,0,6.54-.36l1.47-1.67-4.16-6.31,14.92-35.2Z" transform="translate(31.57 -83.8)"/><path class="cls-18" d="M292.45,312.61c-1-.35-9.23-5.13-15.38-5.13S263.41,314,263.41,314s-1,3.42,3.07,2.74,6.83-1,6.83-1-7.17,3.76-2.39,4.44,24.95,0,24.95,0Z" transform="translate(31.57 -83.8)"/><path class="cls-19" d="M290.94,326.51H212v-5.79h78.94a2.89,2.89,0,0,1,2.89,2.89h0A2.89,2.89,0,0,1,290.94,326.51Z" transform="translate(31.57 -83.8)"/><path class="cls-15" d="M269.28,326.51H193.16A7.43,7.43,0,0,1,186,321l-13.44-50.62a7.43,7.43,0,0,1,7.18-9.33H246.2a7.43,7.43,0,0,1,7.17,5.52Z" transform="translate(31.57 -83.8)"/><path class="cls-20" d="M179.73,261a7.43,7.43,0,0,0-7.18,9.33L186,321a7.38,7.38,0,0,0,2.5,3.85L234.76,261Z" transform="translate(31.57 -83.8)"/><path class="cls-3" d="M224.45,298.26a4.55,4.55,0,0,1-4.64,6,8.32,8.32,0,0,1-7.66-6,4.57,4.57,0,0,1,4.65-6A8.3,8.3,0,0,1,224.45,298.26Z" transform="translate(31.57 -83.8)"/><path class="cls-18" d="M293.47,223.77c.69,1.37,5.47,20.16,5.47,20.16a6.07,6.07,0,0,0,5.81,2.73c4.1-.34,5.81-6.15,5.81-6.15l-7.18-23.57Z" transform="translate(31.57 -83.8)"/><path class="cls-18" d="M318.76,212.2c0,12.94-13.74,27.27-26.69,27.27s-20.19-14.33-20.19-27.27a23.44,23.44,0,0,1,46.88,0Z" transform="translate(31.57 -83.8)"/><path class="cls-3" d="M297.23,238.12l-2.73,7.18,1.71,7.51,5.46-7.86,5.47,8.89,6.15-10.94-4.1-7.17s-2.05,4.78-6.49,5.81S297.23,238.12,297.23,238.12Z" transform="translate(31.57 -83.8)"/><polygon class="cls-15" points="333.24 161.16 329.14 166.28 331.19 169.36 328.12 175.85 328.8 218.56 332.9 227.1 338.71 217.53 337.34 176.88 334.27 169.02 336.66 165.6 333.24 161.16"/><polygon class="cls-21" points="362 172.99 363.48 247.9 328.25 247.53 362 172.99"/><path class="cls-16" d="M327.54,237l3.25,70.61-32.63,6.65,4.45,8.53,46.71,2.71-6.38-69.83a20.78,20.78,0,0,0-11.49-16.74Z" transform="translate(31.57 -83.8)"/><polygon class="cls-3" points="324.02 228.81 330.51 229.49 336.32 239.06 325.4 239.81 324.02 228.81"/><path class="cls-5" d="M259.91,344.57l-57.75,14.69,29.39,115.5,10.13-5.06-8.61-99.3,51.67-16.21-29.89,17.23.51,94.22h9.11s25.33-92.2,27.87-92.2,45.08-28.37,45.08-28.37Z" transform="translate(31.57 -83.8)"/><polygon class="cls-5" points="232.04 400.06 272.2 397.2 273.3 384.55 230.38 394.32 232.04 400.06"/><polygon class="cls-5" points="264.63 407.18 272.74 408.19 295.54 399.58 296.04 381.85 286.93 381.85 282.87 392.99 270.58 400.42 264.63 407.18"/><path class="cls-22" d="M271.07,203.86c-.92,1.69-1.86,3.65-1.17,5.44.83,2.19,3.56,2.86,5.88,3.13a94.3,94.3,0,0,0,12.11.63,37.54,37.54,0,0,0,8-.8c4.28-1,8.16-3.18,12-5.34,2.73-1.54,5.74-3.48,6.24-6.56s-1.73-5.83-3.81-8.14a25.22,25.22,0,0,0-3.78-3.67A16.45,16.45,0,0,0,294.19,186C283.63,187.72,276,194.83,271.07,203.86Z" transform="translate(31.57 -83.8)"/><path class="cls-22" d="M309.42,211.45a2.5,2.5,0,0,1,3.14-1.47,3.58,3.58,0,0,1,2.24,2.91,6.5,6.5,0,0,1-.73,3.73,9.43,9.43,0,0,0-.75,1.73,6.32,6.32,0,0,0-.1,1.57q0,3.44.11,6.87c1.89-.72,3-2.64,3.95-4.43,2.09-3.92,4.24-8.09,4-12.53-.2-3.67-2-7-3.88-10.22a5.72,5.72,0,0,0-1.46-1.84,3.79,3.79,0,0,0-3.24-.34,10.8,10.8,0,0,0-2.94,1.6L307,200.89a6.37,6.37,0,0,0-2.29,2.2c-.86,1.74.34,2.47,1.35,3.52C306.6,207.14,305.69,218.53,309.42,211.45Z" transform="translate(31.57 -83.8)"/><path class="cls-23" d="M275,231.06c-3.1,0-6.56-2.63-7.71-5.87a5,5,0,0,1,.35-4.57A4,4,0,0,1,271,219c3.1,0,6.56,2.63,7.71,5.87a5,5,0,0,1-.34,4.57A4,4,0,0,1,275,231.06Zm-4-11.13a3.12,3.12,0,0,0-2.65,1.22,4.08,4.08,0,0,0-.23,3.73c1,2.9,4.1,5.26,6.84,5.26a3.12,3.12,0,0,0,2.66-1.22,4.11,4.11,0,0,0,.23-3.73C276.81,222.29,273.74,219.93,271,219.93Z" transform="translate(31.57 -83.8)"/><path class="cls-23" d="M290.51,231.06c-3.1,0-6.56-2.63-7.71-5.87a5,5,0,0,1,.34-4.57,4,4,0,0,1,3.41-1.61c3.1,0,6.55,2.63,7.71,5.87a5,5,0,0,1-.35,4.57A4,4,0,0,1,290.51,231.06Zm-4-11.13a3.12,3.12,0,0,0-2.66,1.22,4.11,4.11,0,0,0-.23,3.73c1,2.9,4.1,5.26,6.85,5.26a3.12,3.12,0,0,0,2.65-1.22,4.08,4.08,0,0,0,.23-3.73C292.36,222.29,289.29,219.93,286.55,219.93Z" transform="translate(31.57 -83.8)"/><path class="cls-5" d="M376.15,175.58c.24,3.69,2.26,7.35,1.25,10.89-.84,2.91-3.55,5-4.38,7.89-.95,3.3.72,6.72,2.34,9.74,1.36,2.53,3.26,5.41,6.13,5.42a8,8,0,0,0,3.55-1.13l8.2-4.11a13.24,13.24,0,0,0,3.33-2.11,13,13,0,0,0,2.83-5.11c2.1-5.79,4-11.85,3.5-18s-3.85-12.41-9.57-14.69c-3.2-1.27-12.56-2.41-15.31.33-1.23,1.22-.62,2.52-.77,4.07C377,171.12,376,173.17,376.15,175.58Z" transform="translate(31.57 -83.8)"/><path class="cls-14" d="M382.79,194l-2.79.76c-11.6,7.55-18.39,18.05-19.85,31.81l-5.92,95.76,8.9-4Z" transform="translate(31.57 -83.8)"/><path class="cls-15" d="M441.45,193.24l-47.37-1.93c-4-.16-11.05,1.26-14.89,2.42l-6,2.81,10.62,50.75h0a100.78,100.78,0,0,0-13.93,54.25l5.62,69.19h53.09l6.77-73a100.88,100.88,0,0,0-8.08-43.57l-2.89-6.74Z" transform="translate(31.57 -83.8)"/><path class="cls-24" d="M384.55,213.6a13.6,13.6,0,0,0,16.1,7.39,34,34,0,0,0,10.08-4.31c5.71-3.34,11.13-7.33,15.28-12.48,2.92-3.62,5.18-8.77,2.82-12.77-1.52-2.57-4.52-3.84-7.4-4.61C406.05,182.69,372.8,191.45,384.55,213.6Z" transform="translate(31.57 -83.8)"/><path class="cls-14" d="M421.06,168.53c0,12.59-13.42,29.68-26,29.68s-19.58-17.09-19.58-29.68a22.8,22.8,0,1,1,45.59,0Z" transform="translate(31.57 -83.8)"/><path class="cls-14" d="M441.45,193.24l32.85,42.83A9.52,9.52,0,0,1,471.72,250l-38.41,23.5-4.75-7.41L454.91,245a4.68,4.68,0,0,0,.93-6.31l-20-28.32Z" transform="translate(31.57 -83.8)"/><path class="cls-14" d="M336.06,326.52h20.63a6.28,6.28,0,0,0,6.27-5.84l.17-2.36Z" transform="translate(31.57 -83.8)"/><path class="cls-14" d="M392.12,183.85c-.3-.76,5.45,15.05,5.45,15.05s1.3,6.48,6.74,4.93,2.08-24.64,1.3-24.9S392.64,185.15,392.12,183.85Z" transform="translate(31.57 -83.8)"/><path class="cls-5" d="M405.65,165.53c-10.56,6.42-21.66,13-34,13.78,2.77-3.44,2.22-8.36,2.73-12.75a24.19,24.19,0,0,1,32.07-20,13.3,13.3,0,0,1,6.6,4.49C417.6,157.34,410.55,162.55,405.65,165.53Z" transform="translate(31.57 -83.8)"/><path class="cls-5" d="M404.69,190.84c.7,3.38,2.85,6.39,3.24,9.82a19.62,19.62,0,0,1-.78,6.66l-1.85,7.92a23.71,23.71,0,0,0,9.94-5,38.62,38.62,0,0,0,13.7-36.08,62.42,62.42,0,0,0-3.26-11.07,27.72,27.72,0,0,0-4.06-7.89,10.49,10.49,0,0,0-7.56-4.16c-3.55-.09-6.78,2.25-8.86,5.13a11.3,11.3,0,0,0-2.41,6.71c0,2.42.89,10.66,3.11,11.63a5.8,5.8,0,0,1,8.1,2.9c1.71,4.89-2.66,5.82-5.58,7.5C404.79,187,403.9,187.05,404.69,190.84Z" transform="translate(31.57 -83.8)"/><path class="cls-5" d="M428.9,176c2.24,1.68,4.79,3,6.76,5s3.28,5,2.24,7.6c-.66,1.63-2.1,2.79-3.35,4s-2.39,2.86-2.19,4.61a7.46,7.46,0,0,0,1.48,3.13c1.68,2.54,3.12,5.51,2.63,8.51a8.3,8.3,0,0,1-4.24,5.72,11.42,11.42,0,0,1-7.14,1.13,23.37,23.37,0,0,0-4.22-.56c-3.76.16-6.71,3.56-10.44,4a6.88,6.88,0,0,1-7.58-8c.59-3.44,3.59-5.86,6.36-8s5.73-4.64,6.13-8.1c.31-2.59-.91-5.17-.59-7.76.46-3.7,3.9-6.41,4.72-10,.48-2.06-.28-7.29,3-7.22C424.91,170,427.07,174.59,428.9,176Z" transform="translate(31.57 -83.8)"/><path class="cls-5" d="M401.68,171.84a27.2,27.2,0,0,1-2.37,3.53l-3.59,4.81a26,26,0,0,0,.85-9.5,4.21,4.21,0,0,1,0-1.46,3.8,3.8,0,0,1,1.79-2c1.1-.73,3.92-3.08,5-1.57C404.29,166.81,402.27,170.74,401.68,171.84Z" transform="translate(31.57 -83.8)"/><polygon class="cls-5" points="461.04 175.32 458.87 177.25 466.41 186.06 461.04 175.32"/><path class="cls-25" d="M589.63,331.76,584.77,237s-24.36-5.13-31.61-5.13c-3.95,0-10.7,1.87-16,3.58a20,20,0,0,0-11.59,9.79l-40,76.58,24.55,2.34,8.18-9.35-4.16-6.31,14.93-35.2-.25,59.62Z" transform="translate(31.57 -83.8)"/><path class="cls-14" d="M586.37,209.59A23.44,23.44,0,0,1,562.93,233c-7.16,0-12.13-7.44-16.43-12.51-3.47-4.08-6.2-5.24-6.2-11,0-12.95,9.69-23.35,22.63-23.35A23.43,23.43,0,0,1,586.37,209.59Z" transform="translate(31.57 -83.8)"/><polygon class="cls-5" points="558.08 242.71 476.25 242.71 458.87 177.25 540.7 177.25 558.08 242.71"/><polygon class="cls-3" points="558.08 242.71 478.8 242.71 461.04 175.32 541.24 177.25 558.08 242.71"/><rect class="cls-5" x="476.91" y="237.96" width="56.1" height="4.74"/><path class="cls-26" d="M556.67,315.48l31.36-15L585.43,250l-5.42.33L539.37,293s-6.06,15.82-10.48,28.28l0,11.7,42.15-.81Z" transform="translate(31.57 -83.8)"/><polygon class="cls-15" points="536.28 227.57 492.62 227.57 482.83 190.45 527.01 191.51 536.28 227.57"/><path class="cls-15" d="M517.14,344.57l-57.75,14.69,29.38,115.5,10.13-5.06-8.61-99.3L542,354.19l-29.88,17.23.5,94.22h9.12s25.33-92.2,27.86-92.2,45.09-28.37,45.09-28.37Z" transform="translate(31.57 -83.8)"/><polygon class="cls-5" points="489.26 400.06 529.43 397.2 530.53 384.55 487.6 394.32 489.26 400.06"/><path class="cls-23" d="M548.18,241.77a63,63,0,0,0,2.54,13.41,5,5,0,0,0,1.43,2.59c1.63,1.27,4,.21,5.67-1a40.21,40.21,0,0,0,8-7.2,14.08,14.08,0,0,0,3.23-6,6.67,6.67,0,0,0-1.84-6.34c-2.7-2.34-8.52-2.25-11.92-2.33C550.48,234.77,547.78,236.75,548.18,241.77Z" transform="translate(31.57 -83.8)"/><polygon class="cls-5" points="521.86 407.18 529.97 408.19 552.76 399.58 553.27 381.85 544.15 381.85 540.1 392.99 527.81 400.42 521.86 407.18"/><path class="cls-14" d="M554.11,221.4l-1.73,19.76s1.38,8.32,6.24,6.93,5.54-5.19,5.54-5.19l2.08-23.58Z" transform="translate(31.57 -83.8)"/><path class="cls-22" d="M571.66,202c3.69-.15,7.49-.4,10.81-2s6.11-4.87,6-8.57-3.87-7.17-7.38-6c-.8.26-1.53.72-2.35.92a7.78,7.78,0,0,1-3.86-.46c-9.48-2.8-20.08-4.66-28.93-.26a9,9,0,0,0-4.12,3.52,10.86,10.86,0,0,0-1,4.15q-.52,5.75-.69,11.51c2.56-1.39,5.11-3,7.77-4.21s4.27,0,7,.56A68.53,68.53,0,0,0,571.66,202Z" transform="translate(31.57 -83.8)"/><path class="cls-27" d="M549.65,195.72a8.5,8.5,0,0,0-6.85,1.91,23.31,23.31,0,0,0-3.2,9.94,19.93,19.93,0,0,1,.47,3.77,10,10,0,0,0,.79,3.26c1.35,2,3.51,3.41,5.64,5.92.09.11.18.21.26.32,2.27-3.92,6-12.87,6.66-13.77,1.06-1.37,4.46-5.51,3.85-7.34S551.33,196,549.65,195.72Z" transform="translate(31.57 -83.8)"/><path class="cls-14" d="M549.68,205.27a2.11,2.11,0,0,0-.66-.7,2.27,2.27,0,0,0-1.16-.2c-1.54,0-3.32.11-4.24,1.34a4.31,4.31,0,0,0-.7,1.81,16.19,16.19,0,0,0-.21,4.66c.24,2.38,1.39,5.06,3.72,5.6a4.54,4.54,0,0,0,3.94-1.21C554,213.24,552.08,208.81,549.68,205.27Z" transform="translate(31.57 -83.8)"/><path class="cls-22" d="M579.31,217.52a8.09,8.09,0,0,1,3.65-.25,3,3,0,0,1,2.41,2.48,7.83,7.83,0,0,1-.27,1.78c-.3,1.84.43,3.68,1.08,5.43,1.4,3.84,2.33,8.42,0,11.78-2.19,3.15-6.5,4-10.33,3.85a28.91,28.91,0,0,1-25.54-19.51,19.17,19.17,0,0,1-.37-11.72c.37-1.15,1.35-2.47,2.49-2.07a14.34,14.34,0,0,0,7.49,10.45C566.91,223.34,572.57,219.09,579.31,217.52Z" transform="translate(31.57 -83.8)"/><path class="cls-5" d="M430.78,260.15,508.89,262l16.33,63.49H448l-17.22-65.36m-1.31-1,17.76,67.39h79.28L509.67,261l-80.2-1.92Z" transform="translate(31.57 -83.8)"/><path class="cls-3" d="M557.87,326.51H445.34v-4.75H557.87a2.37,2.37,0,0,1,2.37,2.37h0A2.38,2.38,0,0,1,557.87,326.51Z" transform="translate(31.57 -83.8)"/><path class="cls-19" d="M500.91,326.51H445.34v-4.75h55.57a2.37,2.37,0,0,1,2.37,2.37h0A2.38,2.38,0,0,1,500.91,326.51Z" transform="translate(31.57 -83.8)"/><path class="cls-25" d="M584.77,237,564.3,291.12l-52.19,6.95,2,10.44,66.8-2.18,18-47.58a11.21,11.21,0,0,0,.32-7.32,20.76,20.76,0,0,0-10.64-12.49Z" transform="translate(31.57 -83.8)"/><path class="cls-14" d="M512.11,298.07,484,283a3,3,0,0,0,.71,4.09c2.22,1.86,9.35,7.13,9.35,7.13v4.1c2.35,7.68,9.61,11.31,17.6,10.43l2.54-.27Z" transform="translate(31.57 -83.8)"/><path class="cls-28" d="M626.79,326.39H593.17s-1-2.44,4.39-3.41S618,321.52,618,321.52l3.9-4.39,5.36,1.46Z" transform="translate(31.57 -83.8)"/><path class="cls-29" d="M654.39,223.64l-35.82,96.67,8.84,2.21,55-94.21s-1.58-6.1-10.93-11.95S654.39,223.64,654.39,223.64Z" transform="translate(31.57 -83.8)"/><path class="cls-18" d="M655.38,179.33a23.45,23.45,0,0,0-32.4-7.09,24.51,24.51,0,0,0-10.73,18.07c-.36,3.64-.38,4.91,1.09,8.26s5.61,8.07,3.25,14.83c-.55,1.58-.09,4,1.76,4.74s3.45-1.26,5.23-1.34c3.39-.16,10,5,12.45,7.06a7.23,7.23,0,0,0,3.49,2,5.89,5.89,0,0,0,3.33-.81c5.15-2.67,8.28-8,10.86-13.21,2.4-4.86,4.57-10,4.93-15.39A23.32,23.32,0,0,0,655.38,179.33Z" transform="translate(31.57 -83.8)"/><path class="cls-18" d="M654.49,224.65c1,1,2.23,2.09,3.64,1.88a4.16,4.16,0,0,0,1.75-.83,26.81,26.81,0,0,0,4-3.39,4.31,4.31,0,0,0,1.48-2.72,4,4,0,0,0-.45-1.72c-2.37-5.34-7.23-9.41-8.95-15-.77-2.53-.86-5.24-1.73-7.75s-2.88-4.91-5.53-5a7,7,0,0,0-4.3,1.63,15.37,15.37,0,0,0-6,13.36,15.68,15.68,0,0,0,6.81,11.43A59.19,59.19,0,0,1,654.49,224.65Z" transform="translate(31.57 -83.8)"/><path class="cls-22" d="M623,172.24a23.79,23.79,0,0,0-9.32,12c4.5,2.22,16-2.72,19.08-4.6a22.36,22.36,0,0,0,10.73,19.8c4.12,2.44,9,3.51,13.09,5.88a31.4,31.4,0,0,0,2.08-8.91A23.43,23.43,0,0,0,623,172.24Z" transform="translate(31.57 -83.8)"/><path class="cls-18" d="M635.55,196c-1.32-2.43,0-5.78,2.47-7a6.9,6.9,0,0,1,7.64,1.46,9.75,9.75,0,0,1,2.62,7.61c-.25,3.49-2.79,7.25-6.28,7.07a6.31,6.31,0,0,1-4.69-3,18.51,18.51,0,0,1-2.17-5.32" transform="translate(31.57 -83.8)"/><polygon class="cls-3" points="698.93 128.75 692.25 120.99 681.68 140.39 685.56 152.68 699.58 136.94 698.93 128.75"/><path class="cls-15" d="M675,213.61l62.72,69.81-38.41,33.73-47-72.27c-4.8-6.92,2.55-22.19,7.35-29.11h0A10.58,10.58,0,0,1,675,213.61Z" transform="translate(31.57 -83.8)"/><polygon class="cls-30" points="767.12 413.71 750.26 318.69 730.88 233.36 769.29 199.63 767.09 317.62 776.47 409.04 767.12 413.71"/><polygon class="cls-5" points="769.29 199.63 737.67 416.74 728.08 415.18 730.88 233.36 769.29 199.63"/><polygon class="cls-5" points="710.5 423.64 735.83 422.67 737.29 414.87 729.98 413.9 705.62 420.72 706.11 424.13 710.5 423.64"/><polygon class="cls-30" points="776.47 409.04 777.2 416.37 747.89 418.19 747.63 415.85 773.57 407.55 776.47 409.04"/><path class="cls-18" d="M614.27,326.39H580.65s-1-2.44,4.38-3.41,21.62-1.34,21.62-1.34l2.74-4.51,7.34,2.81Z" transform="translate(31.57 -83.8)"/><path class="cls-15" d="M662.13,219.84,636.62,268,606,321.41l10,.37,27.26-37.58,36.1-46.14a12.58,12.58,0,0,0,3.43-15.47h0A12.59,12.59,0,0,0,662.13,219.84Z" transform="translate(31.57 -83.8)"/><path class="cls-31" d="M676.68,282.39c-.7-9.78-4.14-40.2-4.14-40.2L662,259.88Z" transform="translate(31.57 -83.8)"/><path class="cls-14" d="M398.66,362.48c-1.72,0-15.45,5.72-15.45,5.72l10.73,88.08a55.8,55.8,0,0,1-8.09,2.47c-5.27,1.51-10,2.05-14.64,5.15-.38.27-.49,1.61-.56,2.07-.16,1,1.22,1.45,2.24,1.5q9.53.42,19.08.08c4-.14,7.36-2.21,11-4.06,2.1-1.08,2.9-4.27,2.78-5.76C405.68,457.28,400.28,362.48,398.66,362.48Z" transform="translate(31.57 -83.8)"/><path class="cls-5" d="M386.86,464.25c6.13-.57,14.37-3.3,19.14-7.18.43,4.06-.77,8-8.5,9.95-8.93,2.29-18.5,4.83-27.34,2.21-.94-.28-2-.88-2-1.86a2.32,2.32,0,0,1,.53-1.21c1.58-2.09,6.23-5.83,9-4.92,1.44.47,2.47,2.13,4.1,2.63A13.46,13.46,0,0,0,386.86,464.25Z" transform="translate(31.57 -83.8)"/><path class="cls-14" d="M398.61,467.47" transform="translate(31.57 -83.8)"/><path class="cls-14" d="M431.44,457.73c0-.45-5.44-95.25-7.06-95.25s-15.44,5.72-15.44,5.72l10.72,88.08c1.81,4.75,3.36,9.28,6,13.62a28.19,28.19,0,0,0,10.66,10.63,1.56,1.56,0,0,0,1.56.18,1.42,1.42,0,0,0,.47-.8c.76-2.62-.36-5.37-1.45-7.86C434.9,467.5,431.83,462.68,431.44,457.73Z" transform="translate(31.57 -83.8)"/><path class="cls-5" d="M422.48,469.37c2.73,5.07,6.1,10.24,11.35,12.62a4.77,4.77,0,0,0,2.85.52,3.65,3.65,0,0,0,2.59-2.74,7.92,7.92,0,0,0-.22-3.92,20,20,0,0,0-2.37-5.49,1.72,1.72,0,0,0-1-.91c-.6-.09-1.1.43-1.59.79a4.51,4.51,0,0,1-4.76,0,11.77,11.77,0,0,1-3.53-3.53c-2-2.74-3.76-7.77-6.53-9.35C418.37,461.44,420.55,465.8,422.48,469.37Z" transform="translate(31.57 -83.8)"/><circle class="cls-5" cx="303.5" cy="399.84" r="6.55"/><circle class="cls-5" cx="382.39" cy="399.84" r="6.55"/><path class="cls-5" d="M316.26,483.64a6.56,6.56,0,1,1-6.55-6.55A6.56,6.56,0,0,1,316.26,483.64Z" transform="translate(31.57 -83.8)"/><path class="cls-32" d="M271.93,483.64v-3.4a13.74,13.74,0,0,1,13.74-13.74h25.78V399.73" transform="translate(31.57 -83.8)"/><path class="cls-32" d="M350.1,483.64v-3.4a13.75,13.75,0,0,0-13.74-13.74H310.57V399.73" transform="translate(31.57 -83.8)"/><line class="cls-32" x1="341.28" y1="399.84" x2="341.28" y2="382.71"/><rect class="cls-5" x="334.3" y="348.97" width="14.54" height="33.16"/><rect class="cls-5" x="336.62" y="316.52" width="9.31" height="37.69"/><circle class="cls-5" cx="554.93" cy="399.84" r="6.55"/><circle class="cls-5" cx="633.82" cy="399.84" r="6.55"/><circle class="cls-5" cx="592.71" cy="399.84" r="6.55"/><path class="cls-32" d="M523.36,483.64v-3.4A13.74,13.74,0,0,1,537.1,466.5h25.78V399.73" transform="translate(31.57 -83.8)"/><path class="cls-32" d="M601.53,483.64v-3.4a13.75,13.75,0,0,0-13.74-13.74H562V399.73" transform="translate(31.57 -83.8)"/><line class="cls-32" x1="592.71" y1="399.84" x2="592.71" y2="382.71"/><rect class="cls-5" x="585.73" y="348.97" width="14.54" height="33.16"/><rect class="cls-5" x="588.05" y="316.52" width="9.31" height="37.69"/><rect class="cls-33" x="197.98" y="249.72" width="450.06" height="71.31"/><rect class="cls-5" x="198.63" y="250.28" width="7.58" height="181.8"/><rect class="cls-5" x="645.55" y="250.28" width="7.57" height="181.8"/><polygon class="cls-34" points="653.09 291.83 197.44 250.18 653.09 250.18 653.09 291.83"/><rect class="cls-12" x="180.45" y="242.71" width="489.34" height="12.12"/></svg>