<svg xmlns="http://www.w3.org/2000/svg" viewBox="0 0 437.1 286.68"><defs><style>.cls-1{fill:#dafffb;}.cls-2,.cls-3,.cls-5,.cls-8{fill:none;stroke-miterlimit:10;}.cls-2{stroke:#c0a0fa;stroke-width:1.46px;}.cls-3{stroke:#faa0a8;}.cls-3,.cls-5{stroke-width:1.65px;}.cls-4{fill:#ffe2e1;}.cls-5{stroke:#ffb4bb;}.cls-6{fill:#ffb4bb;}.cls-7{fill:#efe1ff;}.cls-8{stroke:#ceb4ff;stroke-width:1.57px;}.cls-9{fill:#ceb4ff;}.cls-10{fill:#e3e1ff;}.cls-11{fill:#fff;}.cls-12{fill:#b4b7ff;}.cls-13{fill:#7878bf;}.cls-14{fill:#8787d5;}.cls-15{fill:#a3a3ff;}.cls-16{fill:#96dbbf;}.cls-17{fill:#c8e6eb;}.cls-18{fill:#b4d7dc;}.cls-19{fill:#a5c8cd;}.cls-20{fill:#fa968c;}.cls-21{opacity:0.15;}.cls-22{fill:#73c8f0;}.cls-23{fill:#0073aa;}.cls-24{fill:#195fa0;}.cls-25{fill:#a03c19;}.cls-26{fill:#0091c8;}.cls-27{fill:#cd5014;}.cls-28{fill:#fab9af;}.cls-29{fill:#ff8c46;}.cls-30{fill:#be1ec8;}.cls-31{fill:#415050;}.cls-32{fill:#3c4646;}.cls-33{fill:#55696e;}.cls-34{fill:#50d1dd;}.cls-35{fill:#25bbcc;}.cls-36{fill:#00558c;}</style></defs><title>homesvg</title><g id="Layer_2" data-name="Layer 2"><g id="BACKGROUND"><path class="cls-1" d="M291.12,0c-16.81,0-32.42,3.47-45.33,9.4a49.56,49.56,0,0,1-31.26,3.51C140.93-3,59.34,33.14,59.34,89.18a56,56,0,0,0,4.49,21.87c-23.93,9.84-40.41,30.4-40.41,54.18,0,33.34,32.38,60.36,72.32,60.36,38.46,0,69.9-25.06,72.18-56.68,3.42.2,6.89.3,10.39.3,47,0,87.55-18.29,106.9-44.86A47.12,47.12,0,0,1,314.07,106c33.24-6.64,57.49-27.35,57.49-51.87C371.56,24.23,335.55,0,291.12,0Z"/><line class="cls-2" y1="218.92" x2="90.17" y2="218.92"/><line class="cls-3" x1="433.62" y1="202.55" x2="364.98" y2="202.55"/><path class="cls-4" d="M385.32,55.28c0-9.93-4.28-20.2-11.11-23.82a27.38,27.38,0,0,1-11.84-11.54c-4.65-9.13-10.58-14.61-17-14.61C333.73,5.31,323.83,23,320,47.88a29,29,0,0,1-8.84,16.95C304.36,71,300,81,300,92.28c0,16.6,9.87,31.26,23.31,33.75a26.28,26.28,0,0,1,12.66,6.54c2.92,2.63,6.09,4.07,9.4,4.07,12,0,22.17-18.91,25.73-45.1a29.34,29.34,0,0,1,7.38-15.87C382.61,71.1,385.32,63.67,385.32,55.28Z"/><line class="cls-5" x1="343.37" y1="45.54" x2="343.37" y2="179.31"/><polyline class="cls-5" points="319.62 96 343.37 126.4 356.77 111.2"/><polyline class="cls-5" points="364.98 58.16 343.37 82.33 335.33 76.13"/><path class="cls-6" d="M431.13,106.65a8.85,8.85,0,0,0-4.16-1A9.33,9.33,0,0,1,417.48,97c-1.08-19.57-8.39-36.09-18.13-36.09-7.12,0-13.29,9.17-16.31,22.53a9.15,9.15,0,0,1-10.38,7,10.43,10.43,0,0,0-7.87,1.4c-11.28,7.9.47,39.28,20.17,57.58a9.21,9.21,0,0,1,2.89,8.22c-1.79,10.61-.1,19,5.28,21.8,8.95,4.67,24.71-7.84,35.2-28S440.08,111.32,431.13,106.65Z"/><line class="cls-3" x1="399.37" y1="105.02" x2="399.37" y2="201.93"/><line class="cls-3" x1="420.92" y1="131.48" x2="399.37" y2="166.48"/><line class="cls-3" x1="375.8" y1="107.23" x2="399.37" y2="143.06"/><path class="cls-7" d="M63.07,98.36c0-9.43,4.06-19.18,10.54-22.61a26,26,0,0,0,11.25-11c4.42-8.68,10-13.88,16.17-13.88,11,0,20.41,16.81,24.07,40.41a27.41,27.41,0,0,0,8.39,16.09c6.43,5.9,10.6,15.37,10.6,26.07,0,15.75-9.36,29.67-22.12,32a24.92,24.92,0,0,0-12,6.21,13.36,13.36,0,0,1-8.92,3.86c-11.39,0-21-18-24.43-42.81a27.85,27.85,0,0,0-7-15.06C65.64,113.38,63.07,106.33,63.07,98.36Z"/><line class="cls-8" x1="102.89" y1="89.12" x2="102.89" y2="216.09"/><polyline class="cls-8" points="125.44 137.01 102.89 165.87 90.17 151.44"/><polyline class="cls-8" points="82.38 101.1 102.89 124.04 110.52 118.16"/><path class="cls-9" d="M65.91,135a7.85,7.85,0,0,0-3.67-.87,8.23,8.23,0,0,1-8.37-7.63c-.95-17.27-7.39-31.84-16-31.84-6.28,0-11.73,8.09-14.39,19.88a8.06,8.06,0,0,1-9.16,6.17,9.18,9.18,0,0,0-6.94,1.24c-9.95,7,.42,34.65,17.79,50.79a8.08,8.08,0,0,1,2.55,7.25c-1.57,9.36-.08,16.75,4.66,19.23,7.9,4.12,21.8-6.92,31.05-24.65S73.81,139.06,65.91,135Z"/><line class="cls-2" x1="37.9" y1="133.51" x2="37.9" y2="218.99"/><line class="cls-2" x1="56.91" y1="156.85" x2="37.9" y2="187.72"/><line class="cls-2" x1="17.11" y1="135.45" x2="37.9" y2="167.06"/></g><g id="OBJECTS"><rect class="cls-10" x="245.6" y="113.04" width="130.11" height="151.39" rx="4.3" ry="4.3"/><rect class="cls-11" x="258.13" y="132.3" width="104.69" height="118.87"/><rect class="cls-12" x="258.36" y="119.83" width="7.45" height="5.51" rx="1.12" ry="1.12"/><rect class="cls-12" x="269.16" y="119.83" width="7.45" height="5.51" rx="1.12" ry="1.12"/><rect class="cls-12" x="279.97" y="119.83" width="7.45" height="5.51" rx="1.12" ry="1.12"/><rect class="cls-12" x="295.02" y="120.93" width="67.81" height="2.76"/><path class="cls-12" d="M349.39,196.67v37.77H271.56V196.67h77.83m.88-.89H270.68v39.55h79.59V195.78Z"/><rect class="cls-12" x="290.71" y="140.58" width="58.48" height="6.39"/><rect class="cls-12" x="290.71" y="152.05" width="58.48" height="6.39"/><rect class="cls-12" x="290.71" y="163.51" width="58.48" height="6.39"/><rect class="cls-12" x="290.71" y="174.97" width="58.48" height="6.39"/><path class="cls-12" d="M278.73,147H275a3.19,3.19,0,0,1-3.19-3.19h0a3.19,3.19,0,0,1,3.19-3.2h3.78a3.19,3.19,0,0,1,3.19,3.2h0A3.19,3.19,0,0,1,278.73,147Z"/><path class="cls-12" d="M278.73,158.43H275a3.19,3.19,0,0,1-3.19-3.19h0a3.19,3.19,0,0,1,3.19-3.19h3.78a3.19,3.19,0,0,1,3.19,3.19h0A3.19,3.19,0,0,1,278.73,158.43Z"/><path class="cls-12" d="M278.73,169.89H275a3.19,3.19,0,0,1-3.19-3.19h0a3.19,3.19,0,0,1,3.19-3.19h3.78a3.19,3.19,0,0,1,3.19,3.19h0A3.19,3.19,0,0,1,278.73,169.89Z"/><path class="cls-12" d="M278.73,181.36H275a3.19,3.19,0,0,1-3.19-3.2h0A3.19,3.19,0,0,1,275,175h3.78a3.19,3.19,0,0,1,3.19,3.19h0A3.19,3.19,0,0,1,278.73,181.36Z"/><path class="cls-4" d="M181.05,242.4V162.56a4.29,4.29,0,0,0-4.3-4.29H55.24a4.3,4.3,0,0,0-4.3,4.29V242.4a6.25,6.25,0,0,0,6.26,6.25H174.79A6.25,6.25,0,0,0,181.05,242.4Z"/><rect class="cls-11" x="63.48" y="177.53" width="104.69" height="62.03"/><rect class="cls-6" x="63.71" y="165.06" width="7.45" height="5.51" rx="1.12" ry="1.12"/><rect class="cls-6" x="74.51" y="165.06" width="7.45" height="5.51" rx="1.12" ry="1.12"/><rect class="cls-6" x="85.32" y="165.06" width="7.45" height="5.51" rx="1.12" ry="1.12"/><rect class="cls-6" x="100.37" y="166.17" width="67.81" height="2.76"/><rect class="cls-6" x="96.06" y="185.81" width="58.48" height="6.39"/><rect class="cls-6" x="96.06" y="197.28" width="58.48" height="6.39"/><rect class="cls-6" x="96.06" y="208.74" width="58.48" height="6.39"/><rect class="cls-6" x="96.06" y="220.2" width="58.48" height="6.39"/><path class="cls-6" d="M84.08,192.2H80.3A3.19,3.19,0,0,1,77.11,189h0a3.19,3.19,0,0,1,3.19-3.2h3.78a3.19,3.19,0,0,1,3.19,3.2h0A3.19,3.19,0,0,1,84.08,192.2Z"/><path class="cls-6" d="M84.08,203.66H80.3a3.19,3.19,0,0,1-3.19-3.19h0a3.19,3.19,0,0,1,3.19-3.19h3.78a3.19,3.19,0,0,1,3.19,3.19h0A3.19,3.19,0,0,1,84.08,203.66Z"/><path class="cls-6" d="M84.08,215.12H80.3a3.19,3.19,0,0,1-3.19-3.19h0a3.19,3.19,0,0,1,3.19-3.19h3.78a3.19,3.19,0,0,1,3.19,3.19h0A3.19,3.19,0,0,1,84.08,215.12Z"/><path class="cls-6" d="M84.08,226.59H80.3a3.19,3.19,0,0,1-3.19-3.2h0a3.19,3.19,0,0,1,3.19-3.19h3.78a3.19,3.19,0,0,1,3.19,3.19h0A3.19,3.19,0,0,1,84.08,226.59Z"/><rect class="cls-13" x="156.86" y="45.61" width="136.82" height="218.82" rx="10.19" ry="10.19"/><rect class="cls-14" x="145.3" y="45.61" width="141.05" height="218.82" rx="10.39" ry="10.39"/><rect class="cls-15" x="155.6" y="56.72" width="120.12" height="197.08" rx="7.17" ry="7.17"/><path class="cls-14" d="M188.44,53.82h53.2a0,0,0,0,1,0,0v4.24a6.39,6.39,0,0,1-6.39,6.39H194.83a6.39,6.39,0,0,1-6.39-6.39V53.82a0,0,0,0,1,0,0Z"/><path class="cls-14" d="M142.07,257.13v-10.8h-4.68a20.8,20.8,0,0,0-2.13-5.14l3.31-3.32-7.64-7.63-3.31,3.31a21.15,21.15,0,0,0-5.14-2.14v-4.68H111.67v4.68a21.15,21.15,0,0,0-5.14,2.14l-3.31-3.31-7.64,7.63,3.31,3.32a20.8,20.8,0,0,0-2.13,5.14H92.08v10.8h4.68a21,21,0,0,0,2.13,5.14l-3.31,3.31,7.64,7.64,3.31-3.31a20.73,20.73,0,0,0,5.14,2.13v4.68h10.81V272a20.73,20.73,0,0,0,5.14-2.13l3.31,3.31,7.64-7.64-3.31-3.31a21,21,0,0,0,2.13-5.14Zm-25,6.86a12.26,12.26,0,1,1,12.27-12.26A12.26,12.26,0,0,1,117.07,264Z"/><path class="cls-16" d="M101.61,262.12v-8.05H98.12a15.56,15.56,0,0,0-1.59-3.83L99,247.77l-5.7-5.69-2.46,2.46A15.63,15.63,0,0,0,87,243v-3.48H79V243a15.56,15.56,0,0,0-3.83,1.59l-2.47-2.46L67,247.77l2.47,2.47a15.56,15.56,0,0,0-1.59,3.83H64.35v8.05h3.49A15.56,15.56,0,0,0,69.43,266L67,268.42l5.69,5.69,2.47-2.46A15.56,15.56,0,0,0,79,273.24v3.48h8v-3.48a15.63,15.63,0,0,0,3.84-1.59l2.46,2.46,5.7-5.69L96.53,266a15.56,15.56,0,0,0,1.59-3.83ZM83,267.23a9.14,9.14,0,1,1,9.14-9.14A9.14,9.14,0,0,1,83,267.23Z"/><path class="cls-17" d="M394.85,286.68H147.76a1.66,1.66,0,0,1-1.67-1.66h0a1.67,1.67,0,0,1,1.67-1.67H394.85a1.67,1.67,0,0,1,1.67,1.67h0A1.66,1.66,0,0,1,394.85,286.68Z"/><path class="cls-11" d="M266.37,210.88a3.51,3.51,0,0,1,3.51,3.51V236.8a3.51,3.51,0,0,1-3.51,3.51H165.28a3.51,3.51,0,0,1-3.51-3.51V214.39a3.51,3.51,0,0,1,3.51-3.51H266.37m0-.83H165.28a4.34,4.34,0,0,0-4.34,4.34V236.8a4.34,4.34,0,0,0,4.34,4.34H266.37a4.34,4.34,0,0,0,4.34-4.34V214.39a4.34,4.34,0,0,0-4.34-4.34Z"/><rect class="cls-17" x="231.9" y="231.96" width="68.49" height="43.92"/><polygon class="cls-18" points="266.15 253.91 231.9 275.87 300.39 275.87 266.15 253.91"/><polygon class="cls-19" points="300.39 231.96 231.9 231.96 266.15 263.05 300.39 231.96"/><path class="cls-20" d="M256.07,205.46a1.41,1.41,0,0,1,1.93-2.05c15.05,11.5,28.35,15.1,38.12-1.45a34.71,34.71,0,0,0,2.69-5.6,5,5,0,1,1,9.36,3.18C302.32,213.88,282.11,233.82,256.07,205.46Z"/><rect class="cls-21" x="111.47" y="106.52" width="109.77" height="31.09" rx="4.34" ry="4.34"/><rect class="cls-11" x="111.47" y="104.86" width="109.77" height="31.09" rx="4.34" ry="4.34"/><path class="cls-11" d="M266.37,76.94a3.52,3.52,0,0,1,3.51,3.51v22.41a3.52,3.52,0,0,1-3.51,3.52H165.28a3.52,3.52,0,0,1-3.51-3.52V80.45a3.51,3.51,0,0,1,3.51-3.51H266.37m0-.83H165.28a4.34,4.34,0,0,0-4.34,4.34v22.41a4.34,4.34,0,0,0,4.34,4.34H266.37a4.34,4.34,0,0,0,4.34-4.34V80.45a4.35,4.35,0,0,0-4.34-4.34Z"/><path class="cls-11" d="M266.37,121.59a3.51,3.51,0,0,1,3.51,3.51v22.41a3.52,3.52,0,0,1-3.51,3.51H165.28a3.51,3.51,0,0,1-3.51-3.51V125.1a3.51,3.51,0,0,1,3.51-3.51H266.37m0-.83H165.28a4.34,4.34,0,0,0-4.34,4.34v22.41a4.34,4.34,0,0,0,4.34,4.34H266.37a4.35,4.35,0,0,0,4.34-4.34V125.1a4.34,4.34,0,0,0-4.34-4.34Z"/><path class="cls-11" d="M266.37,167.06a3.51,3.51,0,0,1,3.51,3.51V193a3.51,3.51,0,0,1-3.51,3.51H165.28a3.51,3.51,0,0,1-3.51-3.51V170.57a3.51,3.51,0,0,1,3.51-3.51H266.37m0-.83H165.28a4.34,4.34,0,0,0-4.34,4.34V193a4.34,4.34,0,0,0,4.34,4.34H266.37a4.34,4.34,0,0,0,4.34-4.34V170.57a4.34,4.34,0,0,0-4.34-4.34Z"/><rect class="cls-22" x="118.71" y="110.65" width="17.03" height="19.53" rx="1.76" ry="1.76"/><rect class="cls-22" x="143.12" y="110.65" width="44.73" height="2.39"/><rect class="cls-22" x="143.12" y="118.86" width="68.8" height="2.39"/><rect class="cls-22" x="143.12" y="127.08" width="68.8" height="2.39"/><rect class="cls-21" x="174.76" y="206.68" width="109.77" height="31.09" rx="4.34" ry="4.34"/><rect class="cls-11" x="174.76" y="205.03" width="109.77" height="31.09" rx="4.34" ry="4.34"/><rect class="cls-16" x="182" y="208.33" width="17.04" height="19.53" rx="1.76" ry="1.76"/><rect class="cls-16" x="219.4" y="210.81" width="44.73" height="2.39"/><rect class="cls-16" x="207.36" y="219.03" width="68.8" height="2.39"/><rect class="cls-16" x="207.36" y="227.25" width="68.8" height="2.39"/><path class="cls-20" d="M148.62,237.25c.17,3.23,2.14,21.08,3.52,32.57.69,5.82.79,10,1.33,9.85,1.38-.39,5.7-38.1,5.44-43s-2.77-8.7-5.62-8.54S148.36,232.38,148.62,237.25Z"/><path class="cls-23" d="M155.7,270.5c-.5,0-3.38.37-3.91.48-1.72-11.55-3.77-30.89-3.59-34.28,0-.37.05-.73.1-1.08a41.36,41.36,0,0,0-.46-14.51c-2.51-10.82-4.45-22.55-4.66-25.76-.42-6.36,3.25-11.78,8.19-12.1s9,4.06,9.8,10.39C163.08,208.9,155.73,270.24,155.7,270.5Z"/><path class="cls-24" d="M160.49,221.52l0,0c.86-11.85,1.31-22.63.65-27.9-.79-6.33-4.86-10.71-9.8-10.39s-8.61,5.74-8.19,12.1c0,.77.2,2,.44,3.67a23.13,23.13,0,0,1,14,17.59A8.31,8.31,0,0,0,160.49,221.52Z"/><path class="cls-20" d="M151.74,270.54s.29,8.3-.39,9.88-.85,3.37,1.32,3.36,7.24,0,8,0c1.37-.05,2.58-.2,2.55-1.11s-6.34-1.18-7.55-2.1-.32-9.55-.32-9.55Z"/><path class="cls-25" d="M160,281.61a11.14,11.14,0,0,1-3.82.69,11.4,11.4,0,0,1-5.11-1.24c-.44,1.39-.31,2.73,1.56,2.72,2.13,0,7.24,0,8,0,1.37-.05,2.58-.2,2.55-1.11C163.18,282.19,161.7,281.9,160,281.61Z"/><path class="cls-20" d="M159.69,238.39c.17,3.23,2.14,21.08,3.52,32.58.69,5.81.79,10,1.33,9.85,1.38-.4,5.71-38.11,5.45-43s-2.78-8.69-5.62-8.54S159.43,233.52,159.69,238.39Z"/><path class="cls-26" d="M166.77,271.64c-.49,0-3.38.37-3.91.48-1.72-11.55-3.77-30.88-3.59-34.28,0-.36.06-.72.1-1.08a41.36,41.36,0,0,0-.46-14.51c-2.51-10.81-4.45-22.55-4.66-25.75-.42-6.36,3.25-11.78,8.19-12.11s9,4.07,9.8,10.39C174.15,210.05,166.8,271.39,166.77,271.64Z"/><path class="cls-20" d="M162.81,271.68s.29,8.3-.39,9.88-.93,3.46,1.33,3.36,6.24-.23,7-.3c1.83-.2,4-.13,3.92-1s-6.73-1-7.94-1.9-.31-9.56-.31-9.56Z"/><path class="cls-27" d="M170.53,282.55a11.12,11.12,0,0,1-8.37-.29c-.44,1.38-.35,2.74,1.59,2.66,2.12-.09,6.24-.23,7-.3,1.83-.2,4-.13,3.92-1C174.64,283.08,172.57,282.83,170.53,282.55Z"/><path class="cls-28" d="M161,143.25c-1.47,0-3.07-.74-5.26-2.65a6.71,6.71,0,0,1-2.2-4.32V129.1h11a20.48,20.48,0,0,1,0,7.59C164,139.53,162.11,143.25,161,143.25Z"/><path class="cls-28" d="M122.2,141.43a1.33,1.33,0,0,1,2.61-.44v0a99.49,99.49,0,0,0,3.89,12.44c3.23,8.21,6,9.38,7.14,10.11a4.78,4.78,0,0,0,.83.2c3.13.72,8.61-6.12,9.56-11.41a14.62,14.62,0,0,1,.61-1.91,4.45,4.45,0,0,1,5.67-2.74C166.61,152.61,127.19,201.56,122.2,141.43Z"/><path class="cls-28" d="M145.76,192.35c4,4.63,27.35,6.56,27.35,6.56,1.72-2-6.3-24.78-6.3-24.78s3.86-16.45,3.69-22.39a4.53,4.53,0,0,0-4.53-4.4H151.18a4.38,4.38,0,0,0-4.37,4c-.38,4.71,5.76,22.26,5.76,22.26S142.27,188.34,145.76,192.35Z"/><path class="cls-29" d="M166.81,174.13s3.85-16.93,3.68-22.77a4.14,4.14,0,0,0-4.14-4h-2.2a5.89,5.89,0,0,1-10.71,0h-2.06c2.24,4.79,1.44,11.12-2.41,14.8,1.63,5.78,3.6,11.47,3.6,11.47S141.7,190,143.28,192.47c3.35,5.15,29.83,6.44,29.83,6.44C174.83,196.4,166.81,174.13,166.81,174.13Z"/><polygon class="cls-28" points="156.4 148.36 163.11 147.66 160.99 140.31 156.65 140.85 156.4 148.36"/><path class="cls-20" d="M156.65,140.85l4.34-.54.66,2.3c-1,1.09-2.22,3.46-3.8,3.46a2.52,2.52,0,0,1-1.37-.4Z"/><path class="cls-30" d="M155.36,125.65l3.73-.24a6.06,6.06,0,0,0,2.95-1,3,3,0,0,1,3.91.47c1.05,1.25,1.58,3-.77,4.77-1.17.89-3,.11-4.17.57a1.61,1.61,0,0,0-.22,0l-3.3.21a2.12,2.12,0,0,0-1.89,2.25,4.19,4.19,0,0,1-.49,1.6l-1.54-1.91-1.45-1.17a1.41,1.41,0,0,1-.53-1l0-.23A4.06,4.06,0,0,1,155.36,125.65Z"/><path class="cls-28" d="M196.77,135.55s-1.81,3.44-.94,4.34,1.62,1.35,3,.13a13,13,0,0,0,3.13-5.07,10,10,0,0,0,0-4.77c-.85-1.07-1.45,1.82-1.81,3.2s-.9,2.91-1.52,2.55.27-3-.3-3.61S196.77,135.55,196.77,135.55Z"/><path class="cls-28" d="M123.37,135.62s1.72,3.49.82,4.37-1.65,1.3-3,0a13.16,13.16,0,0,1-3-5.15,10.19,10.19,0,0,1,.14-4.77c.89-1.05,1.41,1.85,1.73,3.24s.82,2.94,1.44,2.59-.18-3,.4-3.59S123.37,135.62,123.37,135.62Z"/><path class="cls-28" d="M177.47,160.84c3.91,4.47,6.9,2.12,10.31-2.81,1.44-2.45,3.22-4.51,8-18h0a1.33,1.33,0,0,1,2.58.59c-4.71,41.08-27,34.62-33.66,16.22a14.2,14.2,0,0,1-.95-4.81,4.64,4.64,0,1,1,9.27-.19C173.08,153.56,174.77,157.85,177.47,160.84Z"/><path class="cls-30" d="M171.36,153.22a5.05,5.05,0,0,1-1.89-4.39c.21-3.55-1.92-6.7-4.64-9.21a8.06,8.06,0,0,1-2.5-6.85l.38-3.3H151.57a8.61,8.61,0,0,1-3.48,7,17,17,0,0,0-5.81,7.64c-3,7.84-.08,16.33,6.6,19.42-1.76,7.42,1.52,14.89,8,17.42,7.19,2.78,15.57-1.54,18.72-9.66C178.28,164.39,176.35,157,171.36,153.22Z"/><path class="cls-31" d="M308.79,270.63a3.09,3.09,0,0,1-2.51-4.32c3.51-8,6.35-16.8,7-20.13a12.32,12.32,0,0,0-9.61-14.53c-6.58-1.23-8.72,3.46-10,10.25-1,5.29-3.63,25.46-1.65,34.73,0,.1,1.52,7.53,9,7.53,5,0,48.5-1.57,48.57-5.48C349.6,275.6,322.66,272,308.79,270.63Z"/><path class="cls-32" d="M307.69,263a112.31,112.31,0,0,0,5.56-16.8,12.32,12.32,0,0,0-9.61-14.53c-6.58-1.23-8.72,3.46-10,10.25,0,.17-.06.36-.1.56C305.12,249.42,306.57,261.38,307.69,263Z"/><path class="cls-28" d="M385.94,281.23a25.1,25.1,0,0,0-8.42-3.51.5.5,0,0,0-.41.07,10.17,10.17,0,0,0-1,.72.58.58,0,0,1-.25.12c-4.08.71-8.73.25-13.52-.57a.53.53,0,0,0-.53.82l2.75,4.12a.51.51,0,0,0,.43.24c1.52,0,8.9.11,13.26.32,3.49.16,6.53.13,9.05,0a.53.53,0,0,0,.35-.91A10.94,10.94,0,0,0,385.94,281.23Z"/><path class="cls-31" d="M385.24,279.26,381,277c-1.85-1-4.54,1.24-4.93,1.58l.28,0a11.71,11.71,0,0,1,9.3,4.72,1.28,1.28,0,0,0,1,.51c3.86.17,6.65.23,8.16.24a.86.86,0,0,0,.54-1.55C393.05,280.84,386.7,280.14,385.24,279.26Z"/><path class="cls-33" d="M329,270.42a4.3,4.3,0,0,1-3.87-4.68c.87-9.36.71-19.63.12-23.11a12.31,12.31,0,0,0-14-10.32c-6.59,1.11-7,6.25-5.83,13.06.89,5.27,4.78,25.78,9.55,34.29a1.09,1.09,0,0,1,.08.15c1.38,2.41,2.82,3.82,4.29,3.57h0c1.2.47,47.5-.11,47.5-.11s.13-3.51.33-4.76C358.16,274.62,338.9,271.36,329,270.42Z"/><path class="cls-34" d="M292.35,205c1.21-1.6,5.89-7.86,6.64-9.46l0-.08c.06-.13.13-.26.2-.38a4.94,4.94,0,0,1,8.53,5,62.31,62.31,0,0,1-3.93,5.9c-.95,1.25-2,2.45-3,3.63C300.15,208.79,292.34,205,292.35,205Z"/><path class="cls-28" d="M314.12,218.66l3.08.6a5.83,5.83,0,0,0,7-5.73c0-6.07.07-11.6.13-15.29a4.82,4.82,0,0,0-4.61-4.89L304,192.64a4.66,4.66,0,0,0-4.84,4.06c-.42,3.3-.62,8.31-1,13.79a5.82,5.82,0,0,0,4.64,6.16C306.5,217.41,310.34,217.92,314.12,218.66Z"/><path class="cls-35" d="M303.8,192.63l2.55.12a6.28,6.28,0,0,0,11.4.51l2.33.11a4.4,4.4,0,0,1,4.22,4.47c-.1,6.22-.24,18.21,0,29.07.21,9.83,3.53,18.21,1.58,20.8,0,0-26.24,1.55-32.73-5.41,1.27-6.49,2-14.84,3.14-23.46s2.22-17.33,2.86-22.29A4.5,4.5,0,0,1,303.8,192.63Z"/><path class="cls-36" d="M315.9,178.22h.3a0,0,0,0,1,0,0v10.34a0,0,0,0,1,0,0h-4.47a0,0,0,0,1,0,0v-6.16A4.17,4.17,0,0,1,315.9,178.22Z" transform="translate(603.57 403.24) rotate(-173.08)"/><path class="cls-28" d="M310.27,194.64l5.89-1.25-4.41-7.87-5.2,2.23,1.39,5.44A2,2,0,0,0,310.27,194.64Z"/><path class="cls-20" d="M306.55,187.75l5.2-2.23,1.77,3.16c-.81,1.71-1.8,3.61-3.76,4.18a3.52,3.52,0,0,1-1.93-.05Z"/><path class="cls-28" d="M306.9,191.25h0a6.85,6.85,0,0,0,7.63-6l.92-7.59-11.68-1.41a59.35,59.35,0,0,0-.35,10C303.69,189.36,305,191,306.9,191.25Z"/><rect class="cls-36" x="313.46" y="180.53" width="2.21" height="1" transform="translate(605.03 398.65) rotate(-173.08)"/><path class="cls-28" d="M312.73,183.6c-.18,1.48.38,2.76,1.25,2.87s2.08-1.72,2.26-3.2a1.75,1.75,0,0,0-1.61-2.16C313.76,181,312.9,182.12,312.73,183.6Z"/><path class="cls-36" d="M302.58,179.29a6.75,6.75,0,0,1,.19-2.93s.36-3.39,1.77-3.88,3.25.57,4.53,1A23.76,23.76,0,0,0,313,174a4.32,4.32,0,0,1,3.77,4.81l-.11.92-2.16,1.55-.77,1.71-.15,0a1.42,1.42,0,0,1-1.26-1.49,2.26,2.26,0,0,0-1.87-2.51l-3.5-.42c-2.13-.26-3.37.75-3.57,2.34l-.05,1.36Z"/><path class="cls-28" d="M326.08,199.27c-3,19-22.64,40.25-56.5,38.32a1.41,1.41,0,0,1-1.34-1.49,1.43,1.43,0,0,1,1.23-1.33c22.93-3.08,42.31-14.34,46.84-36.91a4.94,4.94,0,1,1,9.77,1.41Z"/><path class="cls-34" d="M312.94,206.79a50.72,50.72,0,0,0,3-8.14s.22-.71.28-1a7.87,7.87,0,0,1,1.53-3.14s2.15-2.32,6.28-.37c3.29,1.56,2.43,5.49,2.43,5.49-.11.55.31,4.75-4.9,12.59C321.59,212.27,312.63,207.48,312.94,206.79Z"/><path class="cls-28" d="M266,233.9s4.14-.18,4.61,1.06.57,2.17-1.22,2.93a14,14,0,0,1-6.31.72,10.75,10.75,0,0,1-4.59-2.17c-.65-1.31,2.4-.58,3.9-.3s3.21.45,3.15-.3-3-1.09-3.34-1.93S266,233.9,266,233.9Z"/><path class="cls-20" d="M253.44,207s4.12-.41,4.41-1.71.25-2.23-1.63-2.72a14,14,0,0,0-6.35.19,11.78,11.78,0,0,0-3.78,2.3h4.22c1.73,0,2.36-.53,2.39.09s-2.78,1.5-3,2.39S253.44,207,253.44,207Z"/></g></g></svg>