<svg id="Layer_1" data-name="Layer 1" xmlns="http://www.w3.org/2000/svg" viewBox="0 0 88.74 88.74"><defs><style>.cls-1{fill:#00c0cd;}</style></defs><title>icon1</title><path class="cls-1" d="M987.24,531.32V509.61a4.25,4.25,0,0,0-.47-8.47H967.88a4.25,4.25,0,0,0-.47,8.47v21.71a27.37,27.37,0,0,0-11.06,7.93,1.41,1.41,0,0,0,.17,2,1.44,1.44,0,0,0,.91.33,1.41,1.41,0,0,0,1.09-.51,24.59,24.59,0,0,1,10.77-7.43,1.4,1.4,0,0,0,1-1.33V509.64h8a1.42,1.42,0,0,0,0-2.83H967.88a1.42,1.42,0,0,1,0-2.83h18.89a1.42,1.42,0,0,1,0,2.83h-2.84a1.42,1.42,0,0,0,0,2.83h.48v22.67a1.4,1.4,0,0,0,1,1.33,24.55,24.55,0,1,1-17.27,46,1.41,1.41,0,1,0-1.06,2.62,27.38,27.38,0,1,0,20.21-50.89Zm0,0" transform="translate(-915.96 -495.48)"/><path class="cls-1" d="M989.29,561.82a1.42,1.42,0,1,1-1.41-1.41,1.42,1.42,0,0,1,1.41,1.41Zm0,0" transform="translate(-915.96 -495.48)"/><path class="cls-1" d="M983.63,567.49a1.42,1.42,0,1,1-1.42-1.42,1.41,1.41,0,0,1,1.42,1.42Zm0,0" transform="translate(-915.96 -495.48)"/><path class="cls-1" d="M969.33,574a1.41,1.41,0,1,0-1.2,2.56,21.42,21.42,0,0,0,9.19,2A21.71,21.71,0,0,0,996.13,546a1.42,1.42,0,0,0-1.42-.7l-.52.07-.19,0a11,11,0,0,0-4.22,2.28,4.78,4.78,0,0,1-3.66,1.37,4.67,4.67,0,0,1-3.48-1.54,7.45,7.45,0,0,0-10.63,0,4.67,4.67,0,0,1-3.48,1.54,4.78,4.78,0,0,1-3.66-1.37,11,11,0,0,0-4.22-2.28l-.2,0-.51-.07a1.43,1.43,0,0,0-1.42.69l0,.07A1.41,1.41,0,0,0,959,548a1.4,1.4,0,0,0,.93.17h0a8.22,8.22,0,0,1,3.14,1.74,7.89,7.89,0,0,0,10.75-.23,4.67,4.67,0,0,1,6.95,0,7.89,7.89,0,0,0,10.75.23,8.36,8.36,0,0,1,2.63-1.57,18.88,18.88,0,0,1-16.86,27.4,18.64,18.64,0,0,1-8-1.77Zm0,0" transform="translate(-915.96 -495.48)"/><path class="cls-1" d="M950.14,532.07V504a4.25,4.25,0,0,0-.48-8.47H930.78a4.25,4.25,0,0,0-.47,8.47v22.69a1.42,1.42,0,1,0,2.83,0V504h8a1.42,1.42,0,0,0,0-2.84H930.78a1.42,1.42,0,0,1,0-2.83h18.88a1.42,1.42,0,1,1,0,2.83h-2.83a1.42,1.42,0,0,0,0,2.84h.47v28.33a1.48,1.48,0,0,0,.08.46l13.76,39.79a6.17,6.17,0,0,1-6.28,8.83H925.59a6.18,6.18,0,0,1-6.29-8.83l13.77-39.79a1.42,1.42,0,0,0-2.68-.93l-13.76,39.79a9,9,0,0,0,9,12.59h29.27a9,9,0,0,0,9-12.59Zm0,0" transform="translate(-915.96 -495.48)"/><path class="cls-1" d="M928.16,561.33a1.41,1.41,0,0,0-2.2.66l-4,11.5a3.41,3.41,0,0,0,3.61,5.07h29.27a3.41,3.41,0,0,0,3.61-5.07l-4-11.5a1.44,1.44,0,0,0-.93-.9,1.41,1.41,0,0,0-1.27.24,4.57,4.57,0,0,1-3.28,1.06,4.68,4.68,0,0,1-3.47-1.55,7.45,7.45,0,0,0-10.63,0,4.68,4.68,0,0,1-3.48,1.55,4.56,4.56,0,0,1-3.27-1.06Zm8.59,1.66a4.67,4.67,0,0,1,7,0,7.43,7.43,0,0,0,5.31,2.23,8,8,0,0,0,3.38-.64l3.4,9.83a.8.8,0,1,1-.93,1.31H925.59a.8.8,0,1,1-.93-1.31l3.4-9.83a7.9,7.9,0,0,0,3.37.64,7.45,7.45,0,0,0,5.32-2.23Zm0,0" transform="translate(-915.96 -495.48)"/></svg>