<svg id="Layer_1" data-name="Layer 1" xmlns="http://www.w3.org/2000/svg" viewBox="0 0 88.74 79.1"><defs><style>.cls-1{fill:#fe7d00;}</style></defs><title>icon2</title><path class="cls-1" d="M990.41,527.83c-1.67-.65-3.45-1.23-5.32-1.75.48-1.89.87-3.72,1.14-5.49,1.46-9.21-.15-15.67-4.51-18.19a8.59,8.59,0,0,0-4.34-1.1c-5.07,0-11.49,3.77-18,10.14-1.41-1.39-2.83-2.67-4.24-3.81-7.25-5.86-13.64-7.7-18-5.18-2.8,1.62-4.51,4.92-4.93,9.56a1.42,1.42,0,1,0,2.82.26c.23-2.57,1-5.93,3.53-7.37,3.23-1.86,8.63-.07,14.81,4.93,1.34,1.09,2.7,2.31,4.05,3.63a91.08,91.08,0,0,0-8,9.88,92.38,92.38,0,0,0-12.89,2.07,51.48,51.48,0,0,1-1.42-7.71,1.41,1.41,0,0,0-1.55-1.27,1.43,1.43,0,0,0-1.27,1.55,53.88,53.88,0,0,0,1.5,8.14c-1.81.52-3.54,1.08-5.16,1.71-8.7,3.34-13.49,8-13.49,13s4.79,9.66,13.49,13a55.51,55.51,0,0,0,5.33,1.75c-.48,1.89-.87,3.72-1.15,5.49-1.45,9.21.15,15.66,4.52,18.18a8.46,8.46,0,0,0,4.33,1.11c5,0,11.34-3.69,17.74-9.92q2.05,2,4.11,3.68c5.13,4.15,9.83,6.28,13.69,6.28a8.49,8.49,0,0,0,4.32-1.1c4.36-2.52,6-9,4.52-18.18-.28-1.77-.67-3.61-1.15-5.49a55.23,55.23,0,0,0,8-2.83,1.42,1.42,0,0,0-1.17-2.58,51.21,51.21,0,0,1-7.56,2.68A90.48,90.48,0,0,0,979.62,541a90.72,90.72,0,0,0,4.71-12.26c10.51,3,16.74,7.59,16.74,12.05,0,2.88-2.51,5.25-4.62,6.74a1.42,1.42,0,1,0,1.64,2.31c3.8-2.68,5.81-5.81,5.81-9,0-5-4.79-9.66-13.49-13Zm-13-23.7a5.75,5.75,0,0,1,2.92.73c3.23,1.86,4.37,7.44,3.14,15.29-.27,1.68-.64,3.43-1.1,5.22a91.72,91.72,0,0,0-12.94-2,90.61,90.61,0,0,0-8-9.86l1.51-1.44c5.52-5.08,10.66-7.89,14.47-7.89Zm-18,11.36a85.61,85.61,0,0,1,6.29,7.57c-2-.11-4.1-.17-6.19-.17s-4.29.06-6.39.18a87.57,87.57,0,0,1,6.29-7.58Zm0,50.91a84.46,84.46,0,0,1-6.51-7.83q3.26.2,6.62.2c2.16,0,4.3-.07,6.4-.19a85.63,85.63,0,0,1-6.51,7.82Zm.11-10.47c-3,0-6-.11-8.74-.33-1.56-2.28-3.08-4.68-4.52-7.17s-2.71-4.93-3.9-7.4c1.23-2.58,2.59-5.17,4.08-7.75s3-4.92,4.57-7.23q4.07-.31,8.51-.32t8.31.3c1.59,2.32,3.13,4.75,4.6,7.29s2.84,5.15,4.06,7.72c-1.18,2.44-2.48,4.9-3.89,7.34s-3,4.91-4.55,7.22c-2.78.22-5.63.33-8.53.33Zm-12.39-.69a83.05,83.05,0,0,1-9.66-1.66,85.19,85.19,0,0,1,3.38-9.21c.93,1.83,1.91,3.66,3,5.47s2.18,3.66,3.32,5.4Zm.23-28.85q-1.74,2.64-3.37,5.47t-3.15,5.84a87.68,87.68,0,0,1-3.55-9.58,84.1,84.1,0,0,1,10.07-1.73ZM918,540.83c0-4.43,6.16-9.05,16.56-12A92.37,92.37,0,0,0,939.25,541a89.61,89.61,0,0,0-4.52,11.84c-10.51-3-16.73-7.59-16.73-12Zm23.68,36.7a5.8,5.8,0,0,1-2.92-.73c-3.23-1.86-4.37-7.44-3.13-15.29.26-1.68.63-3.43,1.09-5.22a90.75,90.75,0,0,0,12.5,2,90.77,90.77,0,0,0,8.21,10.13c-.42.42-.85.82-1.27,1.22-5.53,5.08-10.67,7.89-14.48,7.89Zm41.58-16c1.24,7.85.09,13.42-3.14,15.29s-8.62.06-14.81-4.93c-1.3-1.06-2.6-2.22-3.9-3.5a91.78,91.78,0,0,0,8.22-10.11,92.79,92.79,0,0,0,12.53-2c.47,1.8.83,3.55,1.1,5.24Zm-1.86-8a87.6,87.6,0,0,1-9.69,1.65q1.72-2.62,3.36-5.45t2.94-5.43a84.82,84.82,0,0,1,3.39,9.23ZM978,537.71c-1-1.94-2-3.88-3.13-5.81s-2.24-3.75-3.41-5.54a85.24,85.24,0,0,1,10.11,1.72,87.85,87.85,0,0,1-3.57,9.63Zm0,0" transform="translate(-915.16 -501.3)"/><path class="cls-1" d="M959.53,533.75a7.08,7.08,0,1,0,7.08,7.08,7.09,7.09,0,0,0-7.08-7.08Zm0,11.33a4.25,4.25,0,1,1,4.25-4.25,4.26,4.26,0,0,1-4.25,4.25Zm0,0" transform="translate(-915.16 -501.3)"/></svg>