<svg id="Layer_1" data-name="Layer 1" xmlns="http://www.w3.org/2000/svg" viewBox="0 0 88.74 88.74"><defs><style>.cls-1{fill:#43a43d;}</style></defs><title>icon3</title><path class="cls-1" d="M1200,458.74l-7.2-17.38a1.41,1.41,0,0,0-1.85-.77l-23.85,9.88a1.41,1.41,0,0,0-.77,1.85l.19.45-38.93,16.13a1.38,1.38,0,0,0-.76.76,1.35,1.35,0,0,0,0,1.08l.19.46-14.78,6.12a1.42,1.42,0,0,0-.76,1.85l4.28,10.34a1.44,1.44,0,0,0,1.31.87,1.27,1.27,0,0,0,.54-.11l14.77-6.12.19.46a1.42,1.42,0,0,0,1.31.87,1.31,1.31,0,0,0,.54-.11l35-14.49a1.42,1.42,0,0,0-1.09-2.62l-33.69,14L1130,471l37.61-15.58,5.93,14.32a1.44,1.44,0,0,0,1.31.87,1.45,1.45,0,0,0,.54-.11l5.23-2.16,18.62-7.72a1.4,1.4,0,0,0,.77-.76,1.38,1.38,0,0,0,0-1.09Zm-68.7,22.8-13.46,5.58-3.2-7.73,13.46-5.57Zm44.31-14.23L1169.72,453l-.19-.46,2.61-1.08,6.12,14.77Zm5.23-2.16-6.12-14.77,16-6.63,6.11,14.77Zm0,0" transform="translate(-1111.41 -440.48)"/><path class="cls-1" d="M1164.74,500.93h0a1.42,1.42,0,1,0,0-2.83H1164l-1.28-4.63a1.42,1.42,0,0,0-1.37-1h-4.1V482.09l4.64-1.93a1.41,1.41,0,1,0-1.08-2.61l-5.52,2.28h0l-5.5,2.28a1.42,1.42,0,0,0,.54,2.73,1.49,1.49,0,0,0,.54-.11l3.56-1.48v9.18h-4.1a1.42,1.42,0,0,0-1.37,1l-1.28,4.63h-.82a1.42,1.42,0,0,0,0,2.83h0l-7.37,26.49a1.42,1.42,0,1,0,2.73.76l7.58-27.25h4.6V527.8a1.42,1.42,0,0,0,2.84,0V500.93h4.6l7.58,27.25a1.41,1.41,0,0,0,1.36,1,1.65,1.65,0,0,0,.38-.05,1.43,1.43,0,0,0,1-1.75Zm-14.19-2.83.78-2.83h8.9l.78,2.83Zm0,0" transform="translate(-1111.41 -440.48)"/></svg>