<svg id="Layer_1" data-name="Layer 1" xmlns="http://www.w3.org/2000/svg" viewBox="0 0 206 206"><defs><style>.cls-1{fill:#00c0cd;}</style></defs><title>servicesicons</title><path class="cls-1" d="M139,37.93,119.36,8.32a3.84,3.84,0,0,0-6.53,0L93.21,37.93a4.57,4.57,0,0,0-.76,2.55V183.06c0,9,6.75,16.37,15,16.37h17.18c8.3,0,15-7.34,15-16.37V40.48a4.64,4.64,0,0,0-.75-2.55ZM116.09,18.36l12.23,18.45H103.86Zm-15.6,27.19H119.6V158.8h-7V75.29a4,4,0,1,0-8,0V158.8h-4.05Zm31.2,137.51c0,4.2-3.15,7.62-7,7.62H107.5c-3.86,0-7-3.42-7-7.62V167.54h31.2Zm0-24.26h-4V45.55h4Zm0,0"/><path class="cls-1" d="M112.5,56.87a4.19,4.19,0,0,0-.23-.82,4.35,4.35,0,0,0-.37-.75,4,4,0,0,0-.49-.66,5.41,5.41,0,0,0-.62-.55,3.14,3.14,0,0,0-.69-.39,3.41,3.41,0,0,0-.76-.26,3.78,3.78,0,0,0-1.57,0,3.71,3.71,0,0,0-.75.26,3.14,3.14,0,0,0-.69.39,4.59,4.59,0,0,0-.61.55,4.14,4.14,0,0,0-.51.66,5.22,5.22,0,0,0-.37.75,6.28,6.28,0,0,0-.23.82,5.07,5.07,0,0,0-.07.86,4.59,4.59,0,0,0,1.18,3.09,3.88,3.88,0,0,0,2.84,1.28,4,4,0,0,0,.78-.08,4.83,4.83,0,0,0,.76-.25,3.69,3.69,0,0,0,.69-.41,3.94,3.94,0,0,0,.62-.54,4,4,0,0,0,.49-.66,4.11,4.11,0,0,0,.37-.76,3.84,3.84,0,0,0,.23-.82,4.08,4.08,0,0,0,.08-.85,4.24,4.24,0,0,0-.08-.86Zm0,0"/><path class="cls-1" d="M39.13,88.39v-.67a6,6,0,0,1,5.75-6.25h.17l12.26-.57c7.16-.05,13-6.4,13-14.19s-5.85-14.18-13-14.18H29.83a5.25,5.25,0,0,1-5-5.45,5.6,5.6,0,0,1,1.49-3.84,4.62,4.62,0,0,1,3.38-1.52h24.1c8.94,0,16.21-7.9,16.21-17.61S62.73,6.5,53.79,6.5H26.54a4.22,4.22,0,0,0-4,4.37,4.21,4.21,0,0,0,4,4.37H53.79c4.5,0,8.16,4,8.16,8.87S58.29,33,53.79,33H29.86a12.3,12.3,0,0,0-9.2,4,14.68,14.68,0,0,0-3.88,10.07c0,7.83,5.86,14.19,13,14.19H57.22a5.46,5.46,0,0,1,0,10.89h-.17l-12.26.57c-7.56,0-13.7,6.75-13.7,15v.66C13.61,90.57,0,106.73,0,126.3v35c0,21,15.75,38.16,35.12,38.16s35.12-17.12,35.12-38.16v-35c0-19.57-13.63-35.74-31.11-37.91ZM8.05,126.3c0-14.74,10-27,23.05-29.1v35.66h-23Zm54.14,35c0,16.22-12.14,29.42-27.07,29.42S8.05,177.56,8.05,161.34V141.61H62.19Zm0-28.48h-23V97.2c13,2.12,23,14.36,23,29.1Zm0,0"/><path class="cls-1" d="M15,10a4.76,4.76,0,0,0-.23-.82,4,4,0,0,0-.37-.75,3.65,3.65,0,0,0-.5-.67,3.8,3.8,0,0,0-5.69,0,4.87,4.87,0,0,0-.5.67,4.71,4.71,0,0,0-.36.75A4.8,4.8,0,0,0,7.1,10a5.26,5.26,0,0,0,0,1.71,4.42,4.42,0,0,0,.23.81,4.86,4.86,0,0,0,.37.76,4.76,4.76,0,0,0,.5.66,3.94,3.94,0,0,0,.61.55,4.86,4.86,0,0,0,.7.4,4.13,4.13,0,0,0,.75.25,4.23,4.23,0,0,0,.79.08A3.84,3.84,0,0,0,13.89,14a3.58,3.58,0,0,0,.5-.66,4.11,4.11,0,0,0,.37-.76,4.42,4.42,0,0,0,.23-.81A4.61,4.61,0,0,0,15,10Zm0,0"/><path class="cls-1" d="M206,50.13c-.44-10.32-5.23-15.43-9.07-19.53-4.16-4.44-6.67-7.12-4.3-15.9,1.08-4-.4-6.06-1.38-7-1.21-1.11-3.39-2-6.82-.19C180,10,173.19,17,168,24.67c-4.8,7.06-10.42,17.63-10,27.9a29.77,29.77,0,0,0,8.22,19.67,22.45,22.45,0,0,0-3.85,12.67A23,23,0,0,0,164,93.39v85.44c0,10.4,7.79,18.86,17.35,18.86s17.36-8.46,17.36-18.86V96.21a22.7,22.7,0,0,0,3-11.3,22.43,22.43,0,0,0-3.77-12.54A29.75,29.75,0,0,0,206,50.13Zm-15.36,128.7c0,5.58-4.17,10.11-9.31,10.11s-9.3-4.53-9.3-10.11V103.29a18.43,18.43,0,0,0,7,2.69,3.14,3.14,0,0,0,.61,0h4.8a3.24,3.24,0,0,0,.62,0l.79-.15.5-.12.21,0a18.21,18.21,0,0,0,4.11-1.58ZM187.42,96l0,0-.35.19-.17.09-.27.13-.26.12-.21.09-.32.13-.17.06-.37.13-.15,0-.4.11-.12,0a5,5,0,0,1-.53.12h-4.14l-.58-.13-.23-.07-.34-.1-.28-.09-.22-.08a12.64,12.64,0,0,1-7.85-11.91,13,13,0,0,1,4.52-10l.32-.26.57-.41.26-.17a8.45,8.45,0,0,1,.82-.49l.08,0a4.44,4.44,0,0,1,.49-.24l.08,0c.29-.13.59-.25.89-.36l.28-.09.61-.17.48-.11.33-.07c.25,0,.51-.08.76-.1l.21,0c.29,0,.58,0,.87,0s.6,0,.89,0l.21,0c.25,0,.51.06.76.1l.34.07.48.11.62.18.26.09c.29.1.57.22.85.34l.12,0a10.82,10.82,0,0,1,1.41.79l.3.2c.18.12.36.26.53.39l.37.3a13.17,13.17,0,0,1-1.7,21Zm4.42-29.54-.26-.15-.64-.37-.33-.19a18.38,18.38,0,0,0-2.22-1l-.13-.05c-.38-.14-.77-.27-1.16-.39h0a17.94,17.94,0,0,0-2.44-.53l-.22,0c-.32,0-.65-.08-1-.11l-.29,0c-.4,0-.79-.05-1.2-.05s-.79,0-1.18.05l-.28,0-1,.1-.22,0a18,18,0,0,0-3.57.91l-.09,0c-.37.14-.73.28-1.08.44l-.09,0c-.37.16-.73.34-1.09.53l-.23.12-.72.42-.21.12A20.5,20.5,0,0,1,166,52.16c-.27-6.27,3.11-14.85,9.27-23.54a68.22,68.22,0,0,1,8.43-9.88c-.67,9.34,3.81,14.12,7.53,18.1,3.42,3.65,6.38,6.8,6.67,13.69a20.46,20.46,0,0,1-6.09,15.94Zm0,0"/></svg>