<svg id="Layer_1" data-name="Layer 1" xmlns="http://www.w3.org/2000/svg" viewBox="0 0 672.66 641"><defs><style>.cls-1{fill:#f8d2a1;}.cls-2{fill:#eab095;}.cls-3{fill:#ffd474;}.cls-4{fill:#1f3a49;}.cls-11,.cls-5{fill:none;stroke-miterlimit:10;}.cls-5{stroke:#1f3a49;stroke-width:0.75px;}.cls-6{fill:#dba87b;}.cls-7{fill:#533950;}.cls-8{fill:#214a81;}.cls-9{fill:#f6f9fc;}.cls-10{fill:#fff;}.cls-11{stroke:#97a3cc;}.cls-12{fill:#c1ddf7;}.cls-13{fill:#84b4fe;}.cls-14{fill:#e9ebee;}.cls-15{fill:#e9526a;}.cls-16{fill:#92503e;}.cls-17{fill:#2e1447;}.cls-18{fill:#4c89c2;}.cls-19{fill:#00c0cd;}</style></defs><title>Services</title><path class="cls-1" d="M1023.14,383.43a21.52,21.52,0,0,1,6.72,15.71c0,7.38-2.29,28.13-3.78,41.11a105.6,105.6,0,0,1-12.57,14.51c-.12-.13-.25-.24-.36-.38-3.72-4.55-1.36-32.76-1.92-35.19s-3.59-18.66-3.59-18.66Z" transform="translate(-623.55 -220)"/><path class="cls-2" d="M1013.51,454.76c-.12-.13-.25-.24-.36-.38-1.34-1.64-1.89-6.36-2.07-11.84a8.26,8.26,0,0,0,1.66-2c5.26-8.62,10.65-17.15,16.07-25.67-.8,8.42-1.9,18.1-2.73,25.36A105.6,105.6,0,0,1,1013.51,454.76Z" transform="translate(-623.55 -220)"/><path class="cls-1" d="M1011.68,320.38c-7-2.25-11.77,11-15.88,10.65s-7.24,9-4.87,13.21a33.39,33.39,0,0,0,2.78,4.29c3,4.16.84,8.37,10.19,13.77,5,2.9,12.86.83,18-5.62s9.21-26.64,9.21-26.64S1017.94,322.4,1011.68,320.38Z" transform="translate(-623.55 -220)"/><path class="cls-1" d="M1008,359.78c-1.48,3.53-1.36,11.72-1.36,11.72s-15.27-5.41-19.73-7.34c0,0,7.92-14.08,9.51-19.14Z" transform="translate(-623.55 -220)"/><path class="cls-1" d="M998.26,366.23l-5.18-4.63a49.74,49.74,0,0,1-9.68.7l-13,2.81s1.87,24.69,20.45,28.72,19.33-22.91,19.33-22.91l-3.24-3.44Z" transform="translate(-623.55 -220)"/><path class="cls-3" d="M957.54,390.53s-6.49,25.77-12.38,42.79c-4.84,14,.46,18.49-7.31,32.65,16.95,14.42,46,23.67,56.46,22.84,4.51-17.77,28-99.4,29.88-105-5.66-5.84-5.44-5.52-14-12.87,0,0-1.46,3.21-10,3.49S983.4,362.3,983.4,362.3l-15.92.47Z" transform="translate(-623.55 -220)"/><path class="cls-4" d="M1011.87,338.06a1.62,1.62,0,1,1-1.52-1.72A1.63,1.63,0,0,1,1011.87,338.06Z" transform="translate(-623.55 -220)"/><path class="cls-5" d="M1008.73,349.21c1.51,2.39,4.59,3.07,7.25,2.61" transform="translate(-623.55 -220)"/><path class="cls-6" d="M1013.09,347.89a7.51,7.51,0,0,0,1.87.51,2.4,2.4,0,0,0,1.79-.49,2.25,2.25,0,0,0,.5-1.54c.12-1.89.23-3.79.35-5.69Z" transform="translate(-623.55 -220)"/><path class="cls-4" d="M1011.08,325.14s1.1,6.43-3.53,8.92c-1.55.83-5.7-.67-6.08,1.27a11.38,11.38,0,0,1-2.76,5.56,50.34,50.34,0,0,0-1.58-5.68c-1.33-4.18-7.59-.4-5.22,3.56s4.44,7.13,4.44,7.13l-3.26,6.16s-1.38-6.27-4.48-9.13c-2.74-2.55-4.76-10.82-2.32-16.76,2.31-5.61,8.2-11.38,13.24-9.42a24.36,24.36,0,0,1,10.66-6c14-3.31,22.41,9.36,23.24,11.39,2.6,6.33,5.41,6,5.41,6s0,7.37-6.95,8.29-9.74-2.81-12.58-6.08C1014.48,324.78,1011.08,325.14,1011.08,325.14Z" transform="translate(-623.55 -220)"/><path class="cls-7" d="M1024.19,383.79s6.11,6.69,5.67,15.35-2.22,26-2.22,26a59.56,59.56,0,0,1-16.39-.22s1.61-19.58,1.8-22.22S1024.19,383.79,1024.19,383.79Z" transform="translate(-623.55 -220)"/><path class="cls-5" d="M1010.5,333.6a11.66,11.66,0,0,1,4.09.92,5.34,5.34,0,0,1,2.85,3" transform="translate(-623.55 -220)"/><path class="cls-8" d="M92.16,166.86H614a5.06,5.06,0,0,1,5.06,5.06V484.72a0,0,0,0,1,0,0H87.1a0,0,0,0,1,0,0V171.92A5.06,5.06,0,0,1,92.16,166.86Z"/><path class="cls-8" d="M92.16,166.86H614a5.06,5.06,0,0,1,5.06,5.06V484.72a0,0,0,0,1,0,0H87.1a0,0,0,0,1,0,0V171.92A5.06,5.06,0,0,1,92.16,166.86Z"/><polygon class="cls-9" points="602.31 468.32 103.84 468.32 103.84 468.32 103.84 183.82 103.84 183.82 602.31 183.82 602.31 468.32 602.31 468.32"/><polygon class="cls-10" points="444.84 630.14 261.31 630.14 261.4 629.7 265.48 609.21 274.99 561.44 283.49 519.11 422.62 519.11 431.09 561.44 440.67 609.21 444.75 629.7 444.84 630.14"/><polygon class="cls-11" points="444.84 630.14 261.31 630.14 261.4 629.7 265.48 609.21 274.99 561.44 283.49 519.11 422.62 519.11 431.09 561.44 440.67 609.21 444.75 629.7 444.84 630.14"/><polygon class="cls-12" points="431.13 561.45 275.02 561.45 283.49 519.11 422.65 519.11 431.13 561.45"/><path class="cls-13" d="M934.76,590.29l-8.62-3.23-1-.15-1.19-1-4-.47-1.4-1.45v.28l-1.64,0,.74-2.54L913,578.38l-9-6.26.47-.48-1.66-.24-.71.3-3.38.12-2.09-1.27-2.34.61-.07-1.43-2.65.9-3.75,3.72-2.53-1.28-2.48.4-1.29-1.08-1-3.46-.16-2.84-3.76-.42-1.42-1.11,2.08-4.92-2.1-.61-1.9.48-.95,1.87-3.73,1-2.72-2.64-.1-2.84.58-5.37,2.1-2,3.35-1,2.36.44,1.26-.87.87-.55,2.83.28,2.23.23.59.67,2,4.83,1-1.1-.12-5.8,2.26-2.22,4.36-3.59.16-3.78.54.8,4.5-4.92-.47-.33,2.9-.5-.18-1.36,2.34-1.43,4.13-2.4-1.43,1.91,1.34.28,3.5-1.7,2.25-1.1-.72-1.49-2,1.43-2.08-1.39-.57-1.83-1.28-1.63-4,2.07,4.62-1.8,8.37-3.11,3.51-2.24.22-1.39-1-.69-1-1.28-1.61-2.2-1.26-1,.44-1.07L910.79,502l-3.16,3.31-1.88-1.65.53-3.26-1.57-.82-1-2-3.62-1-1.62,2.28-1,3.76-1,1.19.34,2.13.37,2.29-.59.75-3.06,2.09-2.54,5-.43-4.44-1.28-2.33-7.85-3.67.18-1.85.09-1.28-.46-.27-.32-.8,1.4-2,3.31-4.7,1.54-1.81,1.74-.78,1.4.08,3.07-3.39h-.21l1-1.57,3,.53,2.32-4.49,1.4-1.85-2.23-2-3.3,4.2-.26-.46-.95,1.71-.05-2.17-.13-2.35-1.6,1.54.27-1.67-.74-1.2.93-2.1-.14-4.62,1.47-1.58,1.61,0,2.47-3.08-3.4-1.06-2.49,4.11-1.55,2.79-2.06,2.7,1.28,2.9-.6,1.43L888.05,482l-1.53,2-.12-1.5.4-.75-.69-1h0l2.75-2.43-1.8-1-1.31.73.13,2.43h0l-1.08.36-.57.74-2.1.24L879,479.86,878.2,478l-2,.14,0,1.06,2-.26-2.7,1.49-1,1.91-1.76-2.79-3.58-1.24,1.61-1.17-1-.88-2.43-2.16-1.88-1.65-2.2-.43-.12-.89-1.61.86-.2-3.42-2.54,2.4-.52-1.57-4,.82.15-.65-1.49.31-1,.69-1.18-.4-5.75-5-2.4-2.08-.6-.52-.72.11-.61-.89,0-1-1.72-1.54-1.16.59-.12-.23,1.28-.36-1.49-.64-3.89,1.13-4.9,1.42-3.8,1.11-.72,1.18-.37,4.41.57.8-.29.9.5.6.76.52h-.91l-1.4.45-1.21-1.83-2.92.65-2.17,1.18.55.74-.21.42-.41,1.54,2.65,1.24,2.66-.21-1.72,2.4-1.53.1-1,.93-.58,0-1.55.41-3.29,4.49,0,3,2-.21-.86,3.77,2.06.72,2-.07-3.1,2.2L808,496.71l-2.47,2,4.27-1.65,2.27-.49,5.73-3.15,3.62-2,.1-1.56,1.61-1,4.16-2.09-1.47.71-1.43,1.69-.18.84-.72.59.76.41L829,489.4l1.73-1.32-.37-.36,4.17,3.87,1.28.73.69,1.45.85,2.1.83-.62.76,1.39-1.16,1.76.1,2.23,2.26-3,.88,2.49-2.33-.58L839,501l.14,3,.72-1.25.41,0,.37,1.64-.12-.78.5.8-.42,1.41,1.06,1.42-.53,1.53.43.89,0,.84-.08,1.22,2,1.84.56,1.6.88,1.5-1.48.71-.09-3L841.37,513l-.8,0,2.68,4.14-.64,3.11-1.48,6.83-1.19,5.48.86,2.91,1.23,3.08,5.4,11.2,1.9,3.72,1.61,2.58,1.09-.23-.92-2.31-1.53-3.82-1.66-4.78,6.93,11.4,1.51,2.38-.05,2.25,4.51,2.44,16.61,9,5.3,2.88,1.27.18,1.37-1.63,1.34,4.41.18,2.33-2.61,4.31-.48,2.73.26-.28L883,590.27l3.32,4.15L895,605.31l.64,5.76L895.49,626l-.06,7.33.31,3.1-.08,2.25.1-2.24.82,3L896,642l-1.21,1.59.34.39,1.2.49v1.11l-.88,2.15h.43l.76,1.78.51,1.79.42-1.43-.36,2,2.38,2.25-1.55-.27,3.11,1.49,1.16,1.34.79.68.57-.53,1,.89.81-.4,2-.66-.75-1.7-3.07-2.24-1.34,1.55,1.71-2.05-.17-3.76,1.21-4.13-1.61-1.5,1.14-1.86.86-3.47,0-.19,1-.36-1.71-1.1,1.87-.72.83-2.72,2.62-1,2.26-1.56-.08-2-.41-1.4-1-.77,5.08-.63,2.48-4.77.24.54,1.69-4.55,1.55-2.9,7-4.12,1.31-4.37,1.8-6,2.53-8.47Zm-34.92,64Z" transform="translate(-623.55 -220)"/><polygon class="cls-13" points="330.41 265.74 327.32 264.93 327.89 264.39 328.16 262.94 330.04 264.54 331.11 262.32 329.23 259.6 329.9 259.12 331.07 260.38 331.45 258.92 329.63 257.13 331.78 257.77 333.19 256.68 331.94 255.68 333.87 255.35 333.45 253.24 334.15 250.72 333.54 250.01 333 249.09 333.46 249.41 333.15 249.08 335.3 250.68 335.86 248.07 334.98 246.92 334.91 246.34 334.89 245.66 334.41 244.96 335.24 244.52 337.66 239.71 338.69 237.65 337.61 236.79 339.51 236.4 340.51 235.38 341.53 233.75 339.75 232.47 337.94 232.6 337.35 233.26 336.63 233.14 332.6 235.67 334.36 233.75 335.23 231.98 334.01 232.12 331.77 232.37 332.65 231.04 329.27 231.39 327.24 231.43 328.99 230.97 332.81 230.22 336.07 229.57 333.54 227.55 333.84 226.16 331.93 226.2 326.68 226.43 331.23 225.82 333.3 225.59 332.66 225.15 329.69 224.31 326.88 223.53 325.56 224.69 324.43 225.06 321.32 225.24 320.64 226.87 319.21 226.84 319.92 230.52 318.63 229.05 316.62 227.33 315.1 229.75 314.64 227.39 314.02 229.2 313.33 230.06 314.11 228.32 313.65 226.7 309.52 228.29 307.54 229.56 305.5 230.35 302.32 232.72 303.29 233.95 294.99 238.19 295.79 240.28 296 240.16 298.6 241.5 295.06 242.03 295.58 243.83 295.07 244.8 296.29 246.13 297.33 245.83 298.04 246.22 299.89 246.05 301.9 247.43 302.97 248.41 302.97 251.12 303.37 252.12 303.42 255.06 303.45 256.32 302.97 256.53 303.06 257.05 302.71 257.87 303.06 257.85 302.25 259.1 303.99 259.44 303.87 259.54 304.73 259.62 304.16 260.44 304.6 260.95 305.2 262.28 303.34 261.43 302.46 262.07 301.8 263.02 303.33 264.89 303.48 263.05 305.14 264.45 303 267.52 301.84 270.4 301.31 273.77 302.85 275.05 301.87 277.1 302.19 278.06 304.55 282.52 305.49 282.33 306.47 283.5 308.28 284 310.14 279.59 309.86 279.41 310.14 279.59 312.51 275.24 318.01 272.32 330.41 265.74 330.41 265.74"/><polygon class="cls-13" points="522.23 395.65 519.41 391.37 515.29 383.25 514.42 381.55 512.98 379.86 511.95 377.26 511.12 379.96 508.84 385.43 505.47 383.2 504.06 381.7 505.65 378.9 502.66 378.05 500.09 377.71 500.3 378.55 498.76 378.96 497.28 380.53 496.83 381.7 494.09 380.83 489.96 384.8 488.75 384.56 487.18 387.19 485.05 387.97 480.94 389.48 478.34 390.43 477.95 392.5 478.29 396.93 477.61 399.74 477.33 405.67 478.18 408.29 480.37 408.33 491.26 405.54 497.89 405.38 499.49 409.21 502.57 407.02 502.59 409.31 503.32 410.87 503.73 414.43 507.01 416.61 508.43 415.68 508.84 416.1 511.59 416.64 514 415.34 515.26 412.42 519.67 402.18 522.23 395.65 522.23 395.65 522.23 395.65 522.23 395.65"/><path class="cls-13" d="M911.5,450.34l-.06,4-2.79.18-1.15,1.67.87.9-.26,1.31-.8-1.34-.84,2.11-3.73,1.63,4,1.39,1.84.41,1,.75,3-1.14,0-1.54,1.64-1.28.48-.42,1.07-.1.24-.83,1.78-2.72.33-.88,2.33-.9,5.56-2.49,2.9-1.57-.39-1,5.09-2.94-.66-1.09-.11-1.16-2.31.07-3.48-2.64-1.71-.61-1.37,1.24-2.22-.2-3.22,1-1.32-1-.4,1.88-1.64-.85-.81.13-1-.1-1.66,1,.69.31-.14,2.36.68,1.71,2.38.87,3.89-.22.85,1.09-3.84.16-1.59,1.6-1.67-2.17-1.36,1.42Zm.25,4.14.19.33-.19-.33Z" transform="translate(-623.55 -220)"/><polygon class="cls-13" points="276.43 259.73 279.59 260.69 278.74 260.03 280.31 260.44 280.78 258.69 281.26 259.56 281.61 261.04 282.25 262.79 281.69 263.27 282.54 263.47 282.56 264.13 283.77 264.76 284.16 267.04 283.13 268.72 281.69 270.71 279.78 270.8 277.9 270.82 277 272.7 281.34 273.52 283.19 276.86 286.8 278.91 285.27 275.36 288.9 278.27 288.98 274 287.98 272.66 287.34 270.81 288.68 270.06 290.83 273.24 293.32 270.68 292.86 268.88 291.8 268.05 289.51 264.14 290.67 263.79 290.56 261.76 288.36 258.75 286.03 256.71 284.55 253.3 281.41 254.1 282.24 250.63 278.95 251.01 277.27 253.4 276.44 254.32 276.44 255.51 277 252.59 279.25 249.55 276.24 249.36 273.74 252.46 272.33 255.27 273.67 256.07 272.81 256.03 272.72 258.12 276.43 259.73 276.43 259.73"/><polygon class="cls-13" points="252.68 244.43 248.11 247.22 247.58 248.29 249.2 249.06 247.03 249.61 247.54 251.3 251.51 253.3 246.06 253.78 246.97 255.16 248.03 255.72 248.21 257.83 251.86 257.36 254.8 257.04 255.77 258.35 257.5 258.59 258.76 257.07 258.29 257.25 259.43 256.64 260.19 257.11 260.77 256.38 259.31 253.24 259.78 251.78 261.53 248.56 262.84 246.14 260.69 246.93 256.88 250.52 257.2 246.78 256.41 247.48 254.76 247.56 253.28 246.25 253.54 244.13 252.68 244.43 252.68 244.43 252.68 244.43 252.68 244.43"/><polygon class="cls-13" points="520 375.13 518.18 373.11 518.22 371.43 513.8 369.16 510.42 367.48 508.13 366.35 504.06 367.95 500.51 364.86 502.35 367.1 500.72 367.71 501.78 368.98 502.53 368.58 503.05 368.87 505.38 370.19 507.94 372.57 507.3 374.09 509.46 374.48 512.34 375.01 513.14 374.28 515.84 373.83 518.4 375.32 520.67 376.64 520 375.13 520 375.13 520 375.13 520 375.13"/><polygon class="cls-13" points="474.34 363.88 475.75 367.32 477.86 368.32 479.42 368.26 482.57 368.65 484.04 364.14 484.99 363.44 484.55 362.24 484.31 360.03 485.3 358.63 485.26 357.61 483.42 356.14 480.84 358.27 478.35 360.59 476.58 362.24 475.36 362.15 474.34 363.88 474.34 363.88 474.34 363.88 474.34 363.88"/><polygon class="cls-13" points="281.14 235.37 283.47 235.32 286.74 233.45 286.14 233.47 287.56 232.02 287.53 230.18 287.95 228.54 286.84 227.21 286.45 225.92 284.96 223.89 285.32 224.78 284.25 225.01 284.09 226.09 282.51 226.48 283.18 228.3 281.54 228.57 280.85 230.25 281.63 231.21 282.16 231.74 280.71 232.5 281.14 235.37 281.14 235.37 281.14 235.37 281.14 235.37"/><polygon class="cls-13" points="471.16 367.82 470.69 367.29 471.08 366.41 469.83 366.7 469.28 365.97 468.52 365.43 468.43 364.08 467.09 363.14 462.09 359.63 459.1 357.62 459.76 359.5 467.16 368.7 469.15 370.9 471.16 367.82 471.16 367.82 471.16 367.82 471.16 367.82"/><polygon class="cls-13" points="243.04 246.83 244.75 247.68 251.32 244.67 253.29 244.18 253.1 241.78 251.82 240.72 248.33 239.77 247.25 240.01 244.93 242.62 242.82 245 243.04 246.83 243.04 246.83 243.04 246.83 243.04 246.83"/><polygon class="cls-13" points="277.73 246.89 283.29 247.87 285.06 247.32 285.26 244.97 280.49 243.72 278.27 240.84 279.19 241.41 278.56 240.2 277.6 239.69 275.77 237.67 274.72 239.3 275.16 240.31 276.44 241.09 275.49 244.13 276.01 246 277.31 246.02 277.73 246.89 277.73 246.89 277.73 246.89 277.73 246.89"/><polygon class="cls-13" points="262.15 238.97 260.83 237.64 259.6 234.9 257.2 236.34 256.78 237.7 255.32 238.83 258.7 239.9 256.98 241.54 261.81 241.44 264.9 240.35 265.92 238.96 264.8 238.59 263.77 235.58 262.15 238.97 262.15 238.97 262.15 238.97 262.15 238.97"/><polygon class="cls-13" points="269.17 247.4 269.34 246.92 267.05 246.03 265.26 247.63 265.05 249.05 264.23 248.1 263.48 249.96 264.63 253.49 267.25 252.35 268.12 249.58 267.75 248.51 269.17 247.4 269.17 247.4 269.17 247.4 269.17 247.4"/><polygon class="cls-13" points="487.6 363.96 491.7 363.13 492.72 362.73 491.19 363.03 488.03 362.88 486.17 365.48 485.66 367.92 485.89 368.79 487.05 370.53 487.8 367.87 489.3 369.93 490.2 369.14 489.81 365.99 490.74 365.09 488.99 365.43 487.6 363.96 487.6 363.96 487.6 363.96 487.6 363.96"/><polygon class="cls-13" points="268.04 236.94 269.7 241.01 269.04 242.9 271.16 241.62 273.19 239.11 271.03 237.84 270.98 239.51 270.13 238.84 268.88 239.78 268.04 236.94 268.04 236.94 268.04 236.94 268.04 236.94"/><polygon class="cls-13" points="394.82 255.45 394.34 256.6 394.56 257.62 393.97 259.63 396.02 260.71 397.44 262.01 399.32 260.88 397.57 258.75 397.75 256.52 398.35 251.91 402.3 246.75 402.84 243.52 398.48 246.44 396.45 248.09 396.08 249.36 395.23 250.25 395.08 251.2 395.17 252.1 394.82 255.45 394.82 255.45 394.82 255.45 394.82 255.45"/><path class="cls-13" d="M1083.27,564.34l1.4,3.23,2.67,7.52,2,5.54,2.93,2.25-1.35-3.45-3.63-5.8-.14-3.7,2.56.23,3.26,2.78.8.66,2.57-2.33,1.45-1.3-.53-2.76-2.63-4-1.34-1.8,1.2-2.41,2.4-.06h1.43l-.14-.15,4.88-1.94,2.12-2.3,3-6-.07-2.49,0-2-.87-2.4-1.91-3.07,1.18-1.84,1.46-.89-2.88-.73-1.32.31L1102,534l2.34-3,1.6.36,1.63,1,2.45,1.22,1,1.07,1.25.72.76,4.18,1.58-.53,1.22-1.21-1.41-3.31-2-3.34,2.2-4.2.87-1.65,1.69.29,1-2,.75-5.78,1.26-9.78,4.57,11.09,1.49-.57-1.22-5.54-5.64-9.79.47,4.16-3.27-3.43-2.38,0-.39.88-.76-1.19-1.54-.43.67-2.69,1.59-5.3.89-2.14,4.54-1.56,1.37-.48.78-1,2.07.36.12,1,3.21-1.7-1-1.25.5-3.53.77-1.45,2.11-.1,1.32,1.79,1-2.18-.06-1.81.47-1.54-.48,6.94-.63,9,2.39,4.84,3.89,6.93,1.33-4.73-.39-2.65,1.16-1.66-1.19-2.73.54-1.14-1-1-.27-1.56-1.14-.25-1.1-3.68-.05-1.31,1.07-1.28.93.29.87-1.41,3.23.25,1.24-3.61,1.49-4.32,1.63-.31.29-.85-2.32-2.44-2.67-2.27,1.06-1.17,0-2.53-.95-2.42.67.54,1.16-.43.61-.57.78.36,3.61-.36-1.42-2.33v-1.89l-2.55-3-2,.78.29,1.52L1140.3,458l-4.36-.25-6.72-.39-5.16-.29-.65.06,1.39,1.93.93,1.57-2.06-.26-1.12-1.42-.38-.71-.76.18-.54,1.69-2,.54-3.67,1-1.32-.45-4.15-2.18-4.12,1.72-3.38-1.2-1-1.28-8.29.48-1,.06.77.78-.84,1,.9.52.81,1.53-1.69,1-2.82,1-2.11-.56-.37,2.63-3.51-1.84.56-.92-.88-.59-.6-.88-2.94-1.34-2.87,1,.5,1.21-1.33.61-3.11-.51-.57-.58-1.44.46-3.22.31-2.77.38.78.63-1.43,1.46-1,.16,1.78-7.13-1.18-2-1.87-.9-2.83-.66-1.24,1.74-.8-1.66-1.84-.37-1.6-1.37-1.2.9-.23,2.05.67,2.18-1,.28-.12.73-1.58,1.3-2.46.23-.25,1.29-1.75,1.68-2,2.85,2.42,2.21-4.17,1,.31,3,3.48,4.69-3.18-3.33-2.57-1-.17,1,.6,1-1.39-.12,2.36,1.91-2.09-.27-1.16-1.54-1-1.76.34,1.42,1.69,6.2,2.86,1.06-1.26,1.67.58,1.79-3.46,2.65.4.26,1.63-3.34-2.34-5.66-1.26-3-1-2.3-3.08-.23.2,1.79.41,3.7.31,2.76,1,.7.28,1.7-6.09-2.37-3-.06,1.82,3.53-4.94.83-.32-1.22-3.5,2.71-2,1.88-1.46-.61.72-1.22-2.89-1.3,1.08,3.55-1.51,1.36-1.41,2.35-2.16.52-.41,1.25,0,.75-2.86-3.19-1.85-2,3.09.44,3.47.36.7-2.51-3.91-1.82-3.91-1.83-2-1.06-1.44,0,1.26-.92-2.67-.65-1-.75-.85.58-1.41-.43-1.54,1,0-.3-.49.85-1.56.57-.33.73-.61.95L990,486l0,1.3v-.23l-.83.23V487l-.56,1.36-1.19-.38-1.24,1.74,2.06-.16-4.37,6.83-1.83,2.84-.7.18-.27.78-2.76,2.14.39,3.86-.17.58.41.34-.12,1.27,1.42,1.13,1.14-.47,2.27-1.4.49.66,1.59,4.45,1.49.65,1.4-.9,1.62-1.23-.43-.67.58-2.32.86-1.13-1.27-3.4,3.3-6.47,2-2.4.18,2.16-1.92,3.72,1.06,4,3.28.37,4.05.07-4.3,1.09-1.11.73-1.3,1.22,1,.26,1,.85-2,.42-.8,3.66-1.83,1-1.06-.27-3.87,1.77-.7-1-1.79.46-1.62-1.24,1.88,0,.33-1.8-1,1.71-.7-2.41-.51-1.74-1.79,1,.34,4.42-2.07,1.83-4.69,3.66-2.57,1.63-.8-.12,0,.82-1.76.52.22,1.89,1.91,3.21-1.77,2-5.51.4-.76,2,.1,5.51,2.37,1.85,3.18-.61,3.81-2.18.29-2,1.25-1.32,1.5-1.5.6-1.52,3.58-.21,2.88-.66,4,3.52,2.52,2.42-2.71,2.1-.7.53,2.12,1.13.78-.58L991.3,538l.55-1.54.72-.94.66-.43-1.13-.89-4.47-3.56-.49-2.44,2,1.79,3.76,4.33,3.12,3.58,1.58,2.27,1.24-.85,1.18-.81-2-3.13h1.05l1.63-.78,1.06.79-.11,1.24.35.53.5.21-.55.43-.18.39.84.45.11.5.92.56,2.12,1.27,1.78-.59,1.93.46,1.75-.43,1.61-.21-1.06,4.35-1.27,2.14-5.48-.5-6.46-.58-2.71.54-1.52,1.71-5.79-2.36L985,544l.59-1.9-.25-.71.18-1-2.69.07-12.19,1.55-1.4.18-1.3-.29-1.65,1.77-7.37,10.21-3.8,6.87.16,6.87,1.53,2.89,2,2,4.36,4.18,2.42,2.32,3.14-.55,6-1,3.69-.65,2.66,2.52,3.52.93-.59,4.35.62,2.35,2.49,5.23,1.9,4-2.23,8,1.9,6,3.83,11.25,3.24,3.49,5.42-1.16,2.73-.72,2.92-3.74,3.13-4,.27-1.28,1.32-1.19,1.51-3.07.32-3.21,4.43-3.66,1.67-1.82-.59-4.81-.27-6.67,12.64-16.07.68-2.32-2.51-.38-2.88.66-2.3.53-2.41-2.6-2.85-3.29,1.44.13,2.21,2.29,1.88.49,10.19-5,5.65-4.81-1.12-2.86-1.81-.94-.79-2.24-3.22,2.52-2.5-2.35-1.75-.86-1.9-3.4,6.06,2.71,1.21.92,1.58-.47,2.09,1.61,3.53.1,4.86.14,2.5,1,3.36,2.21-1.16.61,1.16,1.3,2.69-.81,2.63,6.58,2.13,5.47,1.48,3.79,1.4-.37,1.4-5.27.83-2.47,3.13-2.4,8.35-6.4,3.17,5.88,1.18,2.19,2.49-1Zm-80.11-72.41Z" transform="translate(-623.55 -220)"/><polygon class="cls-13" points="343.88 290.52 345.15 293.14 346.35 294.64 345.9 296.71 345.73 297.42 345.83 298.25 345.48 298.65 345.15 299.24 346.85 300.03 345.02 301.85 350.04 300.54 351.69 300.11 351.34 299.27 351.52 297.82 350.46 297.2 348.1 293.5 347.29 292.15 347.99 290.28 346.45 289.79 346.69 288.5 343.88 290.52 343.88 290.52 343.88 290.52 343.88 290.52"/><path class="cls-14" d="M87.1,484.72H619a0,0,0,0,1,0,0v47a5.06,5.06,0,0,1-5.06,5.06H92.16a5.06,5.06,0,0,1-5.06-5.06v-47A0,0,0,0,1,87.1,484.72Z"/><path class="cls-12" d="M87.1,484.72H619a0,0,0,0,1,0,0v47a5.06,5.06,0,0,1-5.06,5.06H92.16a5.06,5.06,0,0,1-5.06-5.06v-47A0,0,0,0,1,87.1,484.72Z"/><path class="cls-10" d="M1010.31,736.78H943a5.1,5.1,0,0,1-5.1-5.1h0a5.1,5.1,0,0,1,5.1-5.1h67.36a5.11,5.11,0,0,1,5.1,5.1h0A5.1,5.1,0,0,1,1010.31,736.78Z" transform="translate(-623.55 -220)"/><polygon class="cls-14" points="484 639.92 222.14 639.92 225.28 609.31 480.86 609.31 484 639.92"/><polygon class="cls-12" points="484 639.92 222.14 639.92 225.28 609.31 480.86 609.31 484 639.92"/><path class="cls-1" d="M917.25,518.6c.81-3.34,3.83-8.35,5.19-9.32l1.7,4.56s-1.13,2.64.54,6.93S917.25,518.6,917.25,518.6Z" transform="translate(-623.55 -220)"/><path class="cls-15" d="M916.81,500.28a13.16,13.16,0,1,1,24.87,6h0L930,525.05l-11.71-18.82h0A13.09,13.09,0,0,1,916.81,500.28Z" transform="translate(-623.55 -220)"/><path class="cls-10" d="M920.28,500a9.68,9.68,0,1,0,9.67-9.68A9.67,9.67,0,0,0,920.28,500Z" transform="translate(-623.55 -220)"/><path class="cls-15" d="M925.87,501.55h8.18a1.27,1.27,0,1,0,0-2.54h-8.18a1.27,1.27,0,1,0,0,2.54Z" transform="translate(-623.55 -220)"/><path class="cls-15" d="M930,505.64a1.27,1.27,0,0,0,1.27-1.27v-8.18a1.27,1.27,0,0,0-2.54,0v8.18A1.27,1.27,0,0,0,930,505.64Z" transform="translate(-623.55 -220)"/><path class="cls-15" d="M819.44,470.83a13.16,13.16,0,1,1,24.88,5.95h0L832.59,495.6l-11.72-18.82h0A13.09,13.09,0,0,1,819.44,470.83Z" transform="translate(-623.55 -220)"/><path class="cls-10" d="M822.91,470.57a9.68,9.68,0,1,0,9.68-9.68A9.67,9.67,0,0,0,822.91,470.57Z" transform="translate(-623.55 -220)"/><path class="cls-15" d="M828.5,472.1h8.18a1.27,1.27,0,1,0,0-2.54H828.5a1.27,1.27,0,1,0,0,2.54Z" transform="translate(-623.55 -220)"/><path class="cls-15" d="M832.59,476.19a1.27,1.27,0,0,0,1.27-1.27v-8.18a1.27,1.27,0,1,0-2.54,0v8.18A1.27,1.27,0,0,0,832.59,476.19Z" transform="translate(-623.55 -220)"/><path class="cls-1" d="M806.88,555.93s-2.19-15.78.63-26.73,15.21-36,15.21-36L813.1,489S794.41,519.88,790,534.14s2.62,36.28,2.62,36.28Z" transform="translate(-623.55 -220)"/><path class="cls-3" d="M793.69,555.69a115.45,115.45,0,0,1,12.68-2.42c.49,2.29.29,5.45,1.38,9.27,4.44,15.58,8.5,21.57,8.5,21.57l-10.61,30.38a221.14,221.14,0,0,1-13.45-25.1,69.3,69.3,0,0,1-6.2-30.7A22,22,0,0,1,793.69,555.69Z" transform="translate(-623.55 -220)"/><path class="cls-1" d="M818.73,496.32c.62-.54,4-3.11,4-3.11a26.37,26.37,0,0,1,3.56-2.07,10,10,0,0,0,2.51-2.1,18.68,18.68,0,0,1-1.24-3.72c-.32-1.75.65-5.93,3-8.83s3-5.73.58-6.71-6.53-2-8-.19S817,479.42,815,482s-1.44,6.28-2.35,7.8S818.73,496.32,818.73,496.32Z" transform="translate(-623.55 -220)"/><path class="cls-1" d="M855.14,561.75c.15,2.88-3.21,1.3-3.56,2.45s.6,7.51-1.62,9.36-8.67,2.24-9.59,4.22,2.1,11.61,2.1,11.61H822.15L823.21,571a40.65,40.65,0,0,1,1.17-17.08C827,544.21,845,538,845,538c.81-.5,1.9-4.38,3.29-2.93,2.19,2.25,3,10,3.72,13.85S855,558.88,855.14,561.75Z" transform="translate(-623.55 -220)"/><path class="cls-6" d="M855.14,561.75c.15,2.88-3.21,1.3-3.56,2.45l.4-15.31C852.66,552.77,855,558.88,855.14,561.75Z" transform="translate(-623.55 -220)"/><path class="cls-16" d="M852.86,536.4c-.4,1.89-5.34,3.66-5.69,7.9a66.4,66.4,0,0,0,.61,11.68c.12.71-1.57,2.45-1.57,2.45s-1.88-6.56-4.26-6.68-4.55,3-2.19,7.09,1.61,6.07-.44,9.88A41,41,0,0,1,834,576c-4.14.18-11,0-11,0-2.37-7.15-5.34-12-7.54-18.31s-3-12,.62-19.15,14.23-10.85,21.08-10.06S852.86,536.4,852.86,536.4Z" transform="translate(-623.55 -220)"/><path class="cls-17" d="M823.36,678.46c0,10.8,0,20,7.57,42.14S839,833.4,839,833.4h15.13s1.08-61.48,3.78-93.89a387.84,387.84,0,0,0,0-61Z" transform="translate(-623.55 -220)"/><path class="cls-1" d="M839.9,834.21c.48.81,0,17.29,0,17.29H852V833.4Z" transform="translate(-623.55 -220)"/><rect class="cls-18" x="215.46" y="611.84" width="16.56" height="6.69"/><path class="cls-17" d="M839.9,848H852s.07,2.16,6.82,3.51,8.38,8.91,8.38,8.91H839.9Z" transform="translate(-623.55 -220)"/><path class="cls-17" d="M798.42,676.37c0,10.8-.9,21,2.22,44.23,4.16,30.92,6.66,112.8,6.66,112.8h15.12s2.53-61.48,5.23-93.89a334.19,334.19,0,0,1,11.36-61Z" transform="translate(-623.55 -220)"/><path class="cls-1" d="M808.17,834.21c.48.81,0,17.29,0,17.29h12.09V833.4Z" transform="translate(-623.55 -220)"/><rect class="cls-18" x="183.72" y="611.84" width="16.56" height="6.69"/><path class="cls-17" d="M808.17,848h12.09s.08,2.16,6.83,3.51,8.37,8.91,8.37,8.91H808.17Z" transform="translate(-623.55 -220)"/><path class="cls-1" d="M874.49,574.51s14.25-7.12,21.68-15.65S917.25,526,917.25,526l8.9,5.56S911.27,564.39,902,576.09s-31.4,18.36-31.4,18.36Z" transform="translate(-623.55 -220)"/><path class="cls-3" d="M795.5,687.77s1.66-17.91,4.09-46.63,15.27-58.4,15.27-58.4,6.23,0,9.95,0c5.66-.1,21.14,0,21.14,0s8.12,10.86,9.63,23.9,5,84,5,84-15.18,7.85-38,8S795.5,687.77,795.5,687.77Z" transform="translate(-623.55 -220)"/><path class="cls-3" d="M882.15,585.24A119.06,119.06,0,0,0,877,573.42c-2.17.89-4.66,2.85-8.43,4.11-15.36,5.15-22.59,5.19-22.59,5.19v24.63s6.24,7.1,19-.18c8.68-4.95,15.15-10.93,19.07-13.88A22.17,22.17,0,0,0,882.15,585.24Z" transform="translate(-623.55 -220)"/><path class="cls-1" d="M916.94,531c.09-.82.31-5,.31-5a26.69,26.69,0,0,0-.31-4.11,10.09,10.09,0,0,1,.31-3.26,18.34,18.34,0,0,0,3.76-1.09c1.63-.72,4.53-3.89,5.62-7.42s3-5.72,5.2-4.27,5.35,4.25,4.71,6.52-4.66,10.58-5.65,13.63-4.36,4.74-5.1,6.34S916.94,531,916.94,531Z" transform="translate(-623.55 -220)"/><path class="cls-1" d="M1101.77,533.52c-.68-2.46-4-8.31-5.36-9.28l-1.7,4.57s1.13,2.64-.53,6.92S1101.77,533.52,1101.77,533.52Z" transform="translate(-623.55 -220)"/><path class="cls-15" d="M1097.65,521.65a13.16,13.16,0,1,0-24.87,6h0l11.74,18.81,11.71-18.81h0A13.1,13.1,0,0,0,1097.65,521.65Z" transform="translate(-623.55 -220)"/><path class="cls-10" d="M1094.18,521.39a9.68,9.68,0,1,1-9.67-9.67A9.67,9.67,0,0,1,1094.18,521.39Z" transform="translate(-623.55 -220)"/><path class="cls-15" d="M1088.59,522.92h-8.18a1.27,1.27,0,0,1,0-2.54h8.18a1.27,1.27,0,0,1,0,2.54Z" transform="translate(-623.55 -220)"/><path class="cls-15" d="M1084.5,527a1.27,1.27,0,0,1-1.27-1.27v-8.18a1.27,1.27,0,0,1,2.54,0v8.18A1.27,1.27,0,0,1,1084.5,527Z" transform="translate(-623.55 -220)"/><path class="cls-1" d="M1206.38,717.34l-24.23,5.49c-.91,19,1.9,48.94,3.2,58.51,1.37,10.1,2.29,50,2.29,50a28.88,28.88,0,0,1-1.07,8.33c-1.22,3.9-5.18,9.22-5.18,9.22l5.49,4.25a57.66,57.66,0,0,1,10.52-2.41s-1.08-13.52-.37-21.65c.83-9.61,3.62-22.67,3.87-33.91.45-20.74.3-30,.3-30C1202.42,747.48,1206.38,717.34,1206.38,717.34Z" transform="translate(-623.55 -220)"/><path class="cls-19" d="M1183.15,846.32c2.87,1.34,13.11-.12,14,0s0,14.68,0,14.68h-3.23s-2.38-3.46-3.57-1.91a5.28,5.28,0,0,1-2.75,1.91h-12.82s-1.21-1.56,1.39-6.41A29.56,29.56,0,0,1,1183.15,846.32Z" transform="translate(-623.55 -220)"/><path class="cls-1" d="M1181.23,717.34,1157,722.83c-.9,19,1.91,48.94,3.2,58.51,1.38,10.1,2.29,50,2.29,50a28.88,28.88,0,0,1-1.07,8.33c-1.22,3.9-5.18,9.22-5.18,9.22l5.49,4.25a57.63,57.63,0,0,1,10.53-2.41s-1.08-13.52-.38-21.65c.83-9.61,3.62-22.67,3.87-33.91.46-20.74.3-30,.3-30C1177.26,747.48,1181.23,717.34,1181.23,717.34Z" transform="translate(-623.55 -220)"/><path class="cls-19" d="M1158,846.32c2.87,1.34,13.11-.12,14,0s0,14.68,0,14.68h-3.23s-2.38-3.46-3.57-1.91a5.23,5.23,0,0,1-2.74,1.91H1149.6s-1.22-1.56,1.38-6.41A29.56,29.56,0,0,1,1158,846.32Z" transform="translate(-623.55 -220)"/><path class="cls-1" d="M1215,607.89s17.15,15.68,19.84,19.87,5.28,10.37-2.62,18.53-27,23.42-27,23.42l-3.76-6.24s21-22.94,20.51-26.11-23.32-16-23.32-16Z" transform="translate(-623.55 -220)"/><path class="cls-1" d="M1160.43,593.68s-33-16.93-39.69-24.47-18.93-29.14-18.93-29.14l-7.88,5s13.41,29.15,21.72,39.5S1152.93,612,1152.93,612Z" transform="translate(-623.55 -220)"/><path class="cls-1" d="M1102.11,544.56c-.08-.73-.3-4.49-.3-4.49a24.3,24.3,0,0,1,.25-3.65,8.86,8.86,0,0,0-.29-2.9,16.89,16.89,0,0,1-3.36-.94c-1.45-.64-4-3.44-5-6.58s-2.73-5.07-4.65-3.77-4.73,3.82-4.15,5.83,4.2,9.38,5.1,12.09,3.9,4.19,4.57,5.62S1102.11,544.56,1102.11,544.56Z" transform="translate(-623.55 -220)"/><path class="cls-19" d="M1160.43,593.68c0,27.65-9.71,24-8.19,34.77s11.38,18.74,6.6,37.88-7.31,38.69-5.21,51,2.75,20.15,2.75,20.15,18.27,9.72,48.06,0c0,0,2.14-9.14,3.6-20.15,1.07-8,3.93-12.2,2.94-24.23-1.43-17.55-6.92-15.23-7.08-38.79s.28-24.88,4.6-39.45S1160.43,593.68,1160.43,593.68Z" transform="translate(-623.55 -220)"/><path class="cls-1" d="M1147.12,597.5l-2.67,9.3s8.42,8.93,11.78,15.16,11.25.94,12.5-9.92,3.55-12-8.3-18.36Z" transform="translate(-623.55 -220)"/><path class="cls-4" d="M1164.79,543.1c-7.15,6.39-7.28,19.6-5.77,23,8,18-2.53,20-6.84,35.1S1167.08,630,1187,631c19.42.95,37.78-12.33,25.76-37.13s-14.08-28.1-13-36.06C1202.05,540.29,1181.08,528.53,1164.79,543.1Z" transform="translate(-623.55 -220)"/><path class="cls-4" d="M1025.73,342.92a1.62,1.62,0,1,1-.46-2.24A1.62,1.62,0,0,1,1025.73,342.92Z" transform="translate(-623.55 -220)"/><path class="cls-5" d="M1021.63,338.45a5.93,5.93,0,0,1,6.44.7" transform="translate(-623.55 -220)"/><path class="cls-1" d="M981.85,404.68s8.26,23.79,21,35.74c6.49,6.11,26.45,24.17,31.6,23.67l-1.12,10.09s-30.75-14.66-41.72-22a84.11,84.11,0,0,1-28.74-33.12Z" transform="translate(-623.55 -220)"/><path class="cls-3" d="M967.48,362.77c-8.94,1-12.84,6.92-13.63,23s13.4,42.39,13.4,42.39,10.2-.61,21.22-9.1c0,0-7.49-17.32-7.45-28.54S977.48,361.6,967.48,362.77Z" transform="translate(-623.55 -220)"/><path class="cls-15" d="M1069.89,461.34a13.16,13.16,0,1,0-24.88,6h0l11.73,18.82,11.72-18.82h0A13.1,13.1,0,0,0,1069.89,461.34Z" transform="translate(-623.55 -220)"/><path class="cls-10" d="M1066.41,461.08a9.68,9.68,0,1,1-9.67-9.68A9.67,9.67,0,0,1,1066.41,461.08Z" transform="translate(-623.55 -220)"/><path class="cls-15" d="M1060.82,462.61h-8.18a1.27,1.27,0,1,1,0-2.54h8.18a1.27,1.27,0,0,1,0,2.54Z" transform="translate(-623.55 -220)"/><path class="cls-15" d="M1056.73,466.7a1.27,1.27,0,0,1-1.27-1.27v-8.18a1.27,1.27,0,0,1,2.54,0v8.18A1.27,1.27,0,0,1,1056.73,466.7Z" transform="translate(-623.55 -220)"/><path class="cls-15" d="M1147.3,457.51a8.16,8.16,0,1,0-15.42,3.69h0l7.27,11.66,7.26-11.66h0A8.17,8.17,0,0,0,1147.3,457.51Z" transform="translate(-623.55 -220)"/><circle class="cls-10" cx="515.6" cy="237.35" r="6"/><path class="cls-15" d="M1141.68,458.3h-5.07a.79.79,0,0,1,0-1.57h5.07a.79.79,0,1,1,0,1.57Z" transform="translate(-623.55 -220)"/><path class="cls-15" d="M1139.15,460.83a.78.78,0,0,1-.79-.78V455a.79.79,0,1,1,1.57,0v5.07A.78.78,0,0,1,1139.15,460.83Z" transform="translate(-623.55 -220)"/><path class="cls-15" d="M1015.38,508.12a8.15,8.15,0,0,0-16.3,0,8,8,0,0,0,.89,3.69h0l7.27,11.66,7.26-11.66h0A8,8,0,0,0,1015.38,508.12Z" transform="translate(-623.55 -220)"/><circle class="cls-10" cx="383.68" cy="287.96" r="6"/><path class="cls-15" d="M1009.76,508.91h-5.06a.79.79,0,0,1,0-1.58h5.06a.79.79,0,0,1,0,1.58Z" transform="translate(-623.55 -220)"/><path class="cls-15" d="M1007.23,511.44a.79.79,0,0,1-.79-.79v-5.07a.79.79,0,0,1,1.58,0v5.07A.79.79,0,0,1,1007.23,511.44Z" transform="translate(-623.55 -220)"/><path class="cls-15" d="M1011.47,578.72a8.31,8.31,0,0,0-16.62,0,8.19,8.19,0,0,0,.91,3.76h0l7.41,11.89,7.39-11.89h0A8.19,8.19,0,0,0,1011.47,578.72Z" transform="translate(-623.55 -220)"/><path class="cls-10" d="M1009.28,578.56a6.11,6.11,0,1,1-6.11-6.11A6.11,6.11,0,0,1,1009.28,578.56Z" transform="translate(-623.55 -220)"/><path class="cls-15" d="M1005.74,579.53h-5.16a.81.81,0,0,1,0-1.61h5.16a.81.81,0,1,1,0,1.61Z" transform="translate(-623.55 -220)"/><path class="cls-15" d="M1003.16,582.11a.8.8,0,0,1-.8-.8v-5.17a.8.8,0,1,1,1.6,0v5.17A.8.8,0,0,1,1003.16,582.11Z" transform="translate(-623.55 -220)"/><path class="cls-15" d="M872.8,528.38a7.18,7.18,0,1,0-13.57,3.24h0l6.4,10.27L872,531.62h0A7.17,7.17,0,0,0,872.8,528.38Z" transform="translate(-623.55 -220)"/><path class="cls-10" d="M870.9,528.24a5.28,5.28,0,1,1-5.27-5.28A5.27,5.27,0,0,1,870.9,528.24Z" transform="translate(-623.55 -220)"/><path class="cls-15" d="M867.86,529.07H863.4a.69.69,0,1,1,0-1.38h4.46a.69.69,0,1,1,0,1.38Z" transform="translate(-623.55 -220)"/><path class="cls-15" d="M865.63,531.3a.69.69,0,0,1-.7-.69v-4.46a.7.7,0,0,1,1.39,0v4.46A.69.69,0,0,1,865.63,531.3Z" transform="translate(-623.55 -220)"/><path class="cls-1" d="M1034.41,464.09c2.86.47,5.78-2.45,9.09-.89,0,0-1.17,1.75,2,3.31s6.82,4.48,9.35,4.87-1.42,4-4.08,6.24-10.14-1-13.25-1.37-4.88-2.29-6.58-2.88S1034.41,464.09,1034.41,464.09Z" transform="translate(-623.55 -220)"/><polygon class="cls-13" points="561.18 87.83 546.74 140.96 598.65 87.83 561.18 87.83"/><rect class="cls-13" x="477.56" width="195.1" height="98.49"/><rect id="_Rectangle_" data-name="&lt;Rectangle&gt;" class="cls-10" x="560.79" y="21.41" width="85.94" height="2.55"/><rect id="_Rectangle_2" data-name="&lt;Rectangle&gt;" class="cls-10" x="560.79" y="39.26" width="85.94" height="2.55"/><rect id="_Rectangle_3" data-name="&lt;Rectangle&gt;" class="cls-10" x="560.79" y="35.1" width="85.94" height="2.55"/><rect id="_Rectangle_4" data-name="&lt;Rectangle&gt;" class="cls-10" x="560.79" y="43.31" width="62.79" height="2.55"/><rect id="_Rectangle_5" data-name="&lt;Rectangle&gt;" class="cls-10" x="560.79" y="57.12" width="85.94" height="2.55"/><rect id="_Rectangle_6" data-name="&lt;Rectangle&gt;" class="cls-10" x="560.79" y="61.16" width="85.94" height="2.55"/><rect id="_Rectangle_7" data-name="&lt;Rectangle&gt;" class="cls-10" x="560.79" y="65.44" width="62.79" height="2.55"/><rect id="_Rectangle_8" data-name="&lt;Rectangle&gt;" class="cls-10" x="560.79" y="69.49" width="62.79" height="2.55"/><rect class="cls-10" x="489.78" y="15.61" width="54.02" height="63.78"/><path class="cls-15" d="M1150.21,262.73a11.43,11.43,0,1,0-21.6,5.17h0l10.19,16.34L1149,267.9h0A11.36,11.36,0,0,0,1150.21,262.73Z" transform="translate(-623.55 -220)"/><circle class="cls-10" cx="515.24" cy="42.5" r="8.4"/><path class="cls-15" d="M1142.34,263.83h-7.1a1.1,1.1,0,1,1,0-2.2h7.1a1.1,1.1,0,1,1,0,2.2Z" transform="translate(-623.55 -220)"/><path class="cls-15" d="M1138.79,267.38a1.11,1.11,0,0,1-1.11-1.1v-7.1a1.11,1.11,0,0,1,2.21,0v7.1A1.1,1.1,0,0,1,1138.79,267.38Z" transform="translate(-623.55 -220)"/><polygon class="cls-13" points="169.62 104.92 217.54 146.85 199.18 104.92 169.62 104.92"/><rect class="cls-13" x="107.65" y="39.93" width="152.69" height="77.08"/><rect id="_Rectangle_9" data-name="&lt;Rectangle&gt;" class="cls-10" x="172.78" y="56.69" width="67.26" height="1.99"/><rect id="_Rectangle_10" data-name="&lt;Rectangle&gt;" class="cls-10" x="172.78" y="70.66" width="67.26" height="1.99"/><rect id="_Rectangle_11" data-name="&lt;Rectangle&gt;" class="cls-10" x="172.78" y="67.41" width="67.26" height="1.99"/><rect id="_Rectangle_12" data-name="&lt;Rectangle&gt;" class="cls-10" x="172.78" y="74.24" width="67.26" height="1.99"/><rect id="_Rectangle_13" data-name="&lt;Rectangle&gt;" class="cls-10" x="172.78" y="77.41" width="67.26" height="1.99"/><rect id="_Rectangle_14" data-name="&lt;Rectangle&gt;" class="cls-10" x="172.78" y="80.75" width="57.42" height="1.99"/><rect id="_Rectangle_15" data-name="&lt;Rectangle&gt;" class="cls-10" x="172.78" y="83.92" width="49.14" height="1.99"/><rect class="cls-10" x="117.21" y="52.15" width="42.28" height="49.92"/><path class="cls-15" d="M769.63,293.38a8.95,8.95,0,1,0-17.89,0,8.86,8.86,0,0,0,1,4h0l8,12.79,8-12.79h0A8.86,8.86,0,0,0,769.63,293.38Z" transform="translate(-623.55 -220)"/><path class="cls-10" d="M767.27,293.2a6.58,6.58,0,1,1-6.58-6.58A6.59,6.59,0,0,1,767.27,293.2Z" transform="translate(-623.55 -220)"/><path class="cls-15" d="M763.47,294.24h-5.56a.87.87,0,1,1,0-1.73h5.56a.87.87,0,0,1,0,1.73Z" transform="translate(-623.55 -220)"/><path class="cls-15" d="M760.69,297a.87.87,0,0,1-.87-.86V290.6a.87.87,0,1,1,1.73,0v5.56A.87.87,0,0,1,760.69,297Z" transform="translate(-623.55 -220)"/><rect class="cls-13" y="441.41" width="152.69" height="77.08"/><rect id="_Rectangle_16" data-name="&lt;Rectangle&gt;" class="cls-10" x="65.13" y="458.16" width="35.87" height="1.99"/><rect id="_Rectangle_17" data-name="&lt;Rectangle&gt;" class="cls-10" x="65.13" y="472.13" width="67.26" height="1.99"/><rect id="_Rectangle_18" data-name="&lt;Rectangle&gt;" class="cls-10" x="65.13" y="468.88" width="53.79" height="1.99"/><rect id="_Rectangle_19" data-name="&lt;Rectangle&gt;" class="cls-10" x="65.13" y="475.3" width="67.26" height="1.99"/><rect id="_Rectangle_20" data-name="&lt;Rectangle&gt;" class="cls-10" x="65.13" y="484.65" width="67.26" height="1.99"/><rect id="_Rectangle_21" data-name="&lt;Rectangle&gt;" class="cls-10" x="65.13" y="487.82" width="67.26" height="1.99"/><rect id="_Rectangle_22" data-name="&lt;Rectangle&gt;" class="cls-10" x="65.13" y="491.17" width="67.26" height="1.99"/><rect id="_Rectangle_23" data-name="&lt;Rectangle&gt;" class="cls-10" x="65.13" y="494.33" width="49.14" height="1.99"/><rect class="cls-10" x="9.56" y="453.62" width="42.28" height="49.92"/><path class="cls-15" d="M662.54,694.6a9.5,9.5,0,1,0-18,4.3h0L653,712.49l8.46-13.59h0A9.41,9.41,0,0,0,662.54,694.6Z" transform="translate(-623.55 -220)"/><path class="cls-10" d="M660,694.41a7,7,0,1,1-7-7A7,7,0,0,1,660,694.41Z" transform="translate(-623.55 -220)"/><path class="cls-15" d="M656,695.52h-5.91a.92.92,0,0,1,0-1.84H656a.92.92,0,1,1,0,1.84Z" transform="translate(-623.55 -220)"/><path class="cls-15" d="M653,698.47a.92.92,0,0,1-.92-.91v-5.91a.92.92,0,1,1,1.83,0v5.91A.91.91,0,0,1,653,698.47Z" transform="translate(-623.55 -220)"/><polygon class="cls-13" points="134.25 445.21 158.57 406.45 106.21 445.21 134.25 445.21"/></svg>