<svg id="Layer_1" data-name="Layer 1" xmlns="http://www.w3.org/2000/svg" viewBox="0 0 206 206"><defs><style>.cls-1{fill:#8160d1;}</style></defs><title>servicesicons</title><path class="cls-1" d="M127.14,140.21a4,4,0,1,0,4,4,4,4,0,0,0-4-4Zm0,0"/><path class="cls-1" d="M185.88,1H20.12A20.15,20.15,0,0,0,0,21.12V144.23a20.14,20.14,0,0,0,20.12,20.12H82.88v18.51h-4A20.13,20.13,0,0,0,58.74,203a4,4,0,0,0,4,4h80.46a4,4,0,0,0,4-4,20.14,20.14,0,0,0-20.12-20.12h-4V164.35h62.76A20.14,20.14,0,0,0,206,144.23V21.12A20.15,20.15,0,0,0,185.88,1ZM20.12,9.05H185.88A12.08,12.08,0,0,1,198,21.12v103H179.44V31.58a4,4,0,0,0-4-4H143.23a4,4,0,0,0-4,4v92.54H119.07c0-4.17-.15-8.27-.32-12.25a258.58,258.58,0,0,0-3.15-32.19,20.13,20.13,0,0,0,5.5-26.24L107.15,29.29a4,4,0,0,0-7,0l-14,24.15a20.11,20.11,0,0,0,4.43,25.39,255.22,255.22,0,0,0-3.39,33c-.18,4-.3,8.12-.34,12.25H66.79V63.77a4,4,0,0,0-.4-1.74l0-.06L50.27,29.78a4,4,0,0,0-7.2,0L27,62,27,62a4,4,0,0,0-.39,1.74v60.35H8.05v-103A12.08,12.08,0,0,1,20.12,9.05ZM147.26,124.12V35.6H171.4v8h-4a4,4,0,0,0,0,8.05h4V63.77h-4a4,4,0,0,0,0,8h4V83.88h-4a4,4,0,0,0,0,8.05h4V108h-4a4,4,0,0,0,0,8h4v8.05ZM103.67,83.6a19.77,19.77,0,0,0,4.34-.48c.74,4.79,1.84,13.26,2.49,24.9h-15a252,252,0,0,1,2.63-25.18,20.43,20.43,0,0,0,5.52.76Zm0-8A12.09,12.09,0,0,1,93.2,57.47l10.47-18.12,10.46,18.11a12.08,12.08,0,0,1-10.46,18.1Zm-8.51,40.51h15.69c.09,2.64.15,5.33.18,8.05H95c0-2.7.09-5.39.19-8.05ZM50.7,124.12V67.79h8v56.33Zm-16.1,0V67.79h8v56.33Zm2.49-64.38,9.58-19.17,9.58,19.17ZM138.52,199H67.47a12.11,12.11,0,0,1,11.39-8h48.28a12.08,12.08,0,0,1,11.38,8Zm-23.45-16.09H90.93V164.35h24.14Zm70.81-26.56H20.12A12.08,12.08,0,0,1,8.05,144.23V132.16H198v12.07a12.08,12.08,0,0,1-12.07,12.07Zm0,0"/><path class="cls-1" d="M111.05,140.21H86.91a4,4,0,1,0,0,8h24.14a4,4,0,0,0,0-8Zm0,0"/></svg>