<svg id="Layer_1" data-name="Layer 1" xmlns="http://www.w3.org/2000/svg" viewBox="0 0 206 206"><defs><style>.cls-1{fill:#fe7d00;}</style></defs><title>servicesicons</title><path class="cls-1" d="M192.33,1.17H14.67A13.92,13.92,0,0,0,1,15.3V131.84a3.48,3.48,0,0,0,3.42,3.53H202.58a3.48,3.48,0,0,0,3.42-3.53V15.3A13.92,13.92,0,0,0,192.33,1.17Zm6.83,127.13H7.83V15.3a7,7,0,0,1,6.84-7.07H192.33a7,7,0,0,1,6.83,7.07Zm0,0"/><path class="cls-1" d="M202.58,128.3H4.42A3.48,3.48,0,0,0,1,131.84v17.65a13.92,13.92,0,0,0,13.67,14.13H192.33A13.92,13.92,0,0,0,206,149.49V131.84a3.48,3.48,0,0,0-3.42-3.54Zm-3.42,21.19a7,7,0,0,1-6.83,7.07H14.67a7,7,0,0,1-6.84-7.07V135.37H199.16Zm0,0"/><path class="cls-1" d="M113.75,142.43H93.25a3.53,3.53,0,0,0,0,7.06h20.5a3.53,3.53,0,0,0,0-7.06Zm0,0"/><path class="cls-1" d="M188.91,15.29H18.08a3.48,3.48,0,0,0-3.41,3.54v113a3.47,3.47,0,0,0,3.41,3.53H188.92a3.47,3.47,0,0,0,3.41-3.53v-113a3.48,3.48,0,0,0-3.42-3.54Zm-3.41,113H21.5V22.36h164Zm0,0"/><path class="cls-1" d="M147.92,184.81H59.08a10.6,10.6,0,0,0,0,21.19h88.84a10.6,10.6,0,0,0,0-21.19Zm0,14.13H59.08a3.54,3.54,0,0,1,0-7.07h88.84a3.54,3.54,0,0,1,0,7.07Zm0,0"/><path class="cls-1" d="M141.08,184.81c-11.33,0-17.08-8.32-17.08-24.72a3.48,3.48,0,0,0-3.42-3.53H86.42A3.48,3.48,0,0,0,83,160.09c0,16.4-5.75,24.72-17.08,24.72a3.53,3.53,0,0,0,0,7.06h75.16a3.53,3.53,0,0,0,0-7.06Zm-58.52,0c4.2-4.82,6.68-12,7.18-21.19h27.52c.5,9.2,3,16.37,7.18,21.19Zm0,0"/><path class="cls-1" d="M164.26,105.22,156,96.7,160.6,92a3.61,3.61,0,0,0,.9-3.36,3.49,3.49,0,0,0-2.33-2.52L125,75.48a3.32,3.32,0,0,0-3.39.89,3.6,3.6,0,0,0-.86,3.51L131,115.19a3.45,3.45,0,0,0,2.44,2.41,3.35,3.35,0,0,0,3.25-.93l4.83-5,8.25,8.53a3.35,3.35,0,0,0,4.83,0l9.66-10a3.61,3.61,0,0,0,0-5Zm-12.08,7.5L144.67,105a4.35,4.35,0,0,0-6.3,0l-2.47,2.55-6.78-23.37,22.61,7-2.65,2.73a4.1,4.1,0,0,0,0,5.66l7.92,8.19Zm0,0"/><path class="cls-1" d="M144.5,29.42H48.83A3.47,3.47,0,0,0,45.42,33V50.61a3.47,3.47,0,0,0,3.41,3.53H144.5a3.48,3.48,0,0,0,3.42-3.53V33a3.48,3.48,0,0,0-3.42-3.53Zm-3.42,17.66H52.25V36.48h88.83Zm0,0"/><path class="cls-1" d="M89.83,68.27H62.5a3.48,3.48,0,0,0-3.42,3.53V85.93a3.48,3.48,0,0,0,3.42,3.53H89.83a3.48,3.48,0,0,0,3.42-3.53V71.8a3.48,3.48,0,0,0-3.42-3.53ZM86.42,82.39H65.92V75.33h20.5Zm0,0"/><path class="cls-1" d="M144.5,29.42H48.83A3.47,3.47,0,0,0,45.42,33v67.1a3.47,3.47,0,0,0,3.41,3.53h81.34a3.36,3.36,0,0,0,2.74-1.42,3.61,3.61,0,0,0,.53-3.12l-4.32-14.91,14.4,4.47a3.31,3.31,0,0,0,3-.56,3.54,3.54,0,0,0,1.38-2.83V33a3.48,3.48,0,0,0-3.42-3.53Zm-3.42,51.05-16.08-5a3.33,3.33,0,0,0-3.4.89,3.61,3.61,0,0,0-.85,3.51l4.83,16.64H52.25v-60h88.83Zm0,0"/></svg>