<svg id="Layer_1" data-name="Layer 1" xmlns="http://www.w3.org/2000/svg" viewBox="0 0 206 206"><defs><style>.cls-1{fill:#43a43d;}</style></defs><title>servicesicons</title><path class="cls-1" d="M79.65,14.59h-29a4,4,0,1,0,0,8h29a4,4,0,0,0,0-8Zm0,0"/><path class="cls-1" d="M68,185.43a4,4,0,0,0-5.69,0,4,4,0,0,0,2.85,6.87A4,4,0,0,0,68,185.43Zm0,0"/><path class="cls-1" d="M180.1,129.59,165.3,104a18.14,18.14,0,0,0-17.68-30.62L132.83,47.7a4,4,0,0,0-6.65-.46L80.1,106.07,60.77,117.23a23.1,23.1,0,0,0,5.57,42.33,23.38,23.38,0,0,0,6,.8,22.92,22.92,0,0,0,11.51-3.11l2.31-1.33,8,13.91H8V35.51H122.29v1.2a4,4,0,1,0,8,0V17.51a15.81,15.81,0,0,0-15.8-15.79H15.79A15.8,15.8,0,0,0,0,17.51V191.89a15.8,15.8,0,0,0,15.79,15.79h98.75a15.81,15.81,0,0,0,15.8-15.79V142.24l46.84-6.66a4,4,0,0,0,2.92-6ZM8,17.51a7.76,7.76,0,0,1,7.75-7.75h98.75a7.76,7.76,0,0,1,7.75,7.75v10H8ZM155.59,80.92a10.07,10.07,0,0,1,5.5,15.73l-9.25-16a9.94,9.94,0,0,1,3.75.29ZM79.85,150.28A15.06,15.06,0,1,1,64.79,124.2l16.53-9.54,15.06,26.08Zm13.29,1.62,7.26-4.19,9.5,16.46-7.25,4.19Zm29.15,40a7.75,7.75,0,0,1-7.75,7.74H15.79A7.75,7.75,0,0,1,8,191.89v-14H122.29Zm0-22.06h-6.1l1.22-.7a4,4,0,0,0,1.47-5.5l-10.54-18.26,14-2Zm-18.29-32L87.63,109.51l29.26-37.37,34.09,59Zm55.56-7.9L122.24,65.31l6.6-8.42,41.32,71.56Zm0,0"/><path class="cls-1" d="M205.46,60.5A4,4,0,0,0,200,59L180.24,70.41a4,4,0,1,0,4,7L204,66a4,4,0,0,0,1.47-5.49Zm0,0"/><path class="cls-1" d="M169.05,42.83a4,4,0,0,0-4.93,2.85l-2.87,10.73a4,4,0,0,0,2.84,4.93,4.21,4.21,0,0,0,1,.14,4,4,0,0,0,3.88-3l2.88-10.73a4,4,0,0,0-2.85-4.93Zm0,0"/><path class="cls-1" d="M199.77,95.46l-11.09-3a4,4,0,0,0-2.08,7.77l11.09,3a4.21,4.21,0,0,0,1.05.14,4,4,0,0,0,1-7.91Zm0,0"/><path class="cls-1" d="M76.3,47.24H20.79a4,4,0,0,0,0,8H76.3a4,4,0,0,0,0-8Zm0,0"/><path class="cls-1" d="M79.14,67.73a4,4,0,1,0,1.18,2.84,4,4,0,0,0-1.18-2.84Zm0,0"/><path class="cls-1" d="M59.67,66.55H20.79a4,4,0,0,0,0,8H59.67a4,4,0,0,0,0-8Zm0,0"/><path class="cls-1" d="M66.74,85.86H36.24a4,4,0,0,0,0,8h30.5a4,4,0,1,0,0-8Zm0,0"/><path class="cls-1" d="M20.94,85.86h-.18a4,4,0,1,0,0,8h.18a4,4,0,0,0,0-8Zm0,0"/></svg>