<svg id="Layer_1" data-name="Layer 1" xmlns="http://www.w3.org/2000/svg" viewBox="0 0 206 206"><defs><style>.cls-1{fill:#457bf4;}</style></defs><title>servicesicons</title><path class="cls-1" d="M196.5,198h-8.82V69.82A10.83,10.83,0,0,0,176.86,59H157.14a10.83,10.83,0,0,0-10.82,10.81V198h-22.4V127.88a10.83,10.83,0,0,0-10.82-10.82H93.38a10.83,10.83,0,0,0-10.82,10.82V198H60.15V161.66a10.83,10.83,0,0,0-10.81-10.82H29.61A10.83,10.83,0,0,0,18.8,161.66V198H9.5a4,4,0,1,0,0,8.05h187a4,4,0,1,0,0-8.05ZM52.11,198H26.84V161.66a2.78,2.78,0,0,1,2.77-2.77H49.34a2.78,2.78,0,0,1,2.77,2.77Zm63.76,0H90.61V127.88a2.77,2.77,0,0,1,2.77-2.77H113.1a2.77,2.77,0,0,1,2.77,2.77Zm63.76,0H154.37V69.82a2.77,2.77,0,0,1,2.77-2.77h19.72a2.77,2.77,0,0,1,2.77,2.77Zm0,0"/><path class="cls-1" d="M187.67,4.23A4,4,0,0,0,183.45,0H158.91a4,4,0,0,0,0,8.05h15L134.17,47.82l-15-15a4,4,0,0,0-5.69,0L41.15,105.15a4,4,0,1,0,5.69,5.69l69.48-69.48,15,15a4,4,0,0,0,5.69,0l42.62-42.62v13.6a4,4,0,0,0,8.05,0V4.43c0-.07,0-.13,0-.2Zm0,0"/><path class="cls-1" d="M34.46,122a4,4,0,1,1-4-4,4,4,0,0,1,4,4Zm0,0"/></svg>