<svg id="Layer_1" data-name="Layer 1" xmlns="http://www.w3.org/2000/svg" viewBox="0 0 206 206"><defs><style>.cls-1{fill:#64798a;}</style></defs><title>servicesicons</title><path class="cls-1" d="M147.42.5H58.58A17.1,17.1,0,0,0,41.5,17.58V188.42A17.1,17.1,0,0,0,58.58,205.5h88.84a17.1,17.1,0,0,0,17.08-17.08V17.58A17.1,17.1,0,0,0,147.42.5ZM58.58,7.33h88.84a10.25,10.25,0,0,1,10.25,10.25V27.83H48.33V17.58A10.25,10.25,0,0,1,58.58,7.33Zm99.09,27.34V171.33H48.33V34.67Zm-10.25,164H58.58a10.25,10.25,0,0,1-10.25-10.25V178.17H157.67v10.25a10.25,10.25,0,0,1-10.25,10.25Zm0,0"/><rect class="cls-1" x="99.58" y="185" width="6.83" height="6.83"/><rect class="cls-1" x="62" y="14.17" width="6.83" height="6.83"/><rect class="cls-1" x="75.67" y="14.17" width="20.5" height="6.83"/><path class="cls-1" d="M58.58,137.17a17.11,17.11,0,0,0,17.09,17.08h41a17,17,0,0,0,8.5-2.35,17,17,0,0,0,25.66-14.73v-41a17.08,17.08,0,1,0-34.16,0v23.91h-41a17.11,17.11,0,0,0-17.09,17.09Zm6.84,0a10.25,10.25,0,0,1,10.25-10.25H92.75v20.5H75.67a10.25,10.25,0,0,1-10.25-10.25Zm68.33-51.25A10.23,10.23,0,0,1,144,96.13v17.12H123.5V96.17a10.24,10.24,0,0,1,10.25-10.25ZM123.5,120.08H144v17.09a10.25,10.25,0,0,1-10.25,10.25,10.46,10.46,0,0,1-3.09-.5,17,17,0,0,0-4.14-23.7,17.53,17.53,0,0,0-3-1.69Zm3.42,17.09a10.25,10.25,0,0,1-10.25,10.25H99.58v-20.5h17.09a10.25,10.25,0,0,1,10.25,10.25Zm0,0"/><path class="cls-1" d="M85.92,106.42A27.34,27.34,0,1,0,58.58,79.08a27.34,27.34,0,0,0,27.34,27.34Zm0-47.84a20.5,20.5,0,1,1-20.5,20.5,20.5,20.5,0,0,1,20.5-20.5Zm0,0"/><path class="cls-1" d="M82.5,92.75h6.83V82.5H99.58V75.67H89.33V65.42H82.5V75.67H72.25V82.5H82.5Zm0,0"/></svg>