<svg id="Layer_1" data-name="Layer 1" xmlns="http://www.w3.org/2000/svg" viewBox="0 0 88.74 88.74"><defs><style>.cls-1{fill:#8160d1;}</style></defs><title>icon4</title><path class="cls-1" d="M1003.59,567.72l-23-23a1.43,1.43,0,0,0-2,0l-5.75,5.76-2-2,15.13-15.13a1.42,1.42,0,0,0,0-2l-.7-.7,5.67-5.68a1.37,1.37,0,0,0,.41-1.12l-.59-6.9a5.47,5.47,0,0,0-1.43-3.07l-2.63-2.63a5.47,5.47,0,0,0-3.07-1.43l-6.9-.59h-.34l-.09,0h0l-.1,0,0,0-.1,0,0,0-.09.05,0,0-.09.07,0,0-.11.1-5.68,5.67-.7-.7a1.42,1.42,0,0,0-2,0L952,529.7l-2-2,5.76-5.75a1.43,1.43,0,0,0,0-2l-23-23a1.4,1.4,0,0,0-2,0l-13.52,13.51a1.42,1.42,0,0,0,0,2l23,23a1.41,1.41,0,0,0,1,.42,1.38,1.38,0,0,0,1-.42L948,529.7l2,2-14.52,14.53a1.4,1.4,0,0,0,0,2l5,5-2.27,2.28a28.69,28.69,0,0,0-16.81-5.4,29.32,29.32,0,0,0-5,.44,1.43,1.43,0,0,0-1.1,1,1.4,1.4,0,0,0,.35,1.43l7.6,7.6L922,572.91a1.43,1.43,0,0,0,.41,1.15l4,4a1.42,1.42,0,0,0,1,.42h.15l12.33-1.27,7.6,7.6a1.42,1.42,0,0,0,1,.42,1.29,1.29,0,0,0,.43-.07,1.42,1.42,0,0,0,1-1.1,29,29,0,0,0-4.41-21l2.4-2.4,4.36,4.36a1.44,1.44,0,0,0,1,.41,1.41,1.41,0,0,0,1-.41l14.53-14.53,2,2L965,558.2a1.42,1.42,0,0,0,0,2l23,23a1.42,1.42,0,0,0,1,.41,1.4,1.4,0,0,0,1-.41l13.52-13.52a1.42,1.42,0,0,0,0-2Zm-50.8-46.78-2.5,2.5-9.52-9.52,2.51-2.5Zm-32.54-9.53,2.5-2.5,6.51,6.51a1.41,1.41,0,0,0,1,.42,1.42,1.42,0,0,0,1-2.42l-6.51-6.51,2.5-2.51,6.52,6.52a1.42,1.42,0,0,0,1,.41,1.44,1.44,0,0,0,1-.41,1.42,1.42,0,0,0,0-2l-6.51-6.52,2.5-2.5,9.51,9.52-3.5,3.5-4.5,4.5-3.51,3.51Zm21,21-9.51-9.52,2.5-2.5,9.51,9.52Zm5.76-5.76-1.25,1.25-9.52-9.51,2.5-2.51,9.52,9.52Zm29.51-14.09L983,519a1.44,1.44,0,0,0,2,0,1.43,1.43,0,0,0,0-2l-4.68-4.68,3,.26a2.88,2.88,0,0,1,1.31.61l2.63,2.63a2.88,2.88,0,0,1,.61,1.31l.53,6.24-5.2,5.21-11.33-11.32Zm-48.6,63-3.05-3.05,1-9.37,11.46,11.46Zm19.5,5.17L919.74,553c.57,0,1.15,0,1.73,0a25.83,25.83,0,0,1,16,5.52l0,0a27.09,27.09,0,0,1,2.35,2.08,26.1,26.1,0,0,1,7.57,20.15Zm-3.66-20c-.6-.73-1.24-1.44-1.91-2.11-.45-.45-.9-.87-1.37-1.29l2-2,3.34,3.33Zm9.46,1.25-14.73-14.73,29.65-29.66,14.74,14.74ZM968,559.2l2.5-2.5,6.52,6.51a1.38,1.38,0,0,0,1,.41,1.4,1.4,0,0,0,1-.41,1.42,1.42,0,0,0,0-2l-6.51-6.52,1.25-1.25,1.25-1.25,6.51,6.51a1.42,1.42,0,1,0,2-2L977,550.19l2.5-2.5,9.52,9.51-11.51,11.52Zm21,21-9.52-9.51,2.51-2.5,9.51,9.51Zm4.5-4.5-9.51-9.52,2.5-2.5,9.52,9.52Zm4.51-4.5-9.52-9.52,2.5-2.5,9.52,9.51Zm0,0" transform="translate(-915.26 -496.48)"/><path class="cls-1" d="M920.42,576.06a1.42,1.42,0,0,0-2,2l4,4a1.42,1.42,0,0,0,1,.41,1.44,1.44,0,0,0,1-.41,1.42,1.42,0,0,0,0-2Zm0,0" transform="translate(-915.26 -496.48)"/></svg>