<svg id="Layer_1" data-name="Layer 1" xmlns="http://www.w3.org/2000/svg" viewBox="0 0 307.25 92.12"><defs><style>.cls-1{fill:#2e1447;}.cls-2{opacity:0.75;}</style></defs><title>logobot</title><path class="cls-1" d="M894.93,519.36v-4.19h3.65v4.19Zm.26,32.41V525.64h3.14v26.13Z" transform="translate(-805.75 -494.5)"/><path class="cls-1" d="M899.33,552.77h-5.14V524.64h5.14Zm-3.14-2h1.14V526.64h-1.14Zm3.39-30.41h-5.65v-6.19h5.65Zm-3.65-2h1.65v-2.19h-1.65Z" transform="translate(-805.75 -494.5)"/><path class="cls-1" d="M926.59,546.28a9,9,0,0,1-4.8,4.79,8.84,8.84,0,0,1-3.51.7H906.7v-36.6h11.58a9.08,9.08,0,0,1,6.38,2.63,9.12,9.12,0,0,1,1.93,2.87,8.84,8.84,0,0,1,.7,3.51v18.61A8.67,8.67,0,0,1,926.59,546.28ZM924,524.18a5.63,5.63,0,0,0-.46-2.28,6,6,0,0,0-3.13-3.13,5.73,5.73,0,0,0-2.28-.46H910v30.32h8.14a5.56,5.56,0,0,0,2.28-.46,6,6,0,0,0,1.87-1.25,5.84,5.84,0,0,0,1.26-1.85,5.6,5.6,0,0,0,.46-2.28Z" transform="translate(-805.75 -494.5)"/><path class="cls-1" d="M918.28,552.77H905.7v-38.6h12.58a10.06,10.06,0,0,1,7.09,2.93,10.12,10.12,0,0,1,2.14,3.18,9.88,9.88,0,0,1,.78,3.9v18.61a9.79,9.79,0,0,1-.78,3.89,10.19,10.19,0,0,1-2.14,3.17,10.05,10.05,0,0,1-3.19,2.14A9.81,9.81,0,0,1,918.28,552.77Zm-10.58-2h10.58a8,8,0,0,0,3.12-.62,7.91,7.91,0,0,0,4.27-4.26,7.84,7.84,0,0,0,.62-3.1V524.18a7.88,7.88,0,0,0-.62-3.11,7.88,7.88,0,0,0-4.27-4.27,7.8,7.8,0,0,0-3.12-.63H907.7Zm10.43-1.14H909V517.31h9.14a6.69,6.69,0,0,1,2.68.55,7,7,0,0,1,3.65,3.64,6.68,6.68,0,0,1,.54,2.68v18.61a6.68,6.68,0,0,1-.54,2.68,6.76,6.76,0,0,1-1.48,2.16,6.86,6.86,0,0,1-2.17,1.46A6.68,6.68,0,0,1,918.13,549.63Zm-7.14-2h7.14a4.76,4.76,0,0,0,1.89-.37,5.22,5.22,0,0,0,1.56-1,4.81,4.81,0,0,0,1-1.54,4.68,4.68,0,0,0,.38-1.88V524.18a4.51,4.51,0,0,0-.38-1.88,5,5,0,0,0-1-1.56,5.18,5.18,0,0,0-1.55-1,4.73,4.73,0,0,0-1.89-.38H911Z" transform="translate(-805.75 -494.5)"/><path class="cls-1" d="M950.94,547.59a7.65,7.65,0,0,1-4.1,4.09,7.48,7.48,0,0,1-3,.6h-2.1a7.48,7.48,0,0,1-3-.6,7.69,7.69,0,0,1-2.45-1.64,7.78,7.78,0,0,1-1.65-2.45,7.53,7.53,0,0,1-.6-3V532.81a7.53,7.53,0,0,1,.6-3,7.78,7.78,0,0,1,1.65-2.45,7.69,7.69,0,0,1,2.45-1.64,7.48,7.48,0,0,1,3-.6h2.1a7.48,7.48,0,0,1,3,.6,7.65,7.65,0,0,1,4.1,4.09,7.53,7.53,0,0,1,.6,3V539H937.22v5.82a4.55,4.55,0,0,0,1.33,3.21,4.46,4.46,0,0,0,1.44,1,4.38,4.38,0,0,0,1.77.36h2.1a4.41,4.41,0,0,0,1.77-.36,4.46,4.46,0,0,0,1.44-1,4.55,4.55,0,0,0,1.33-3.21V543l3.14.51v1.05A7.53,7.53,0,0,1,950.94,547.59Zm-2.54-15a4.55,4.55,0,0,0-1.33-3.21,4.46,4.46,0,0,0-1.44-1,4.41,4.41,0,0,0-1.77-.36h-2.1a4.38,4.38,0,0,0-1.77.36,4.46,4.46,0,0,0-1.44,1,4.55,4.55,0,0,0-1.33,3.21v3.88H948.4Z" transform="translate(-805.75 -494.5)"/><path class="cls-1" d="M943.86,553.28h-2.1a8.66,8.66,0,0,1-8.68-8.68V532.81a8.66,8.66,0,0,1,8.68-8.68h2.1a8.53,8.53,0,0,1,3.37.68,8.68,8.68,0,0,1,4.63,4.62,8.58,8.58,0,0,1,.68,3.38V540H938.22v4.82a3.34,3.34,0,0,0,.28,1.38,3.42,3.42,0,0,0,1.88,1.88,3.37,3.37,0,0,0,1.38.28h2.1a3.49,3.49,0,0,0,1.37-.27,3.79,3.79,0,0,0,1.14-.76,3.72,3.72,0,0,0,.75-1.13,3.34,3.34,0,0,0,.28-1.38v-2.91l5.14.83v1.9a8.58,8.58,0,0,1-.68,3.38h0a8.68,8.68,0,0,1-4.63,4.62A8.53,8.53,0,0,1,943.86,553.28Zm-2.1-27.15a6.48,6.48,0,0,0-2.59.52,6.6,6.6,0,0,0-3.57,3.57,6.44,6.44,0,0,0-.52,2.59V544.6a6.44,6.44,0,0,0,.52,2.59,6.6,6.6,0,0,0,3.57,3.57,6.48,6.48,0,0,0,2.59.52h2.1a6.48,6.48,0,0,0,2.59-.52,6.67,6.67,0,0,0,4.09-6.16v-.2l-1.14-.18v.56A5.5,5.5,0,0,1,949,547a5.62,5.62,0,0,1-1.18,1.75,5.58,5.58,0,0,1-3.92,1.62h-2.1a5.53,5.53,0,0,1-5.54-5.54V538h14.32v-5.15a6.68,6.68,0,0,0-4.09-6.16,6.48,6.48,0,0,0-2.59-.52Zm7.64,11.38H936.22v-4.88a5.53,5.53,0,0,1,5.54-5.54h2.1a5.58,5.58,0,0,1,3.92,1.62,5.62,5.62,0,0,1,1.18,1.75,5.5,5.5,0,0,1,.44,2.17Zm-11.18-2h9.18v-2.88a3.34,3.34,0,0,0-.28-1.38,3.54,3.54,0,0,0-1.89-1.89,3.49,3.49,0,0,0-1.37-.27h-2.1a3.54,3.54,0,0,0-1.38.27,3.87,3.87,0,0,0-1.13.76,3.66,3.66,0,0,0-.75,1.13,3.34,3.34,0,0,0-.28,1.38Z" transform="translate(-805.75 -494.5)"/><path class="cls-1" d="M966,551.77h-1.56l-9.26-26.13h3.14l6.81,19.8.1,1.35.1-1.35,6.79-19.8h3.14Z" transform="translate(-805.75 -494.5)"/><path class="cls-1" d="M966.71,552.77h-3l-10-28.13H959l6.2,18,6.18-18h5.27Zm-1.55-2h.14l8.56-24.13h-1l-6.52,19-.09,1.22h-2l-.1-1.22-6.54-19h-1Z" transform="translate(-805.75 -494.5)"/><path class="cls-1" d="M979.71,519.36v-4.19h3.65v4.19Zm.26,32.41V525.64h3.14v26.13Z" transform="translate(-805.75 -494.5)"/><path class="cls-1" d="M984.11,552.77H979V524.64h5.14Zm-3.14-2h1.14V526.64H981Zm3.39-30.41h-5.65v-6.19h5.65Zm-3.65-2h1.65v-2.19h-1.65Z" transform="translate(-805.75 -494.5)"/><path class="cls-1" d="M1006.84,551.77l-1.73-2.6a8.27,8.27,0,0,1-2.68,2.26,7.38,7.38,0,0,1-3.52.85h-.8a7.48,7.48,0,0,1-3-.6,7.65,7.65,0,0,1-4.1-4.09,7.53,7.53,0,0,1-.6-3v-.26a7.48,7.48,0,0,1,.6-3,7.71,7.71,0,0,1,4.1-4.1,7.48,7.48,0,0,1,3-.6h6.64v-4a4.55,4.55,0,0,0-1.33-3.21,4.46,4.46,0,0,0-1.44-1,4.38,4.38,0,0,0-1.77-.36h-1.84a4.59,4.59,0,0,0-3.22,1.33,4.48,4.48,0,0,0-1.32,3.21v1l-3.14-.52v-.25a7.53,7.53,0,0,1,.6-3,7.59,7.59,0,0,1,4.09-4.09,7.53,7.53,0,0,1,3-.6h1.84a7.48,7.48,0,0,1,3,.6,7.69,7.69,0,0,1,2.45,1.64,7.78,7.78,0,0,1,1.65,2.45,7.53,7.53,0,0,1,.6,3v19Zm-2.09-12.66h-6.64a4.38,4.38,0,0,0-1.77.36,4.65,4.65,0,0,0-1.44,1,4.72,4.72,0,0,0-1,1.46,4.38,4.38,0,0,0-.36,1.77v1.1A4.55,4.55,0,0,0,994.9,548a4.46,4.46,0,0,0,1.44,1,4.38,4.38,0,0,0,1.77.36h2.1A4.38,4.38,0,0,0,1002,549a4.46,4.46,0,0,0,1.44-1,4.55,4.55,0,0,0,1.33-3.21Z" transform="translate(-805.75 -494.5)"/><path class="cls-1" d="M998.91,553.28h-.8a8.69,8.69,0,0,1-6.14-2.54,8.78,8.78,0,0,1-1.86-2.76,8.58,8.58,0,0,1-.68-3.38v-.26a8.61,8.61,0,0,1,.68-3.38A9,9,0,0,1,992,538.2a8.78,8.78,0,0,1,2.76-1.86,8.61,8.61,0,0,1,3.38-.68h5.64v-3a3.34,3.34,0,0,0-.28-1.38,3.54,3.54,0,0,0-.75-1.13,3.73,3.73,0,0,0-1.14-.76,3.45,3.45,0,0,0-1.37-.27h-1.84a3.5,3.5,0,0,0-1.38.27,3.57,3.57,0,0,0-1.13.76,3.68,3.68,0,0,0-.76,1.13,3.5,3.5,0,0,0-.27,1.38v2.12l-5.14-.83v-1.11a8.66,8.66,0,0,1,8.68-8.68h1.84a8.69,8.69,0,0,1,6.14,2.54,8.78,8.78,0,0,1,1.86,2.76,8.58,8.58,0,0,1,.68,3.38v20h-2.58l-1.32-2a9.29,9.29,0,0,1-2.09,1.51A8.38,8.38,0,0,1,998.91,553.28Zm-.8-15.62a6.67,6.67,0,0,0-6.68,6.68v.26a6.62,6.62,0,0,0,.52,2.59,6.6,6.6,0,0,0,3.57,3.57,6.48,6.48,0,0,0,2.59.52h.8a6.43,6.43,0,0,0,3.05-.74,7.06,7.06,0,0,0,2.35-2l.85-1.11,1.73,2.59V532.81a6.68,6.68,0,0,0-4.09-6.16,6.48,6.48,0,0,0-2.59-.52h-1.84a6.44,6.44,0,0,0-2.59.52,6.6,6.6,0,0,0-3.57,3.57,6.46,6.46,0,0,0-.5,2l1.12.18a5.45,5.45,0,0,1,1.62-3.69,5.3,5.3,0,0,1,1.75-1.18,5.5,5.5,0,0,1,2.17-.44h1.84a5.54,5.54,0,0,1,3.92,1.62,5.62,5.62,0,0,1,1.18,1.75,5.5,5.5,0,0,1,.44,2.17v5Zm2.1,12.66h-2.1a5.54,5.54,0,0,1-3.92-1.62A5.62,5.62,0,0,1,993,547a5.5,5.5,0,0,1-.44-2.17v-1.1a5.5,5.5,0,0,1,.44-2.17,6,6,0,0,1,1.17-1.76,5.67,5.67,0,0,1,1.76-1.2,5.5,5.5,0,0,1,2.17-.44h7.64v6.67a5.5,5.5,0,0,1-.44,2.17,5.62,5.62,0,0,1-1.18,1.75,5.54,5.54,0,0,1-3.92,1.62Zm-2.1-10.21a3.33,3.33,0,0,0-1.37.28,3.57,3.57,0,0,0-1.13.76,3.78,3.78,0,0,0-.76,1.15,3.37,3.37,0,0,0-.28,1.38v1.1a3.34,3.34,0,0,0,.28,1.38,3.51,3.51,0,0,0,1.88,1.88,3.41,3.41,0,0,0,1.38.28h2.1a3.45,3.45,0,0,0,1.37-.27,3.79,3.79,0,0,0,1.14-.76,3.54,3.54,0,0,0,.75-1.13,3.34,3.34,0,0,0,.28-1.38v-4.67Z" transform="translate(-805.75 -494.5)"/><g class="cls-2"><path class="cls-1" d="M1036.11,518.31v33.46h-3.29V518.31h-8.73v-3.14h20.75v3.14Z" transform="translate(-805.75 -494.5)"/><path class="cls-1" d="M1063.79,547.59a7.59,7.59,0,0,1-4.09,4.09,7.53,7.53,0,0,1-3,.6h-2.09a7.53,7.53,0,0,1-3-.6,7.92,7.92,0,0,1-2.45-1.64,7.75,7.75,0,0,1-1.64-2.45,7.53,7.53,0,0,1-.6-3V532.81a7.53,7.53,0,0,1,.6-3,7.75,7.75,0,0,1,1.64-2.45,7.92,7.92,0,0,1,2.45-1.64,7.53,7.53,0,0,1,3-.6h2.09a7.53,7.53,0,0,1,3,.6,7.59,7.59,0,0,1,4.09,4.09,7.53,7.53,0,0,1,.6,3V539h-14.31v5.82a4.48,4.48,0,0,0,1.32,3.21,4.55,4.55,0,0,0,3.22,1.33h2.09a4.59,4.59,0,0,0,3.22-1.33,4.48,4.48,0,0,0,1.32-3.21V543l3.14.51v1.05A7.53,7.53,0,0,1,1063.79,547.59Zm-2.54-15a4.48,4.48,0,0,0-1.32-3.21,4.59,4.59,0,0,0-3.22-1.33h-2.09a4.55,4.55,0,0,0-3.22,1.33,4.48,4.48,0,0,0-1.32,3.21v3.88h11.17Z" transform="translate(-805.75 -494.5)"/><path class="cls-1" d="M1087.53,547.59a7.65,7.65,0,0,1-4.1,4.09,7.48,7.48,0,0,1-3,.6h-2.1a7.48,7.48,0,0,1-3-.6,7.69,7.69,0,0,1-2.45-1.64,7.78,7.78,0,0,1-1.65-2.45,7.53,7.53,0,0,1-.6-3V532.81a7.53,7.53,0,0,1,.6-3,7.78,7.78,0,0,1,1.65-2.45,7.69,7.69,0,0,1,2.45-1.64,7.48,7.48,0,0,1,3-.6h2.1a7.48,7.48,0,0,1,3,.6,7.65,7.65,0,0,1,4.1,4.09,7.53,7.53,0,0,1,.6,3v1.05l-3.14.51v-1.74a4.55,4.55,0,0,0-1.33-3.21,4.46,4.46,0,0,0-1.44-1,4.41,4.41,0,0,0-1.77-.36h-2.1a4.54,4.54,0,0,0-4.54,4.54v12.15a4.54,4.54,0,0,0,4.54,4.54h2.1a4.41,4.41,0,0,0,1.77-.36,4.46,4.46,0,0,0,1.44-1,4.55,4.55,0,0,0,1.33-3.21V543l3.14.51v1.05A7.53,7.53,0,0,1,1087.53,547.59Z" transform="translate(-805.75 -494.5)"/><path class="cls-1" d="M1108.72,551.77V532.63a4.48,4.48,0,0,0-1.32-3.21,4.59,4.59,0,0,0-3.22-1.33h-2.09a4.55,4.55,0,0,0-3.22,1.33,4.55,4.55,0,0,0-1.33,3.21v19.14h-3.13v-36.6h3.13v12.66a7.71,7.71,0,0,1,2.58-2,7.63,7.63,0,0,1,3.27-.71h.79a7.53,7.53,0,0,1,3,.6,7.59,7.59,0,0,1,4.09,4.09,7.53,7.53,0,0,1,.6,3v19Z" transform="translate(-805.75 -494.5)"/></g><g class="cls-2"><path class="cls-1" d="M807.75,580.2v6.24h-2V571h4.92a5.62,5.62,0,0,1,4,1.25,4.41,4.41,0,0,1,1.32,3.39A4.31,4.31,0,0,1,814.6,579a5.64,5.64,0,0,1-3.93,1.22Zm5.37-2.44a2.83,2.83,0,0,0,.8-2.17,2.88,2.88,0,0,0-.8-2.21,3.76,3.76,0,0,0-2.62-.76h-2.75v5.91h2.75A3.66,3.66,0,0,0,813.12,577.76Z" transform="translate(-805.75 -494.5)"/><path class="cls-1" d="M820.82,584.88h5.49v1.56h-7.49V571h2Z" transform="translate(-805.75 -494.5)"/><path class="cls-1" d="M838,582.86h-6.81l-1.3,3.58H827.7l5.73-15.2h2.26l5.71,15.2h-2.15Zm-.58-1.56-2.83-7.82-2.83,7.82Z" transform="translate(-805.75 -494.5)"/><path class="cls-1" d="M855.48,572.2A7.07,7.07,0,0,1,858,576h-2.11a5.11,5.11,0,0,0-1.91-2.45,5.51,5.51,0,0,0-3.23-.91,5,5,0,0,0-4.6,2.84,7.1,7.1,0,0,0-.69,3.22,6.93,6.93,0,0,0,.69,3.18,5,5,0,0,0,4.6,2.84,5.59,5.59,0,0,0,3.23-.91,5.16,5.16,0,0,0,1.91-2.45H858a7.07,7.07,0,0,1-2.55,3.81,7.53,7.53,0,0,1-4.67,1.39,7.32,7.32,0,0,1-3.85-1,6.81,6.81,0,0,1-2.6-2.79,8.69,8.69,0,0,1-.94-4.07,8.83,8.83,0,0,1,.94-4.11,6.9,6.9,0,0,1,2.6-2.8,7.32,7.32,0,0,1,3.85-1A7.53,7.53,0,0,1,855.48,572.2Z" transform="translate(-805.75 -494.5)"/><path class="cls-1" d="M863.24,572.58v5.29h5.89v1.54h-5.89v5.41h6.54v1.62h-8.54V571h8.54v1.63Z" transform="translate(-805.75 -494.5)"/><path class="cls-1" d="M888.32,571v1.63H884v13.86h-2V572.58h-4.37V571Z" transform="translate(-805.75 -494.5)"/><path class="cls-1" d="M901.8,571.77a7.08,7.08,0,0,1,2.71,2.82,9,9,0,0,1,0,8.19,7.17,7.17,0,0,1-2.71,2.83,7.56,7.56,0,0,1-3.88,1,7.71,7.71,0,0,1-3.9-1,7.22,7.22,0,0,1-2.73-2.83,9,9,0,0,1,0-8.19,7.13,7.13,0,0,1,2.73-2.82,7.61,7.61,0,0,1,3.9-1A7.46,7.46,0,0,1,901.8,571.77Zm-6.74,1.59a5.12,5.12,0,0,0-2,2.11,7.61,7.61,0,0,0,0,6.42,5.08,5.08,0,0,0,2,2.12,5.56,5.56,0,0,0,2.86.74,5.46,5.46,0,0,0,2.85-.75,5.2,5.2,0,0,0,2-2.12,7.59,7.59,0,0,0,0-6.41,5.12,5.12,0,0,0-2-2.11,5.88,5.88,0,0,0-5.71,0Z" transform="translate(-805.75 -494.5)"/><path class="cls-1" d="M924.56,579.78a3.78,3.78,0,0,1,.89,2.49,3.84,3.84,0,0,1-1.29,3,5.41,5.41,0,0,1-3.72,1.14h-5.76V571h5.67a5.32,5.32,0,0,1,3.54,1,3.68,3.68,0,0,1-1.65,6.43A4.13,4.13,0,0,1,924.56,579.78Zm-7.88-2H920a3.29,3.29,0,0,0,2.25-.68,2.39,2.39,0,0,0,.78-1.91,2.36,2.36,0,0,0-.77-1.87,3.47,3.47,0,0,0-2.35-.68h-3.25Zm5.83,6.31a2.53,2.53,0,0,0,.87-2,2.47,2.47,0,0,0-.89-2,3.75,3.75,0,0,0-2.47-.73h-3.34v5.53h3.39A3.7,3.7,0,0,0,922.51,584.05Z" transform="translate(-805.75 -494.5)"/><path class="cls-1" d="M930.48,572.58v5.29h5.89v1.54h-5.89v5.41H937v1.62h-8.54V571H937v1.63Z" transform="translate(-805.75 -494.5)"/><path class="cls-1" d="M961.58,571.22v15.22h-2V574.29l-4.85,12.15H953l-4.88-12.1v12.1h-2V571.22h2.4l5.4,12.78,5.32-12.78Z" transform="translate(-805.75 -494.5)"/><path class="cls-1" d="M976.29,571.77a7.14,7.14,0,0,1,2.71,2.82,9,9,0,0,1,0,8.19,7.24,7.24,0,0,1-2.71,2.83,7.56,7.56,0,0,1-3.88,1,7.71,7.71,0,0,1-3.9-1,7.22,7.22,0,0,1-2.73-2.83,9,9,0,0,1,0-8.19,7.13,7.13,0,0,1,2.73-2.82,7.61,7.61,0,0,1,3.9-1A7.46,7.46,0,0,1,976.29,571.77Zm-6.74,1.59a5,5,0,0,0-2,2.11,7.52,7.52,0,0,0,0,6.42,5,5,0,0,0,2,2.12,5.56,5.56,0,0,0,2.86.74,5.49,5.49,0,0,0,2.85-.75,5.12,5.12,0,0,0,2-2.12,7.49,7.49,0,0,0,0-6.41,5,5,0,0,0-2-2.11,5.88,5.88,0,0,0-5.71,0Z" transform="translate(-805.75 -494.5)"/><path class="cls-1" d="M991.44,586.44l-4.05-6.33h-2.17v6.33h-2V571h5.1a5.53,5.53,0,0,1,3.95,1.27,4.42,4.42,0,0,1,1.32,3.35,4.3,4.3,0,0,1-1.06,3,4.9,4.9,0,0,1-3,1.44l4.22,6.39Zm-6.22-7.78h2.92q3.4,0,3.41-3t-3.41-3h-2.92Z" transform="translate(-805.75 -494.5)"/><path class="cls-1" d="M998.55,572.58v5.29h5.89v1.54h-5.89v5.41h6.55v1.62h-8.55V571h8.55v1.63Z" transform="translate(-805.75 -494.5)"/><path class="cls-1" d="M1025.68,572.2a7.12,7.12,0,0,1,2.55,3.81h-2.11a5.11,5.11,0,0,0-1.91-2.45,5.51,5.51,0,0,0-3.23-.91,5,5,0,0,0-4.6,2.84,7.1,7.1,0,0,0-.69,3.22,6.93,6.93,0,0,0,.69,3.18,5,5,0,0,0,4.6,2.84,5.59,5.59,0,0,0,3.23-.91,5.16,5.16,0,0,0,1.91-2.45h2.11a7.12,7.12,0,0,1-2.55,3.81,7.54,7.54,0,0,1-4.68,1.39,7.28,7.28,0,0,1-3.84-1,6.81,6.81,0,0,1-2.6-2.79,8.57,8.57,0,0,1-.94-4.07,8.71,8.71,0,0,1,.94-4.11,6.9,6.9,0,0,1,2.6-2.8,7.28,7.28,0,0,1,3.84-1A7.54,7.54,0,0,1,1025.68,572.2Z" transform="translate(-805.75 -494.5)"/><path class="cls-1" d="M1039.65,586.44l-4-6.33h-2.17v6.33h-2V571h5.09a5.54,5.54,0,0,1,4,1.27,4.42,4.42,0,0,1,1.32,3.35,4.34,4.34,0,0,1-1.06,3,4.9,4.9,0,0,1-3,1.44l4.22,6.39Zm-6.21-7.78h2.92q3.41,0,3.4-3t-3.4-3h-2.92Z" transform="translate(-805.75 -494.5)"/><path class="cls-1" d="M1046.77,572.58v5.29h5.89v1.54h-5.89v5.41h6.55v1.62h-8.55V571h8.55v1.63Z" transform="translate(-805.75 -494.5)"/><path class="cls-1" d="M1065.49,582.86h-6.81l-1.3,3.58h-2.15l5.73-15.2h2.26l5.71,15.2h-2.15Zm-.57-1.56-2.84-7.82-2.83,7.82Z" transform="translate(-805.75 -494.5)"/><path class="cls-1" d="M1081,571v1.63h-4.37v13.86h-2V572.58h-4.37V571Z" transform="translate(-805.75 -494.5)"/><path class="cls-1" d="M1085.48,571v15.49h-2V571Z" transform="translate(-805.75 -494.5)"/><path class="cls-1" d="M1090.22,571l4.72,13.27,4.79-13.27h2.18l-5.69,15.49h-2.53L1088,571Z" transform="translate(-805.75 -494.5)"/><path class="cls-1" d="M1106.45,572.58v5.29h5.89v1.54h-5.89v5.41H1113v1.62h-8.55V571H1113v1.63Z" transform="translate(-805.75 -494.5)"/></g><rect class="cls-1" x="0.41" y="14.52" width="47.98" height="47.98"/><polygon class="cls-1" points="14.2 0 14.2 9.56 52.25 9.56 52.25 47.98 62.18 47.98 62.18 0 14.2 0"/></svg>