<svg id="Layer_1" data-name="Layer 1" xmlns="http://www.w3.org/2000/svg" viewBox="0 0 754 490.07"><defs><style>.cls-1{fill:#d7e8f7;}.cls-2{fill:#33435a;}.cls-3{fill:#fff;}.cls-4{fill:#81bfef;}.cls-5{fill:#84b4fe;}.cls-6{fill:#06529c;}.cls-7{fill:#f3cfc1;}.cls-8{fill:#03345f;}.cls-10,.cls-9{fill:#71addb;}.cls-10{opacity:0.2;}.cls-11{fill:#de937a;}.cls-12{fill:#427ccc;}.cls-13{fill:#ffd474;}</style></defs><title>contact</title><path class="cls-1" d="M976.12,788q41.86.13,83.75-.21c59.81-.56,119.62-2.11,179.33-5.68,25.86-1.55,117.81-.17,74.27-55.62-14.71-18.72-46.11-26.07-66.73-26.41-22.59-.38-44.54,1.67-67.17,2.87-21,1.12-42,2.72-63.06,2.66-43-.11-86,0-129,3.51-40.35,3.31-80.79,2.17-121.22,2.17-41.46,0-82.63-.4-123.79-7.13-17.94-2.94-36.21-4-54.23-6-16.14-1.85-31.66,0-47.73,1.74a97.93,97.93,0,0,0-39.18,12.83c-9.71,5.68-27,23.3-30,36.84-8.35,38,117.62,37,137,37C797.62,786.15,886.87,787.74,976.12,788Z" transform="translate(-571 -298)"/><path class="cls-2" d="M1175.6,637.31c5.32,4.68,6.55,13.68,6.91,20.51.53,10.12-2.91,18.89-5.65,28.4a2.69,2.69,0,0,1-1.11,1.8,1.79,1.79,0,0,1-2.21-.76,4.17,4.17,0,0,1-.47-2.47c.16-2.8,1.25-5.44,2-8.12,2.6-8.9,1.59-18.73-3.49-26.48-2-3-5.45-6.21-3.28-13.11C1169.76,632.58,1172.21,634.33,1175.6,637.31Z" transform="translate(-571 -298)"/><path class="cls-2" d="M1157.47,663.8c-7.42-1.56-15.28-.91-22.93-.17-8.35.8-17.06,1.81-24,5.76-3.53,2-6.9,5.33-8.19,9.59a9.81,9.81,0,0,0-.11,5.68c.25.84.57,1.81.89,2.6.47,1.17,1.28,1.29,2.35,1.62a14.66,14.66,0,0,1,3.68,2.17c5.54,3.78,11.82,3.8,18.07,4.6a179.5,179.5,0,0,0,18.94,1.54c10.32.22,28.53-.69,31.74-11.24C1181,676.09,1167.29,665.87,1157.47,663.8Z" transform="translate(-571 -298)"/><path class="cls-2" d="M1115.65,683.08a9.15,9.15,0,0,1-3.72,1.77c-4.26,1.23-7.39,3.69-11.81,3.66-14.94-.1-15.33-20.53-2.12-25.72C1108.07,658.84,1126.81,673,1115.65,683.08Z" transform="translate(-571 -298)"/><path class="cls-2" d="M1162,681.28a37.67,37.67,0,0,1,7.6-4.95,5,5,0,0,1,1.82-.65,4,4,0,0,1,1.92.39,8,8,0,0,1,4.08,10,13.45,13.45,0,0,1-2.07,3.23c-2.29,2.81-5,5.34-6.87,8.42-3.51,5.66-1.63,10.19-.07,16.06a6.6,6.6,0,0,1,.3,1.7c0,2.77-.74,5.39-4,5.68a1.89,1.89,0,0,1-2.1-1.33c-.28-1.56,1.54-1.85,1.91-3s-.83-2.43-1.39-3.38a76.58,76.58,0,0,1-4.11-7.82c-2.23-5-4.07-11-2.4-16.46A17.43,17.43,0,0,1,1162,681.28Z" transform="translate(-571 -298)"/><path class="cls-2" d="M1141.33,709.64a4,4,0,0,0-.52,2.37,3.87,3.87,0,0,0,1.1,1.75l3.09,3.4a7,7,0,0,0,3.38,2.46c1.39.3,3.12-.66,3-2.08-.11-1.8-2.59-2.24-3.82-3.57-1.49-1.6-.86-4.22.22-6.12a17.17,17.17,0,0,1,8.74-7.48,15.19,15.19,0,0,0,3.52-1.55,3.22,3.22,0,0,0,1.44-3.32c-1.59-5.26-9.1-5.59-11.88-2C1146.21,698,1143.69,704.53,1141.33,709.64Z" transform="translate(-571 -298)"/><path class="cls-2" d="M1121.79,713.64a3.9,3.9,0,0,0,1.45,1.84,3.25,3.25,0,0,0,1.88.17l4.16-.43a5.9,5.9,0,0,0,3.64-1.23c1-.92,1.21-2.89.13-3.67-1.39-1-3,.73-4.69.91-5.16.6-6.32-8.23-4.09-11.63.46-.71,1-1.32,1.55-2a16,16,0,0,0,2.62-4.81c.72-2.19.51-1.52-.81-2.31-2.73-1.65-5.81-2.74-8.87-1.51a7.49,7.49,0,0,0-4.25,8.33C1115.93,702.75,1119.33,708.68,1121.79,713.64Z" transform="translate(-571 -298)"/><path class="cls-2" d="M1118.48,700.49a46.48,46.48,0,0,1,.3,5.89,36.46,36.46,0,0,0-.18,6.6c.32,2.22,1.37,4.26,1.79,6.46a3.8,3.8,0,0,1-.15,2.34,1.32,1.32,0,0,1-1.83.69c-2.16-3.48-4.37-7.13-4.91-11.29-.44-3.44.29-7.1-.9-10.33-.76-2.1-2.24-3.75-3.11-5.77-.8-1.85-1.79-4.1-1.2-6.16.33-1.15,1.28-1.63,1.48-2.77,0-.18.1-.4.26-.45a.41.41,0,0,1,.3.07c1.92.92,6.18,2,7.12,4.05.56,1.26.35,3.52.48,4.92C1118.11,696.66,1118.29,698.57,1118.48,700.49Z" transform="translate(-571 -298)"/><path class="cls-3" d="M1117.37,667.94s-1.65,15.27-10.47,20.36l-2.74,0s9.62-9.28,11.28-21.78Z" transform="translate(-571 -298)"/><path class="cls-4" d="M1104.69,688.3c1.59.53,1.11.63,1.81,2.05a2.78,2.78,0,0,1,0,2.75,2.57,2.57,0,0,1-2,1,3.55,3.55,0,0,1-3.69-2.9,2.84,2.84,0,0,1,3.17-3.08Z" transform="translate(-571 -298)"/><path class="cls-2" d="M1091.34,657.68a.19.19,0,0,0-.26.25,10.74,10.74,0,0,1,.34,3.67q-.09,4.46-.2,8.9c0-2,12.92,4.41,11.59-2.63C1102,663.78,1095,659.49,1091.34,657.68Z" transform="translate(-571 -298)"/><path class="cls-2" d="M1097.49,656.3a.18.18,0,0,0-.25.24,10.74,10.74,0,0,1,.34,3.67q-.11,4.45-.2,8.9c0-2,12.91,4.41,11.58-2.63C1108.19,662.39,1101.15,658.1,1097.49,656.3Z" transform="translate(-571 -298)"/><polygon class="cls-5" points="222.81 231.04 225.38 225.26 223.29 220.09 224.16 219.09 225.43 220.11 224.93 215.32 227.09 212.07 232.29 211.9 236.64 215.05 236.26 220.23 232.8 225.34 229.63 233.4 222.81 231.04"/><polygon class="cls-5" points="223.8 225.99 204.44 259.62 168.54 265.88 172.82 286.82 213.14 290.89 236.02 227.62 223.8 225.99"/><polygon class="cls-6" points="206.1 441.62 216.75 448.72 216.75 453.61 207.43 455.38 192.79 448.28 194.12 441.62 206.1 441.62"/><path class="cls-7" d="M738.79,562.46l-10.66,1.29c-.66-2.78-1.09-9.54-1.29-12.39-3.13-.37-6.82-1.15-8-4.07a8.72,8.72,0,0,1-.47-2.92l-.6-12.29a10.84,10.84,0,0,1,.35-4.21c.85-2.34,3.17-3.8,5.47-4.75,5.87-2.42,12.82-2.58,18.44.36a9.74,9.74,0,0,1,3.83,3.24c1.39,2.2,1.34,5,1.24,7.59l-.27,7.21c-.1,2.76-.43,6-2.73,7.49-1.22.82-2.83,1-3.87,2.06C738.4,552.9,739.4,559.94,738.79,562.46Z" transform="translate(-571 -298)"/><path class="cls-2" d="M765.26,511.35a27.36,27.36,0,0,1,1.34-3.27c1.14-2.28,2.7-4.36,3.48-6.78s.58-5.43-1.38-7.07a7.89,7.89,0,0,0-4.62-1.44,30.39,30.39,0,0,0-15.73,3.2c-4.6,2.33-8.51,5.36-13.83,4.62-5-.69-8.17.75-12.61,3.55-4.8,3-11.71,5-15.85,8.71a14.2,14.2,0,0,0-3.72,5.77,21.52,21.52,0,0,0,4.89,22.22,31.85,31.85,0,0,0,4.19,3.39c3.06,2.12,6.74,4.76,10.34,5-.59-3-5.48-12-3.71-15,2.82-4.77,11.47-5.26,16.27-5.31,5.23-.05,10.47,2.49,15.6,2.14,3.68-.25,7.84-3,10.46-5.53C763.61,522.45,763.88,515.43,765.26,511.35Z" transform="translate(-571 -298)"/><polygon class="cls-6" points="106.69 438.45 110.93 445.86 110.4 450.62 104.05 451.68 94.52 445.86 97.7 425.75 106.69 423.11 106.69 438.45"/><path class="cls-8" d="M681.93,669.25s-10.06,18.52,3.7,30.16,37.57,30.16,37.57,30.16l-45-10.05-3.17,15.87s68.25,22.75,69.84,21.17,18.52-16.41,18.52-16.41L726.9,660.26,686.69,665Z" transform="translate(-571 -298)"/><path class="cls-5" d="M788.79,657.61h0a89.88,89.88,0,0,1-9-11.25,62.75,62.75,0,0,1-10.3-28.6,103.13,103.13,0,0,1-.28-15.42c.13-2.78.33-5.56.56-8.33.14-1.57,1.66-7.25.81-8.49-8.57-12.53-9.61-21.78-23.64-23.3-32-3.45-30.21-1.51-41.1,11.73-4.37,5.32-12.46,20.59-15.25,26.82-3.39,7.55-6.68,15.13-9.72,22.82-3.4,8.58-6.48,17.29-9,26.15-.28,1-1.17,3.72-2.13,7-1.82,6.24-3.85,14.52-2.37,16.91.77,2,2.8,4.12,7.72,5.11,10.58,2.11,19.05,2.11,30.69-3.71s30.92-1.69,30.92-1.69h0c3.07.84,6.27,1.67,9.68,2.43,24.81,5.53,37.64-9.66,41.66-12.42C791.52,661,788.79,657.61,788.79,657.61Z" transform="translate(-571 -298)"/><path class="cls-8" d="M733.78,671.9l57.14-26.46,14.82,19-25.4,77.78-16.93-2.12,4.76-46.56s-14.28,12.17-39.68,11.11c-11.64-11.64-11.64-11.11-11.64-11.11Z" transform="translate(-571 -298)"/><polygon class="cls-9" points="484.94 56 185.88 154.94 366.25 198.7 484.94 56"/><path class="cls-9" d="M749.07,462.33l63.72,192.59,280.34-92.75c21.2-7,32.31-31.08,24.82-53.74L1067.8,356.88,941.31,509Z" transform="translate(-571 -298)"/><path class="cls-10" d="M1002.28,371.75a54.36,54.36,0,0,0,14.8,29L1055.94,354Z" transform="translate(-571 -298)"/><path class="cls-10" d="M1072.66,414.12a54.51,54.51,0,0,0,12.17-5.78l-17-51.46-42.27,50.82A54.06,54.06,0,0,0,1072.66,414.12Z" transform="translate(-571 -298)"/><circle class="cls-5" cx="1066.24" cy="352.15" r="54.13" transform="translate(-603.25 286.92) rotate(-30.24)"/><path class="cls-11" d="M1102.44,432.38l-2.83-3.67-4.27-7.71-5.87-2-6.23,3.62s1.46,2.61,3.66,2.32l3.3-.44,2.32,7.2a3.09,3.09,0,0,0,.15.4l.91,2.7s3.17,2.19,3.7,1.66a9.85,9.85,0,0,1,.83-.65l.91.4Z" transform="translate(-571 -298)"/><polygon class="cls-2" points="673.06 427.31 674.45 433.36 663.72 442.19 656.28 437.52 660.95 430.08 671.67 421.25 673.06 427.31"/><polygon class="cls-12" points="650.27 240.23 654.47 258.61 648.19 343.89 673.25 425.21 661.79 430.36 610.98 336.28 605.11 306.32 602.55 243.05 650.27 240.23"/><polygon class="cls-12" points="564.42 239.09 568.78 318.24 590.49 419.21 601.95 418.45 602.91 323.88 612.31 228.75 564.42 239.09"/><polygon class="cls-2" points="602.2 423.29 590.22 430.31 583.61 424.52 589.4 417.92 601.79 417.09 602.2 423.29"/><path class="cls-13" d="M1193.68,423.45a27.6,27.6,0,0,1,18.47,14.31c3.87,7.26,5.3,15.62,6.67,23.8,3.92,23.41,5.6,49.13,14.39,71.38,3.82,9.67,7.38,15.38,6.76,26.52-.17,3-7.27,31.32-7.22,31.35a53.65,53.65,0,0,0-33.28-8.26c-10.4.88-79,22.1-86.73,11.4-1.69-2.33,9.64-35.42,10.66-40.27q5-23.89,10.11-47.78c3.75-17.67,7.55-35.42,13.94-52.32a177.41,177.41,0,0,1,7.35-16.79c1.72-3.45,5.15-13.36,8.74-15,3-1.39,9.89.14,13.27.13C1182.46,421.86,1188.17,422,1193.68,423.45Z" transform="translate(-571 -298)"/><path class="cls-11" d="M1196.84,390.34c-7-14.95-30.4-17.64-33.51,1.09-.93,5.63-1.19,11.51.55,16.94s5.79,10.36,11.25,12l.09,0-.09,4.41a1,1,0,0,0,1.21,1.21l5.26.15a5.66,5.66,0,0,0,2.56-.32c1.73-.79,2.22-3,2.07-4.94,0-.45-.09-.91-.15-1.36C1195.85,414.84,1201.44,400.12,1196.84,390.34Z" transform="translate(-571 -298)"/><path class="cls-2" d="M1170.88,365.21c-4.18-.7-7.82,3.3-11.72,5.37-3.25,1.72-6.9,2.12-10.26,3.54s-6.69,4.42-6.83,8.26c-3.35-1.82-7-3.68-10.77-3s-7.4,5.12-6,8.87c1.29,3.36,5.63,4.22,7,7.53,2.19,5.24-4.14,13.19,0,16.71,1,.85,2.38,1.07,3.37,1.94,1.22,1.08,1.58,2.91,2.11,4.54,2.37,7.37,9.67,12.29,17,11.44a19.42,19.42,0,0,0,10-11.37c2.06-6-1.15-8.2-1.59-13.9a24.81,24.81,0,0,1,5.6-17.54c2.61-3.09,6.3-5.74,10.16-6,1.57-.12,1,1.18,2.83,0a7.93,7.93,0,0,0,2.07-3.4C1179.75,374.68,1176.38,366.13,1170.88,365.21Z" transform="translate(-571 -298)"/><path class="cls-13" d="M1171.79,422.15l-39,37.24-.28.13L1101,428.87l-7.12,7,32.73,49.82.53,1,40.72-18.56,17.52-37.62Z" transform="translate(-571 -298)"/><polygon class="cls-13" points="538.81 83.02 534.65 72.33 539.15 70.35 543.62 77.04 545.31 75.12 547.75 84.71 543.36 87.39 538.81 83.02"/><path class="cls-13" d="M1193.4,423.73c-5.22-2.32-12.2-1.78-19.28-2l-25-.76L1119,379.18l-8.45,5.78,24.66,57.22,32.68,8.41c6,1.54,13,4.53,19.18,4.9,9.13.53,15.9-10.4,14.59-19C1200.58,429.21,1197.55,425.57,1193.4,423.73Z" transform="translate(-571 -298)"/><path class="cls-2" d="M1216.05,374.07c2.15.64,4.5.6,6.55,1.54,3.07,1.41,2.82,4.61,3.65,7.42.91,3.1,2.25,7.27,4.24,9.71,1.44,1.76,3.48,2.78,5.24,4.15s3.37,3.36,3.29,5.77-1.64,4.3-1.91,6.57c-.33,3.39.22,5.14-.88,8.59-.58,1.79-1.21,3.67-2.58,4.87-1.8,1.58-4.32,1.5-6.53,1.09s-4.49-1.06-6.69-.37c-4.76,1.51-4,6.32-5.3,10.31-2,6.08-9.17,9.52-14.56,7.26-4.56-1.93-7.13-7.31-6.83-12.58.15-2.64,1.25-5.08,1.37-7.71s-1.25-6.1,1.09-8.08a17.86,17.86,0,0,0,1.81-1.28,3.69,3.69,0,0,0,.81-1.66,7.32,7.32,0,0,0-1.11-6c-.87-1.17-2.13-2-2.65-3.45-.6-1.61-.07-3.48.06-5.24a10.54,10.54,0,0,0-5.46-10.22c-2.33-1.13-4.43-1.81-6.46-3.51-.31-.25-4.9-4.46-5-3.57a9.43,9.43,0,0,1,2.11-4.12,18.42,18.42,0,0,1,5.4-5.17c6.94-3.85,7.11,5.37,12.65,4.26,1.34-.27,2.36-1.47,3.57-2.18,2.29-1.33,5.06-.79,7.35.28S1213.63,373.35,1216.05,374.07Z" transform="translate(-571 -298)"/><polygon class="cls-7" points="227.15 328.71 233.22 330.48 238.07 327.72 239.18 328.45 238.33 329.85 243.01 328.71 246.52 330.42 247.39 335.54 244.84 340.27 239.66 340.59 234.13 337.84 225.72 335.78 227.15 328.71"/><polygon class="cls-5" points="233.23 327.8 196.6 310.41 192.32 281.73 164.61 271.39 170.16 320.99 233.26 340.13 233.23 327.8"/></svg>