
<svg xmlns="http://www.w3.org/2000/svg" viewBox="0 0 958.51 623"><defs><style>.cls-1{fill:#d1e9f8;}.cls-2{fill:#3b455a;}.cls-3{fill:#fff;}.cls-4{fill:#96bfee;}.cls-5{fill:#eacfc1;}.cls-6{fill:#305399;}.cls-7{fill:#003160;}.cls-8,.cls-9{fill:#47afde;}.cls-9{opacity:0.2;}.cls-10{fill:#cc937a;}.cls-11{fill:#587bc9;}.cls-12{fill:#ffd56e;}</style></defs><title>contactnew</title><g id="object"><path class="cls-1" d="M576.74,705.94q53.24.18,106.47-.26c76-.71,152.07-2.69,228-7.23,32.87-2,149.76-.21,94.42-70.7C986.9,604,947,594.61,920.77,594.17c-28.72-.48-56.63,2.12-85.39,3.66-26.73,1.42-53.4,3.45-80.17,3.38-54.68-.15-109.37,0-164,4.46-51.28,4.2-102.69,2.76-154.09,2.76-52.7,0-105-.51-157.37-9.07-22.8-3.73-46-5-68.94-7.65-20.52-2.35-40.24,0-60.67,2.21a124.63,124.63,0,0,0-49.81,16.31C88,617.45,66,639.85,62.24,657.07c-10.61,48.26,149.54,47.1,174.13,47C349.83,703.56,463.28,705.57,576.74,705.94Z" transform="translate(-61.74 -83)"/><path class="cls-2" d="M830.33,514.34c6.76,6,8.33,17.39,8.78,26.08.67,12.86-3.69,24-7.18,36.09a3.51,3.51,0,0,1-1.41,2.3,2.29,2.29,0,0,1-2.81-1,5.2,5.2,0,0,1-.59-3.14c.2-3.55,1.58-6.91,2.58-10.33,3.31-11.31,2-23.8-4.44-33.65-2.53-3.87-6.92-7.9-4.15-16.67C822.91,508.33,826,510.55,830.33,514.34Z" transform="translate(-61.74 -83)"/><path class="cls-2" d="M807.28,548c-9.43-2-19.43-1.16-29.15-.22-10.61,1-21.69,2.31-30.44,7.33-4.49,2.57-8.78,6.77-10.42,12.18a12.5,12.5,0,0,0-.14,7.22c.32,1.07.73,2.31,1.13,3.31.6,1.49,1.63,1.64,3,2.07a18.66,18.66,0,0,1,4.67,2.75c7.05,4.81,15,4.83,23,5.84a228.33,228.33,0,0,0,24.07,2c13.12.27,36.27-.89,40.35-14.29C837.15,563.64,819.77,550.65,807.28,548Z" transform="translate(-61.74 -83)"/><path class="cls-2" d="M754.11,572.53a11.71,11.71,0,0,1-4.73,2.25c-5.4,1.56-9.39,4.68-15,4.65-19-.13-19.49-26.1-2.7-32.69C744.48,541.72,768.3,559.69,754.11,572.53Z" transform="translate(-61.74 -83)"/><path class="cls-2" d="M813.05,570.24a48,48,0,0,1,9.65-6.3,6.66,6.66,0,0,1,2.31-.82,5.05,5.05,0,0,1,2.44.5,10.22,10.22,0,0,1,5.19,12.73,16.56,16.56,0,0,1-2.63,4.1c-2.9,3.58-6.3,6.79-8.73,10.71-4.46,7.19-2.07,13-.09,20.42a8.9,8.9,0,0,1,.38,2.16c0,3.52-.94,6.85-5.12,7.23a2.45,2.45,0,0,1-2.68-1.7c-.35-2,2-2.35,2.44-3.85s-1.05-3.09-1.77-4.3a96,96,0,0,1-5.22-9.94c-2.85-6.35-5.19-14-3.05-20.92A21.92,21.92,0,0,1,813.05,570.24Z" transform="translate(-61.74 -83)"/><path class="cls-2" d="M786.76,606.29a5.08,5.08,0,0,0-.66,3,5,5,0,0,0,1.4,2.22l3.92,4.32c1.22,1.33,2.55,2.74,4.31,3.12s4-.83,3.85-2.63c-.14-2.3-3.29-2.86-4.86-4.54-1.89-2-1.09-5.37.29-7.79a21.86,21.86,0,0,1,11.1-9.51,18.65,18.65,0,0,0,4.47-2,4.06,4.06,0,0,0,1.83-4.21c-2-6.69-11.56-7.11-15.09-2.51C793,591.5,789.76,599.79,786.76,606.29Z" transform="translate(-61.74 -83)"/><path class="cls-2" d="M761.93,611.37a4.83,4.83,0,0,0,1.84,2.34,4.13,4.13,0,0,0,2.39.22l5.29-.54c1.63-.17,3.38-.39,4.62-1.57s1.54-3.67.16-4.66c-1.75-1.26-3.87.92-6,1.16-6.56.75-8-10.47-5.2-14.8.59-.89,1.31-1.68,2-2.51a20.47,20.47,0,0,0,3.33-6.11c.92-2.79.65-1.93-1-2.94-3.48-2.1-7.39-3.49-11.28-1.92-3.67,1.48-6.52,6.27-5.39,10.6C754.47,597.53,758.8,605.07,761.93,611.37Z" transform="translate(-61.74 -83)"/><path class="cls-2" d="M757.71,594.66a56.86,56.86,0,0,1,.38,7.49c-.1,2.8-.62,5.61-.22,8.38s1.74,5.42,2.27,8.23a4.73,4.73,0,0,1-.18,3,1.69,1.69,0,0,1-2.33.89c-2.74-4.43-5.56-9.07-6.24-14.36-.57-4.38.36-9-1.15-13.14-1-2.66-2.84-4.76-4-7.33-1-2.35-2.28-5.21-1.53-7.83.42-1.46,1.62-2.07,1.89-3.51,0-.24.12-.52.33-.58a.53.53,0,0,1,.38.08c2.43,1.18,7.85,2.49,9,5.16.71,1.59.44,4.47.61,6.25Z" transform="translate(-61.74 -83)"/><path class="cls-3" d="M756.31,553.28s-2.1,19.41-13.32,25.88l-3.48,0s12.23-11.79,14.34-27.69Z" transform="translate(-61.74 -83)"/><path class="cls-4" d="M740.19,579.16c2,.67,1.41.81,2.29,2.61a3.55,3.55,0,0,1,0,3.5,3.27,3.27,0,0,1-2.56,1.24,4.53,4.53,0,0,1-4.7-3.68c-.26-2.18,1.89-4.39,4-3.92Z" transform="translate(-61.74 -83)"/><path class="cls-2" d="M723.21,540.24a.24.24,0,0,0-.33.31,13.53,13.53,0,0,1,.44,4.67q-.12,5.67-.26,11.32c.06-2.55,16.42,5.6,14.73-3.35C736.81,548,727.86,542.54,723.21,540.24Z" transform="translate(-61.74 -83)"/><path class="cls-2" d="M731,538.48a.24.24,0,0,0-.32.31,13.76,13.76,0,0,1,.44,4.67q-.14,5.65-.26,11.31c.06-2.54,16.42,5.61,14.73-3.34C744.63,546.22,735.69,540.77,731,538.48Z" transform="translate(-61.74 -83)"/><polygon class="cls-5" points="283.25 293.7 286.51 286.36 283.85 279.78 284.96 278.51 286.58 279.81 285.94 273.73 288.69 269.59 295.3 269.37 300.82 273.38 300.35 279.96 295.94 286.46 291.91 296.71 283.25 293.7"/><polygon class="cls-4" points="284.5 287.29 259.9 330.03 214.26 338 219.7 364.62 270.95 369.79 300.04 289.35 284.5 287.29"/><polygon class="cls-6" points="262 561.41 275.54 570.43 275.54 576.64 263.69 578.9 245.08 569.87 246.77 561.41 262 561.41"/><path class="cls-5" d="M275.05,419.19l-13.56,1.65c-.83-3.54-1.38-12.14-1.64-15.76-4-.47-8.67-1.47-10.17-5.18a11.31,11.31,0,0,1-.6-3.71l-.76-15.62a13.94,13.94,0,0,1,.45-5.35c1.07-3,4-4.83,6.95-6,7.46-3.07,16.29-3.28,23.45.46a12.39,12.39,0,0,1,4.86,4.12c1.76,2.8,1.7,6.34,1.57,9.65-.11,3-.22,6.11-.34,9.16-.13,3.52-.55,7.57-3.47,9.53-1.55,1-3.59,1.29-4.91,2.61C274.55,407,275.81,416,275.05,419.19Z" transform="translate(-61.74 -83)"/><path class="cls-2" d="M308.69,354.22a32.87,32.87,0,0,1,1.71-4.15c1.44-2.9,3.42-5.55,4.42-8.63s.73-6.9-1.75-9a10,10,0,0,0-5.88-1.84,38.75,38.75,0,0,0-20,4.07c-5.85,3-10.82,6.81-17.58,5.88-6.36-.89-10.39.95-16,4.5-6.1,3.85-14.88,6.4-20.14,11.08a18.19,18.19,0,0,0-4.74,7.33,27.36,27.36,0,0,0,6.23,28.25,39.46,39.46,0,0,0,5.32,4.31c3.88,2.69,8.56,6,13.15,6.35-.76-3.88-7-15.24-4.72-19.05,3.58-6.06,14.58-6.68,20.68-6.74,6.65-.08,13.31,3.16,19.82,2.72,4.69-.32,10-3.84,13.31-7C306.6,368.33,306.93,359.41,308.69,354.22Z" transform="translate(-61.74 -83)"/><polygon class="cls-6" points="135.63 557.37 141.01 566.79 140.34 572.84 132.27 574.19 120.16 566.79 124.2 541.23 135.63 537.87 135.63 557.37"/><path class="cls-7" d="M202.75,555s-12.78,23.54,4.71,38.34,47.76,38.34,47.76,38.34l-57.17-12.78L194,639s86.77,28.92,88.79,26.9,23.54-20.85,23.54-20.85L259.93,543.51l-51.12,6.06Z" transform="translate(-61.74 -83)"/><path class="cls-4" d="M338.61,540.15h0a113.59,113.59,0,0,1-11.47-14.29A79.63,79.63,0,0,1,314,489.5a132.53,132.53,0,0,1-.36-19.62c.16-3.53.42-7.05.72-10.58.17-2,2.1-9.22,1-10.79-10.9-15.93-12.22-27.7-30.06-29.62-40.71-4.4-38.4-1.92-52.24,14.9-5.56,6.77-15.84,26.18-19.4,34.1-4.3,9.59-8.49,19.24-12.35,29-4.31,10.91-8.23,22-11.45,33.25-.35,1.25-1.49,4.72-2.71,8.92-2.31,7.93-4.9,18.45-3,21.49,1,2.54,3.57,5.24,9.82,6.49,13.45,2.7,24.21,2.7,39-4.7s39.31-2.15,39.31-2.15h0c3.89,1.07,8,2.12,12.3,3.09,31.54,7,47.84-12.29,53-15.79C342.07,544.43,338.61,540.15,338.61,540.15Z" transform="translate(-61.74 -83)"/><path class="cls-7" d="M268.67,558.31l72.65-33.63,18.83,24.21-32.29,98.88-21.52-2.69,6.05-59.19S294.23,601.36,262,600c-14.8-14.79-14.8-14.12-14.8-14.12Z" transform="translate(-61.74 -83)"/><polygon class="cls-8" points="616.47 71.18 236.29 196.97 465.59 252.59 616.47 71.18"/><path class="cls-8" d="M288.11,291.9l81,244.83L725.49,418.82c27-8.92,41.08-39.51,31.55-68.32L693.29,157.84,532.49,351.19Z" transform="translate(-61.74 -83)"/><path class="cls-9" d="M610,176.75a70.36,70.36,0,0,0,2.53,10.15,68.67,68.67,0,0,0,16.29,26.67l49.4-59.39Z" transform="translate(-61.74 -83)"/><path class="cls-9" d="M699.47,230.61a68.81,68.81,0,0,0,15.47-7.35l-21.65-65.42-53.73,64.62A68.68,68.68,0,0,0,699.47,230.61Z" transform="translate(-61.74 -83)"/><circle class="cls-4" cx="691.31" cy="151.83" r="68.81" transform="translate(33.38 450.3) rotate(-45)"/><path class="cls-3" d="M695.78,182.65l-14.3-43.2L672,142.59l-4.13-12.47,23.37-7.73,18.41,55.66Z" transform="translate(-61.74 -83)"/><path class="cls-10" d="M737.32,253.83l-3.6-4.67-5.42-9.79-7.46-2.58-7.93,4.61s1.86,3.31,4.66,2.94l4.2-.55,2.94,9.15a5.05,5.05,0,0,0,.2.5l1.15,3.44s4,2.78,4.71,2.11a12.62,12.62,0,0,1,1-.83l1.17.51Z" transform="translate(-61.74 -83)"/><polygon class="cls-2" points="855.62 543.21 857.38 550.9 843.75 562.12 834.29 556.19 840.23 546.73 853.86 535.51 855.62 543.21"/><polygon class="cls-11" points="826.64 305.39 831.99 328.76 824 437.16 855.85 540.54 841.29 547.09 776.7 427.49 769.24 389.4 765.98 308.98 826.64 305.39"/><polygon class="cls-11" points="717.51 303.94 723.06 404.56 750.65 532.92 765.21 531.95 766.44 411.73 778.39 290.79 717.51 303.94"/><polygon class="cls-2" points="765.54 538.09 750.31 547.02 741.91 539.67 749.26 531.27 765.01 530.22 765.54 538.09"/><path class="cls-12" d="M853.31,242.48c9.45,2.43,17.82,7.59,23.48,18.19,4.92,9.23,6.74,19.85,8.49,30.25,5,29.76,7.11,62.46,18.28,90.74,4.86,12.3,9.39,19.56,8.59,33.72-.21,3.86-9.23,39.81-9.16,39.85a68.28,68.28,0,0,0-42.32-10.5c-13.22,1.12-100.39,28.09-110.25,14.49-2.15-3,12.25-45,13.55-51.19q6.39-30.37,12.85-60.74c4.77-22.47,9.6-45,17.72-66.51a229.9,229.9,0,0,1,9.34-21.35c2.2-4.38,6.55-17,11.12-19.11,3.77-1.77,12.57.17,16.86.16C839.05,240.45,846.31,240.68,853.31,242.48Z" transform="translate(-61.74 -83)"/><path class="cls-10" d="M857.33,200.39c-8.93-19-38.64-22.43-42.6,1.38-1.18,7.15-1.52,14.63.7,21.54s7.36,13.17,14.3,15.27l.12,0c0,1.86-.08,3.73-.11,5.59a1.68,1.68,0,0,0,.26,1.15,1.71,1.71,0,0,0,1.26.4L838,246a7.29,7.29,0,0,0,3.26-.41c2.2-1,2.82-3.86,2.64-6.27-.05-.58-.12-1.16-.2-1.74C856.08,231.53,863.17,212.81,857.33,200.39Z" transform="translate(-61.74 -83)"/><path class="cls-2" d="M824.33,168.44c-5.31-.88-9.94,4.2-14.9,6.83-4.13,2.18-8.78,2.69-13,4.49s-8.5,5.62-8.68,10.51c-4.25-2.31-8.86-4.69-13.69-3.84s-9.4,6.5-7.57,11.27c1.65,4.27,7.16,5.37,8.93,9.58,2.79,6.65-5.26,16.77,0,21.24,1.28,1.08,3,1.36,4.28,2.47,1.55,1.37,2,3.69,2.68,5.76,3,9.37,12.3,15.63,21.6,14.55a24.65,24.65,0,0,0,12.69-14.46c2.62-7.66-1.46-10.42-2-17.67a31.56,31.56,0,0,1,7.12-22.29c3.31-3.94,8-7.3,12.91-7.68,2-.15,1.34,1.5,3.61,0a10.07,10.07,0,0,0,2.62-4.32C835.61,180.48,831.32,169.61,824.33,168.44Z" transform="translate(-61.74 -83)"/><path class="cls-12" d="M825.48,240.83l-49.62,47.33-.35.17-40.07-39-9.06,8.86L768,321.56l.67,1.33,51.76-23.59,22.28-47.83Z" transform="translate(-61.74 -83)"/><polygon class="cls-12" points="684.96 105.54 679.67 91.94 685.38 89.43 691.07 97.94 693.22 95.5 696.32 107.68 690.74 111.1 684.96 105.54"/><path class="cls-12" d="M853,242.83c-6.64-3-15.52-2.26-24.52-2.54l-31.72-1L758.4,186.2l-10.74,7.35L779,266.29,820.55,277c7.64,2,16.5,5.77,24.39,6.23,11.6.68,20.21-13.22,18.54-24.2C862.09,249.79,858.23,245.17,853,242.83Z" transform="translate(-61.74 -83)"/><path class="cls-2" d="M881.75,179.71c2.74.81,5.72.75,8.32,1.95,3.9,1.79,3.59,5.87,4.64,9.43,1.17,3.95,2.86,9.25,5.4,12.35,1.83,2.23,4.41,3.53,6.66,5.27s4.28,4.28,4.18,7.34c-.1,2.89-2.09,5.46-2.43,8.35-.42,4.31.29,6.54-1.12,10.92-.73,2.27-1.54,4.67-3.28,6.19-2.28,2-5.49,1.91-8.3,1.39s-5.7-1.36-8.5-.47c-6.06,1.92-5,8-6.73,13.11-2.58,7.72-11.67,12.1-18.51,9.21-5.81-2.44-9.07-9.29-8.69-16,.2-3.35,1.59-6.45,1.74-9.81s-1.59-7.75,1.39-10.27a24.42,24.42,0,0,0,2.3-1.62,4.73,4.73,0,0,0,1-2.11,9.28,9.28,0,0,0-1.4-7.67c-1.11-1.49-2.71-2.59-3.38-4.38-.76-2-.09-4.42.09-6.67.42-5.43-2.46-10.81-6.95-13-3-1.44-5.63-2.3-8.21-4.45-.39-.33-6.23-5.68-6.4-4.55a11.92,11.92,0,0,1,2.67-5.23,23.6,23.6,0,0,1,6.87-6.58c8.83-4.89,9,6.83,16.08,5.42,1.7-.34,3-1.87,4.54-2.77,2.91-1.7,6.43-1,9.35.35S878.67,178.79,881.75,179.71Z" transform="translate(-61.74 -83)"/><polygon class="cls-5" points="288.77 417.87 296.48 420.12 302.64 416.61 304.05 417.54 302.98 419.31 308.92 417.87 313.39 420.04 314.49 426.55 311.25 432.56 304.67 432.98 297.64 429.48 286.94 426.86 288.77 417.87"/><polygon class="cls-4" points="296.5 416.71 249.92 394.61 244.48 358.15 209.26 345 216.31 408.05 296.52 432.39 296.5 416.71"/></g></svg>